<svg width="2389" height="1947" viewBox="0 0 2389 1947" fill="none" xmlns="http://www.w3.org/2000/svg">
<g clip-path="url(#clip0_81_672)">
<rect width="2389" height="1947" fill="url(#paint0_linear_81_672)"/>
<path d="M1229.15 908.312C1243.86 936.066 1290.25 981.421 1358.2 940.807C1317.53 877.415 1255.22 892.731 1229.15 908.312Z" fill="#EEE6C6" fill-opacity="0.05"/>
<path d="M1144.08 571.454C1144.12 602.862 1163.96 664.636 1243.02 660.461C1236.66 585.412 1174.41 569.852 1144.08 571.454Z" fill="#EEE6C6" fill-opacity="0.05"/>
<path d="M1146.09 696.39C1153.8 726.838 1188.12 781.895 1263.76 758.537C1239.27 687.313 1175.11 687.429 1146.09 696.39Z" fill="#EEE6C6" fill-opacity="0.05"/>
<path d="M1171.82 808.796C1184.32 837.607 1227.06 886.424 1297.96 851.202C1262.32 784.846 1199.01 795.283 1171.82 808.796Z" fill="#EEE6C6" fill-opacity="0.05"/>
<path d="M1434.56 803.31C1448.04 831.681 1456.7 895.982 1383.53 926.217C1356.99 855.731 1406.49 814.91 1434.56 803.31Z" fill="#EEE6C6" fill-opacity="0.05"/>
<path d="M1341.85 546.748C1350.16 577.037 1347.44 641.861 1270.12 658.845C1256.31 584.805 1312.18 553.263 1341.85 546.748Z" fill="#EEE6C6" fill-opacity="0.05"/>
<path d="M1369.4 646.663C1375.15 677.541 1367.04 741.913 1288.57 752.38C1280.98 677.445 1339.29 650.679 1369.4 646.663Z" fill="#EEE6C6" fill-opacity="0.05"/>
<path d="M1391.04 721.8C1401.26 751.499 1402.68 816.364 1326.59 838.235C1308.09 765.225 1361.85 730.191 1391.04 721.8Z" fill="#EEE6C6" fill-opacity="0.05"/>
<path d="M1258.06 431.114C1233.6 450.824 1197.89 504.993 1250.68 563.988C1305.19 512.008 1278.31 453.747 1258.06 431.114Z" fill="#EEE6C6" fill-opacity="0.05"/>
<path d="M1619.15 1087.44C1621.2 1087.67 1626.2 1078.64 1624.84 1077.1C1623.14 1075.2 1619.44 1076.07 1616.96 1075.59C1610.85 1074.42 1604.84 1073.06 1598.91 1071.55C1579.44 1066.6 1560.8 1060.07 1542.78 1052.4C1489.08 1029.54 1440.69 996.752 1398.26 953.777C1317.07 871.557 1251.81 754.035 1254.6 542.707C1254.65 539.075 1249.1 545.812 1248.28 550.418C1245.76 564.512 1247.9 578.313 1248.15 589.22C1248.85 619.25 1251.21 647.006 1254.86 672.898C1265.74 750.037 1287.96 810.646 1315.94 861.477C1359.56 940.728 1417.7 996.485 1484.44 1036.06C1525.27 1060.27 1568.48 1081.6 1619.15 1087.44Z" fill="#EEE6C6" fill-opacity="0.05"/>
<path d="M265.645 1312.67C217.345 1336.06 137.031 1412.47 202.176 1531.01C312.933 1465.48 290.637 1358.14 265.645 1312.67Z" fill="#EEE6C6" fill-opacity="0.05"/>
<path d="M74.895 1408.55C33.7709 1443.03 -25.4459 1536.74 66.679 1635.78C158.076 1545.19 110.238 1446.55 74.895 1408.55Z" fill="#EEE6C6" fill-opacity="0.05"/>
<path d="M-78.9528 1531.63C-113.994 1572.28 -157.363 1674.3 -50.5044 1757.23C25.1269 1653.11 -37.957 1563.45 -78.9528 1531.63Z" fill="#EEE6C6" fill-opacity="0.05"/>
<path d="M124.656 1931.84C91.0115 1973.65 -1.49469 2034.74 -102.363 1944.63C-13.6226 1851.43 85.9582 1897.27 124.656 1931.84Z" fill="#EEE6C6" fill-opacity="0.05"/>
<path d="M450.558 1598.61C410.124 1633.89 308.366 1677.88 224.799 1571.52C328.462 1495.26 418.498 1557.8 450.558 1598.61Z" fill="#EEE6C6" fill-opacity="0.05"/>
<path d="M317.286 1715.22C274.047 1747.01 168.971 1782.34 94.5774 1669.38C204.246 1602.04 288.745 1671.88 317.286 1715.22Z" fill="#EEE6C6" fill-opacity="0.05"/>
<path d="M217.745 1804.33C179.64 1842.11 80.8871 1892.48 -9.28008 1791.66C89.3185 1708.96 183.153 1765.65 217.745 1804.33Z" fill="#EEE6C6" fill-opacity="0.05"/>
<path d="M566.246 1383.79C517.754 1360.81 407.878 1346.1 356.315 1471.14C476.783 1516.4 546.464 1431.77 566.246 1383.79Z" fill="#EEE6C6" fill-opacity="0.05"/>
<path d="M-175.412 2426.92C-174.251 2430.26 -156.635 2431.23 -155.288 2428C-153.615 2423.98 -157.706 2418.93 -158.816 2414.75C-161.544 2404.48 -163.919 2394.22 -166.004 2383.97C-172.845 2350.34 -176.658 2316.81 -178.238 2283.38C-182.945 2183.78 -168.439 2084.97 -133.833 1987.75C-67.6249 1801.76 64.7293 1614.05 391.969 1461.37C397.594 1458.74 383.105 1455.21 375.408 1457.36C351.852 1463.96 332.204 1477.5 315.61 1485.99C269.922 1509.37 228.965 1533.62 191.836 1558.47C81.2233 1632.5 4.47167 1711.72 -52.9573 1792.53C-142.495 1918.52 -185.106 2049.39 -196.425 2181.48C-203.352 2262.3 -204.071 2344.62 -175.412 2426.92Z" fill="#EEE6C6" fill-opacity="0.05"/>
<path d="M1137.1 1953.24C1137.15 1995.12 1163.6 2077.48 1269 2071.91C1260.52 1971.85 1177.53 1951.11 1137.1 1953.24Z" fill="#EEE6C6" fill-opacity="0.05"/>
<path d="M1400.76 1920.31C1411.84 1960.69 1408.22 2047.11 1305.14 2069.76C1286.72 1971.04 1361.21 1928.99 1400.76 1920.31Z" fill="#EEE6C6" fill-opacity="0.05"/>
<path d="M1289.05 1766.14C1256.45 1792.42 1208.84 1864.64 1279.22 1943.29C1351.89 1873.99 1316.05 1796.32 1289.05 1766.14Z" fill="#EEE6C6" fill-opacity="0.05"/>
<path d="M1770.46 2641.16C1773.2 2641.47 1779.86 2629.43 1778.04 2627.38C1775.79 2624.84 1770.85 2626.01 1767.54 2625.37C1759.4 2623.8 1751.38 2621.99 1743.47 2619.98C1717.52 2613.38 1692.66 2604.68 1668.64 2594.45C1597.05 2563.97 1532.54 2520.26 1475.97 2462.96C1367.73 2353.35 1280.72 2196.66 1284.44 1914.92C1284.51 1910.08 1277.11 1919.06 1276.01 1925.2C1272.66 1943.99 1275.51 1962.39 1275.84 1976.93C1276.77 2016.97 1279.92 2053.97 1284.78 2088.49C1299.29 2191.33 1328.92 2272.14 1366.22 2339.91C1424.38 2445.57 1501.88 2519.9 1590.86 2572.66C1645.31 2604.95 1702.91 2633.38 1770.46 2641.16Z" fill="#EEE6C6" fill-opacity="0.05"/>
</g>
<defs>
<linearGradient id="paint0_linear_81_672" x1="1194.5" y1="0" x2="1194.5" y2="2034" gradientUnits="userSpaceOnUse">
<stop offset="0.25" stop-color="#155042"/>
<stop offset="0.558974" stop-color="#2A5018"/>
<stop offset="1" stop-color="#122609"/>
</linearGradient>
<clipPath id="clip0_81_672">
<rect width="2389" height="1947" fill="white"/>
</clipPath>
</defs>
</svg>
