<svg xmlns="http://www.w3.org/2000/svg" width="100" height="100" viewBox="0 0 100 100" fill="none">
                        <path fill-rule="evenodd" clip-rule="evenodd"
                            d="M13.2031 98.6548C12.8214 99.2767 12.3049 99.6876 11.6538 99.8876C11.0026 100.087 10.3514 100.021 9.70024 99.6876C9.04906 99.31 8.64489 98.7881 8.48771 98.1217C8.35298 97.4775 8.45403 96.8556 8.79084 96.2559L21.7918 73.9994C22.196 73.3331 22.7125 72.911 23.3412 72.7333C23.9924 72.5556 24.6323 72.6445 25.261 72.9999C25.9122 73.3553 26.3164 73.855 26.4736 74.4992C26.6532 75.1656 26.5409 75.8319 26.1367 76.4983L13.2031 98.6548Z"
                            fill="#FCFCFC" />
                        <path
                            d="M20.6467 65.7365C16.3355 65.7365 12.6305 64.9036 9.53183 63.2377C6.4556 61.5496 4.0979 59.295 2.45874 56.4741C0.81958 53.631 0 50.4769 0 47.0118C0 43.9465 0.617492 41.1811 1.85248 38.7156C3.10991 36.2501 4.80521 34.1621 6.93836 32.4518C9.07152 30.7193 11.4741 29.4643 14.1462 28.6869C14.5504 24.6665 15.6282 20.9237 17.3796 17.4587C19.1535 13.9936 21.455 10.9616 24.2843 8.36283C27.136 5.74181 30.3694 3.6983 33.9845 2.23231C37.5996 0.744103 41.4618 0 45.5709 0C49.9719 0 53.98 0.732997 57.5951 2.19899C61.2103 3.66499 64.3876 5.7196 67.127 8.36283C69.8888 11.0061 72.168 14.0824 73.9643 17.5919C77.6468 17.5919 81.0598 18.1917 84.2034 19.3911C87.3695 20.5906 90.1314 22.2676 92.4891 24.4221C94.8692 26.5767 96.7104 29.1089 98.0128 32.0187C99.3376 34.9284 100 38.1159 100 41.5809C100 44.9128 99.3713 48.0446 98.1138 50.9766C96.8564 53.9086 95.0938 56.4741 92.8259 58.6731C90.558 60.8721 87.8972 62.6046 84.8434 63.8707C81.7896 65.1146 78.4776 65.7365 74.9074 65.7365H20.6467Z"
                            fill="white" />
                        <path
                            d="M47.8275 98.6548C47.4458 99.2767 46.9182 99.6876 46.2445 99.8876C45.5934 100.087 44.9534 100.021 44.3247 99.6876C43.6735 99.31 43.2693 98.7881 43.1122 98.1217C42.9774 97.4775 43.0785 96.8556 43.4153 96.2559L56.3826 73.9994C56.7868 73.3331 57.3032 72.911 57.932 72.7333C58.5831 72.5556 59.2343 72.6445 59.8855 72.9999C60.5142 73.3553 60.9071 73.855 61.0643 74.4992C61.244 75.1656 61.1429 75.8319 60.7612 76.4983L47.8275 98.6548Z"
                            fill="#FCFCFC" />
                        <path
                            d="M30.549 98.6548C30.1897 99.2767 29.6733 99.6876 28.9997 99.8876C28.326 100.087 27.6749 100.021 27.0461 99.6876C26.395 99.31 25.9908 98.7881 25.8336 98.1217C25.6989 97.4775 25.7999 96.8556 26.1367 96.2559L39.1378 73.9994C39.5195 73.3331 40.0247 72.911 40.6534 72.7333C41.3046 72.5334 41.9558 72.6223 42.6069 72.9999C43.2357 73.3553 43.6286 73.855 43.7858 74.4992C43.9654 75.1656 43.8644 75.8319 43.4827 76.4983L30.549 98.6548Z"
                            fill="#FCFCFC" />
                        <path
                            d="M65.0387 98.6881C64.7019 99.2878 64.1967 99.6876 63.5231 99.8876C62.8494 100.087 62.2207 100.021 61.6369 99.6876C60.9857 99.31 60.5816 98.7881 60.4244 98.1217C60.2897 97.4553 60.4132 96.8112 60.7949 96.1892L73.7285 73.9661C74.1102 73.322 74.6267 72.9221 75.2779 72.7666C75.929 72.589 76.5578 72.6667 77.164 72.9999C77.8152 73.3331 78.2194 73.8328 78.3766 74.4992C78.5337 75.1656 78.4327 75.8097 78.0734 76.4316L65.0387 98.6881Z"
                            fill="#FCFCFC" />
                    </svg>