<svg xmlns="http://www.w3.org/2000/svg" width="71" height="60" viewBox="0 0 71 60" fill="none">
                                    <path d="M1.8125 3.0938C2.10417 1.88547 2.70833 1.17714 3.625 0.968805C4.5625 0.760471 5.42708 1.06255 6.21875 1.87505C7.73958 3.45839 9.34375 4.61464 11.0312 5.3438C12.7396 6.05214 14.4583 6.50005 16.1875 6.68755C17.9375 6.87505 19.6354 6.9688 21.2812 6.9688C22.8438 6.9688 24.5104 6.86464 26.2812 6.6563C28.0729 6.42714 29.8854 6.20839 31.7188 6.00005C33.5729 5.77089 35.3542 5.6563 37.0625 5.6563C42.2917 5.6563 46.875 6.5313 50.8125 8.2813C54.75 10.0313 57.8229 12.6355 60.0312 16.0938C62.2396 19.5521 63.3438 23.8438 63.3438 28.9688C63.3438 29.698 63.3229 30.4063 63.2812 31.0938C63.2396 31.7605 63.1771 32.3126 63.0938 32.7501C62.9688 33.4584 62.5729 33.9167 61.9062 34.1251C61.2396 34.3334 60.5729 34.1459 59.9062 33.5626C57.6771 31.5001 55.4167 29.9792 53.125 29.0001C50.8542 28.0001 48.5833 27.3021 46.3125 26.9063C44.0625 26.5105 41.8229 26.2396 39.5938 26.0938C37.3854 25.9271 35.2188 25.6771 33.0938 25.3438C30.9688 25.0105 28.9062 24.3959 26.9062 23.5001C24.9062 22.6042 23.0104 21.2084 21.2188 19.3126C20.8021 18.8959 20.4062 18.8126 20.0312 19.0626C19.6562 19.2917 19.5625 19.6459 19.75 20.1251C20.6042 22.4584 21.8646 24.2709 23.5312 25.5626C25.2188 26.8334 27.1875 27.8021 29.4375 28.4688C31.6875 29.1355 34.1146 29.6771 36.7188 30.0938C39.3229 30.5105 41.9896 31.0209 44.7188 31.6251C47.4688 32.2292 50.1771 33.1251 52.8438 34.3126C55.5104 35.4792 58.0208 37.1459 60.375 39.3126C61.1875 40.1042 62.1458 41.1251 63.25 42.3751C64.3542 43.6251 65.4271 44.9792 66.4688 46.4376C67.5312 47.8959 68.3958 49.3334 69.0625 50.7501C69.75 52.1667 70.0938 53.4271 70.0938 54.5313C70.0938 55.9896 69.6458 57.2084 68.75 58.1876C67.875 59.1667 66.8021 59.6563 65.5312 59.6563C64.9062 59.6563 64.3229 59.4792 63.7812 59.1251C63.2604 58.7709 62.875 58.198 62.625 57.4063C61.9167 55.1771 61.2083 53.1563 60.5 51.3438C59.8125 49.5105 58.9792 47.8021 58 46.2188C57.0417 44.6146 55.8125 43.0209 54.3125 41.4376L59.5 41.7813C59.1667 42.3021 58.6354 43.0209 57.9062 43.9376C57.1771 44.8542 56.2188 45.8334 55.0312 46.8751C53.8438 47.9167 52.3958 48.9063 50.6875 49.8438C48.9792 50.7605 46.9896 51.5209 44.7188 52.1251C42.4479 52.7292 39.8646 53.0313 36.9688 53.0313C31.5104 53.0313 26.5625 52.0938 22.125 50.2188C17.7083 48.323 13.9062 45.6355 10.7188 42.1563C7.55208 38.6771 5.11458 34.5105 3.40625 29.6563C1.71875 24.8021 0.875 19.3855 0.875 13.4063C0.875 11.9688 0.947917 10.2917 1.09375 8.37505C1.23958 6.45839 1.47917 4.69797 1.8125 3.0938Z" fill="#089E67"/>
                                  </svg>