<svg width="1436" height="474" viewBox="0 0 1436 474" fill="none" xmlns="http://www.w3.org/2000/svg">
<path d="M0 0H1440V474H0V0Z" fill="#15270C"/>
<g clip-path="url(#clip0_52_2555)">
<g clip-path="url(#clip1_52_2555)">
<path d="M0 464.586V501.5H702.536L786.952 464.586H0Z" fill="#225029"/>
<path d="M1380.33 317H1243.72C1235.37 320.653 404.018 682.973 397.175 685.965H533.784L1380.33 317Z" fill="#225029"/>
<path d="M906.216 685.965H1040.04L1440 512.285V453.766L906.216 685.965Z" fill="#225029"/>
<path d="M653.128 685.965H786.952L1440 401.613V343.094L653.128 685.965Z" fill="#225029"/>
<path d="M0 390.793V427.672H871.288L955.704 390.793H0Z" fill="#225029"/>
<path d="M0 317V353.914H1040.04L1124.46 317H0Z" fill="#225029"/>
</g>
</g>
<path d="M750.144 239.288C748.496 239.288 747.072 238.928 745.872 238.208C744.672 237.472 743.744 236.456 743.088 235.16C742.448 233.848 742.128 232.328 742.128 230.6C742.128 228.872 742.448 227.36 743.088 226.064C743.744 224.752 744.672 223.736 745.872 223.016C747.072 222.28 748.496 221.912 750.144 221.912C752.08 221.912 753.648 222.368 754.848 223.28C756.048 224.192 756.816 225.48 757.152 227.144H754.92C754.664 226.104 754.144 225.272 753.36 224.648C752.576 224.008 751.504 223.688 750.144 223.688C748.944 223.688 747.896 223.968 747 224.528C746.104 225.072 745.408 225.864 744.912 226.904C744.432 227.928 744.192 229.16 744.192 230.6C744.192 232.04 744.432 233.28 744.912 234.32C745.408 235.344 746.104 236.136 747 236.696C747.896 237.24 748.944 237.512 750.144 237.512C751.504 237.512 752.576 237.208 753.36 236.6C754.144 235.976 754.664 235.152 754.92 234.128H757.152C756.816 235.744 756.048 237.008 754.848 237.92C753.648 238.832 752.08 239.288 750.144 239.288ZM765.353 239.288C764.233 239.288 763.225 239.032 762.329 238.52C761.433 238.008 760.721 237.288 760.193 236.36C759.681 235.416 759.425 234.312 759.425 233.048C759.425 231.784 759.689 230.688 760.217 229.76C760.745 228.816 761.457 228.088 762.353 227.576C763.265 227.064 764.281 226.808 765.401 226.808C766.521 226.808 767.529 227.064 768.425 227.576C769.321 228.088 770.025 228.816 770.537 229.76C771.065 230.688 771.329 231.784 771.329 233.048C771.329 234.312 771.065 235.416 770.537 236.36C770.009 237.288 769.289 238.008 768.377 238.52C767.481 239.032 766.473 239.288 765.353 239.288ZM765.353 237.56C766.041 237.56 766.681 237.392 767.273 237.056C767.865 236.72 768.345 236.216 768.713 235.544C769.081 234.872 769.265 234.04 769.265 233.048C769.265 232.04 769.081 231.208 768.713 230.552C768.361 229.88 767.889 229.376 767.297 229.04C766.705 228.704 766.073 228.536 765.401 228.536C764.729 228.536 764.089 228.704 763.481 229.04C762.889 229.376 762.409 229.88 762.041 230.552C761.673 231.208 761.489 232.04 761.489 233.048C761.489 234.04 761.673 234.872 762.041 235.544C762.409 236.216 762.881 236.72 763.457 237.056C764.049 237.392 764.681 237.56 765.353 237.56ZM774.133 244.28V227.096H775.957L776.149 229.064C776.405 228.68 776.733 228.32 777.133 227.984C777.533 227.632 778.013 227.352 778.573 227.144C779.133 226.92 779.781 226.808 780.517 226.808C781.701 226.808 782.733 227.08 783.613 227.624C784.493 228.168 785.173 228.912 785.653 229.856C786.149 230.8 786.397 231.872 786.397 233.072C786.397 234.272 786.149 235.344 785.653 236.288C785.173 237.216 784.485 237.952 783.589 238.496C782.709 239.024 781.677 239.288 780.493 239.288C779.517 239.288 778.653 239.088 777.901 238.688C777.149 238.288 776.565 237.728 776.149 237.008V244.28H774.133ZM780.277 237.536C781.077 237.536 781.781 237.352 782.389 236.984C783.013 236.6 783.493 236.072 783.829 235.4C784.181 234.728 784.357 233.944 784.357 233.048C784.357 232.152 784.181 231.368 783.829 230.696C783.493 230.024 783.013 229.504 782.389 229.136C781.781 228.752 781.077 228.56 780.277 228.56C779.477 228.56 778.765 228.752 778.141 229.136C777.533 229.504 777.053 230.024 776.701 230.696C776.365 231.368 776.197 232.152 776.197 233.048C776.197 233.944 776.365 234.728 776.701 235.4C777.053 236.072 777.533 236.6 778.141 236.984C778.765 237.352 779.477 237.536 780.277 237.536ZM789.538 244.28L792.514 237.656H791.818L787.066 227.096H789.25L793.21 236.168L797.362 227.096H799.45L791.65 244.28H789.538ZM801.578 239V227.096H803.402L803.57 229.4C803.826 228.856 804.162 228.392 804.578 228.008C804.994 227.624 805.49 227.328 806.066 227.12C806.642 226.912 807.298 226.808 808.034 226.808V228.92H807.482C806.954 228.92 806.45 228.992 805.97 229.136C805.506 229.264 805.09 229.48 804.722 229.784C804.37 230.088 804.09 230.504 803.882 231.032C803.69 231.56 803.594 232.216 803.594 233V239H801.578ZM810.513 239V227.096H812.529V239H810.513ZM811.521 224.456C811.121 224.456 810.785 224.328 810.513 224.072C810.257 223.8 810.129 223.464 810.129 223.064C810.129 222.664 810.257 222.344 810.513 222.104C810.785 221.848 811.121 221.72 811.521 221.72C811.905 221.72 812.233 221.848 812.505 222.104C812.777 222.344 812.913 222.664 812.913 223.064C812.913 223.464 812.777 223.8 812.505 224.072C812.233 224.328 811.905 224.456 811.521 224.456ZM820.767 244.568C819.695 244.568 818.743 244.424 817.911 244.136C817.079 243.864 816.431 243.44 815.967 242.864C815.503 242.288 815.271 241.576 815.271 240.728C815.271 240.376 815.343 239.992 815.487 239.576C815.647 239.176 815.911 238.776 816.279 238.376C816.663 237.976 817.199 237.616 817.887 237.296L819.231 238.112C818.415 238.464 817.879 238.864 817.623 239.312C817.367 239.76 817.239 240.168 817.239 240.536C817.239 241.064 817.391 241.504 817.695 241.856C817.999 242.208 818.415 242.472 818.943 242.648C819.487 242.824 820.095 242.912 820.767 242.912C821.439 242.912 822.015 242.808 822.495 242.6C822.991 242.408 823.375 242.136 823.647 241.784C823.919 241.432 824.055 241.016 824.055 240.536C824.055 240.024 823.847 239.576 823.431 239.192C823.031 238.824 822.263 238.608 821.127 238.544C820.183 238.48 819.391 238.392 818.751 238.28C818.127 238.168 817.607 238.04 817.191 237.896C816.775 237.736 816.423 237.56 816.135 237.368C815.863 237.176 815.615 236.976 815.391 236.768V236.216L817.719 233.888L819.423 234.512L817.071 236.696L817.383 235.88C817.559 236.008 817.727 236.128 817.887 236.24C818.047 236.336 818.263 236.424 818.535 236.504C818.807 236.584 819.183 236.656 819.663 236.72C820.143 236.784 820.783 236.848 821.583 236.912C822.655 236.992 823.519 237.184 824.175 237.488C824.831 237.792 825.303 238.2 825.591 238.712C825.895 239.208 826.047 239.792 826.047 240.464C826.047 241.152 825.855 241.808 825.471 242.432C825.103 243.056 824.527 243.568 823.743 243.968C822.975 244.368 821.983 244.568 820.767 244.568ZM820.743 235.256C819.735 235.256 818.879 235.072 818.175 234.704C817.471 234.32 816.935 233.808 816.567 233.168C816.199 232.528 816.015 231.816 816.015 231.032C816.015 230.248 816.199 229.544 816.567 228.92C816.935 228.28 817.471 227.768 818.175 227.384C818.879 227 819.735 226.808 820.743 226.808C821.751 226.808 822.607 227 823.311 227.384C824.015 227.768 824.551 228.28 824.919 228.92C825.287 229.544 825.471 230.248 825.471 231.032C825.471 231.816 825.287 232.528 824.919 233.168C824.551 233.808 824.015 234.32 823.311 234.704C822.607 235.072 821.751 235.256 820.743 235.256ZM820.743 233.6C821.591 233.6 822.263 233.384 822.759 232.952C823.271 232.504 823.527 231.864 823.527 231.032C823.527 230.216 823.271 229.592 822.759 229.16C822.263 228.712 821.591 228.488 820.743 228.488C819.895 228.488 819.215 228.712 818.703 229.16C818.191 229.592 817.935 230.216 817.935 231.032C817.935 231.864 818.191 232.504 818.703 232.952C819.215 233.384 819.895 233.6 820.743 233.6ZM822.663 228.8L822.063 227.096H827.007V228.608L822.663 228.8ZM829.281 239V221.72H831.297V229.136C831.697 228.4 832.257 227.832 832.977 227.432C833.713 227.016 834.521 226.808 835.401 226.808C836.313 226.808 837.113 227 837.801 227.384C838.489 227.752 839.017 228.328 839.385 229.112C839.769 229.88 839.961 230.856 839.961 232.04V239H837.969V232.256C837.969 231.024 837.713 230.096 837.201 229.472C836.705 228.848 835.961 228.536 834.969 228.536C834.281 228.536 833.657 228.704 833.097 229.04C832.537 229.376 832.097 229.864 831.777 230.504C831.457 231.128 831.297 231.904 831.297 232.832V239H829.281ZM847.719 239C846.999 239 846.375 238.888 845.847 238.664C845.319 238.44 844.911 238.064 844.623 237.536C844.351 236.992 844.215 236.264 844.215 235.352V228.8H842.151V227.096H844.215L844.479 224.24H846.231V227.096H849.735V228.8H846.231V235.352C846.231 236.104 846.383 236.616 846.687 236.888C846.991 237.144 847.527 237.272 848.295 237.272H849.543V239H847.719ZM866.52 239.096C864.872 239.096 863.424 238.736 862.176 238.016C860.928 237.28 859.952 236.272 859.248 234.992C858.56 233.712 858.216 232.248 858.216 230.6C858.216 228.936 858.56 227.464 859.248 226.184C859.952 224.904 860.928 223.904 862.176 223.184C863.424 222.464 864.872 222.104 866.52 222.104C868.168 222.104 869.608 222.464 870.84 223.184C872.088 223.904 873.064 224.904 873.768 226.184C874.472 227.464 874.824 228.936 874.824 230.6C874.824 232.248 874.472 233.712 873.768 234.992C873.064 236.272 872.088 237.28 870.84 238.016C869.608 238.736 868.168 239.096 866.52 239.096ZM866.52 236.144C865.576 236.144 864.704 235.928 863.904 235.496C863.12 235.048 862.488 234.408 862.008 233.576C861.544 232.744 861.312 231.744 861.312 230.576C861.312 229.408 861.544 228.408 862.008 227.576C862.488 226.744 863.12 226.112 863.904 225.68C864.704 225.232 865.576 225.008 866.52 225.008C867.704 225.008 868.744 225.328 869.64 225.968C870.536 226.592 871.136 227.496 871.44 228.68H869.592C869.368 227.96 868.976 227.416 868.416 227.048C867.856 226.664 867.216 226.472 866.496 226.472C865.872 226.472 865.304 226.632 864.792 226.952C864.28 227.256 863.864 227.712 863.544 228.32C863.24 228.928 863.088 229.688 863.088 230.6C863.088 231.496 863.24 232.256 863.544 232.88C863.864 233.488 864.28 233.944 864.792 234.248C865.304 234.552 865.872 234.704 866.496 234.704C867.248 234.704 867.888 234.52 868.416 234.152C868.96 233.768 869.352 233.224 869.592 232.52H871.44C871.136 233.64 870.536 234.528 869.64 235.184C868.744 235.824 867.704 236.144 866.52 236.144ZM866.52 238.208C868.04 238.208 869.344 237.888 870.432 237.248C871.536 236.592 872.384 235.696 872.976 234.56C873.584 233.408 873.888 232.088 873.888 230.6C873.888 229.08 873.584 227.752 872.976 226.616C872.384 225.464 871.536 224.568 870.432 223.928C869.344 223.288 868.04 222.968 866.52 222.968C865.016 222.968 863.712 223.288 862.608 223.928C861.504 224.568 860.648 225.464 860.04 226.616C859.448 227.752 859.152 229.08 859.152 230.6C859.152 232.088 859.448 233.408 860.04 234.56C860.648 235.696 861.504 236.592 862.608 237.248C863.712 237.888 865.016 238.208 866.52 238.208ZM883.91 239V237.584C885.046 236.688 886.118 235.784 887.126 234.872C888.15 233.96 889.054 233.056 889.838 232.16C890.638 231.248 891.262 230.36 891.71 229.496C892.174 228.632 892.406 227.8 892.406 227C892.406 226.408 892.302 225.864 892.094 225.368C891.902 224.856 891.582 224.44 891.134 224.12C890.686 223.8 890.078 223.64 889.31 223.64C888.574 223.64 887.958 223.808 887.462 224.144C886.966 224.464 886.59 224.896 886.334 225.44C886.094 225.968 885.974 226.552 885.974 227.192H884.03C884.046 226.088 884.278 225.144 884.726 224.36C885.19 223.56 885.822 222.952 886.622 222.536C887.422 222.12 888.326 221.912 889.334 221.912C890.326 221.912 891.206 222.104 891.974 222.488C892.742 222.856 893.342 223.408 893.774 224.144C894.206 224.88 894.422 225.808 894.422 226.928C894.422 227.712 894.262 228.496 893.942 229.28C893.622 230.064 893.19 230.832 892.646 231.584C892.102 232.32 891.502 233.032 890.846 233.72C890.19 234.408 889.518 235.056 888.83 235.664C888.142 236.272 887.494 236.824 886.886 237.32H894.998V239H883.91ZM904.226 239.288C902.738 239.288 901.45 238.928 900.362 238.208C899.29 237.472 898.466 236.456 897.89 235.16C897.314 233.848 897.026 232.328 897.026 230.6C897.026 228.872 897.314 227.36 897.89 226.064C898.466 224.752 899.29 223.736 900.362 223.016C901.45 222.28 902.738 221.912 904.226 221.912C905.73 221.912 907.01 222.28 908.066 223.016C909.138 223.736 909.962 224.752 910.538 226.064C911.114 227.36 911.402 228.872 911.402 230.6C911.402 232.328 911.114 233.848 910.538 235.16C909.962 236.456 909.138 237.472 908.066 238.208C907.01 238.928 905.73 239.288 904.226 239.288ZM904.226 237.512C905.218 237.512 906.098 237.24 906.866 236.696C907.634 236.136 908.234 235.344 908.666 234.32C909.114 233.28 909.338 232.04 909.338 230.6C909.338 229.16 909.114 227.928 908.666 226.904C908.234 225.864 907.634 225.072 906.866 224.528C906.098 223.984 905.218 223.712 904.226 223.712C903.234 223.712 902.346 223.984 901.562 224.528C900.794 225.072 900.186 225.864 899.738 226.904C899.306 227.928 899.09 229.16 899.09 230.6C899.09 232.04 899.306 233.28 899.738 234.32C900.186 235.344 900.794 236.136 901.562 236.696C902.346 237.24 903.234 237.512 904.226 237.512ZM913.817 239V237.584C914.953 236.688 916.025 235.784 917.033 234.872C918.057 233.96 918.961 233.056 919.745 232.16C920.545 231.248 921.169 230.36 921.617 229.496C922.081 228.632 922.313 227.8 922.313 227C922.313 226.408 922.209 225.864 922.001 225.368C921.809 224.856 921.489 224.44 921.041 224.12C920.593 223.8 919.985 223.64 919.217 223.64C918.481 223.64 917.865 223.808 917.369 224.144C916.873 224.464 916.497 224.896 916.241 225.44C916.001 225.968 915.881 226.552 915.881 227.192H913.937C913.953 226.088 914.185 225.144 914.633 224.36C915.097 223.56 915.729 222.952 916.529 222.536C917.329 222.12 918.233 221.912 919.241 221.912C920.233 221.912 921.113 222.104 921.881 222.488C922.649 222.856 923.249 223.408 923.681 224.144C924.113 224.88 924.329 225.808 924.329 226.928C924.329 227.712 924.169 228.496 923.849 229.28C923.529 230.064 923.097 230.832 922.553 231.584C922.009 232.32 921.409 233.032 920.753 233.72C920.097 234.408 919.425 235.056 918.737 235.664C918.049 236.272 917.401 236.824 916.793 237.32H924.905V239H913.817ZM935.025 239V235.4H926.505V233.84L934.665 222.2H937.017V233.624H939.513V235.4H937.017V239H935.025ZM928.737 233.624H935.121V224.432L928.737 233.624ZM948.299 239V222.2H953.459C955.427 222.2 957.051 222.544 958.331 223.232C959.611 223.904 960.555 224.872 961.163 226.136C961.787 227.384 962.099 228.888 962.099 230.648C962.099 232.376 961.787 233.864 961.163 235.112C960.555 236.36 959.611 237.32 958.331 237.992C957.051 238.664 955.427 239 953.459 239H948.299ZM950.315 237.32H953.411C955.043 237.32 956.339 237.056 957.299 236.528C958.275 235.984 958.971 235.216 959.387 234.224C959.803 233.216 960.011 232.024 960.011 230.648C960.011 229.24 959.803 228.032 959.387 227.024C958.971 226.016 958.275 225.24 957.299 224.696C956.339 224.152 955.043 223.88 953.411 223.88H950.315V237.32ZM970.314 239.288C969.194 239.288 968.186 239.032 967.29 238.52C966.394 238.008 965.682 237.288 965.154 236.36C964.642 235.416 964.386 234.312 964.386 233.048C964.386 231.784 964.65 230.688 965.178 229.76C965.706 228.816 966.418 228.088 967.314 227.576C968.226 227.064 969.242 226.808 970.362 226.808C971.482 226.808 972.49 227.064 973.386 227.576C974.282 228.088 974.986 228.816 975.498 229.76C976.026 230.688 976.29 231.784 976.29 233.048C976.29 234.312 976.026 235.416 975.498 236.36C974.97 237.288 974.25 238.008 973.338 238.52C972.442 239.032 971.434 239.288 970.314 239.288ZM970.314 237.56C971.002 237.56 971.642 237.392 972.234 237.056C972.826 236.72 973.306 236.216 973.674 235.544C974.042 234.872 974.226 234.04 974.226 233.048C974.226 232.04 974.042 231.208 973.674 230.552C973.322 229.88 972.85 229.376 972.258 229.04C971.666 228.704 971.034 228.536 970.362 228.536C969.69 228.536 969.05 228.704 968.442 229.04C967.85 229.376 967.37 229.88 967.002 230.552C966.634 231.208 966.45 232.04 966.45 233.048C966.45 234.04 966.634 234.872 967.002 235.544C967.37 236.216 967.842 236.72 968.418 237.056C969.01 237.392 969.642 237.56 970.314 237.56ZM983.438 239.288C982.51 239.288 981.694 239.104 980.99 238.736C980.302 238.352 979.766 237.776 979.382 237.008C979.014 236.224 978.83 235.24 978.83 234.056V227.096H980.846V233.84C980.846 235.072 981.102 236 981.614 236.624C982.142 237.248 982.902 237.56 983.894 237.56C984.582 237.56 985.198 237.392 985.742 237.056C986.286 236.72 986.71 236.232 987.014 235.592C987.334 234.952 987.494 234.176 987.494 233.264V227.096H989.51V239H987.686L987.566 236.864C987.182 237.616 986.622 238.208 985.886 238.64C985.166 239.072 984.35 239.288 983.438 239.288ZM999.188 239.288C998.532 239.288 997.924 239.192 997.364 239C996.82 238.824 996.332 238.568 995.9 238.232C995.468 237.896 995.116 237.488 994.844 237.008L994.652 239H992.828V221.72H994.844V229.064C995.228 228.488 995.772 227.968 996.476 227.504C997.196 227.04 998.108 226.808 999.212 226.808C1000.4 226.808 1001.43 227.08 1002.31 227.624C1003.19 228.168 1003.87 228.912 1004.35 229.856C1004.84 230.8 1005.09 231.872 1005.09 233.072C1005.09 234.272 1004.84 235.344 1004.35 236.288C1003.87 237.216 1003.18 237.952 1002.28 238.496C1001.4 239.024 1000.37 239.288 999.188 239.288ZM998.972 237.536C999.772 237.536 1000.48 237.352 1001.08 236.984C1001.71 236.6 1002.19 236.072 1002.52 235.4C1002.88 234.728 1003.05 233.944 1003.05 233.048C1003.05 232.152 1002.88 231.368 1002.52 230.696C1002.19 230.024 1001.71 229.504 1001.08 229.136C1000.48 228.752 999.772 228.56 998.972 228.56C998.172 228.56 997.46 228.752 996.836 229.136C996.228 229.504 995.748 230.024 995.396 230.696C995.06 231.368 994.892 232.152 994.892 233.048C994.892 233.944 995.06 234.728 995.396 235.4C995.748 236.072 996.228 236.6 996.836 236.984C997.46 237.352 998.172 237.536 998.972 237.536ZM1007.9 239V221.72H1009.91V239H1007.9ZM1018.57 239.288C1017.43 239.288 1016.43 239.032 1015.55 238.52C1014.67 237.992 1013.97 237.264 1013.46 236.336C1012.96 235.392 1012.71 234.296 1012.71 233.048C1012.71 231.784 1012.96 230.688 1013.46 229.76C1013.95 228.832 1014.64 228.112 1015.52 227.6C1016.42 227.072 1017.45 226.808 1018.62 226.808C1019.79 226.808 1020.79 227.072 1021.62 227.6C1022.45 228.112 1023.09 228.792 1023.54 229.64C1023.99 230.472 1024.21 231.384 1024.21 232.376C1024.21 232.536 1024.21 232.712 1024.21 232.904C1024.21 233.08 1024.2 233.28 1024.19 233.504H1014.23V231.944H1022.22C1022.17 230.872 1021.8 230.032 1021.11 229.424C1020.44 228.816 1019.59 228.512 1018.57 228.512C1017.88 228.512 1017.24 228.664 1016.65 228.968C1016.06 229.272 1015.58 229.72 1015.21 230.312C1014.86 230.888 1014.68 231.616 1014.68 232.496V233.168C1014.68 234.144 1014.87 234.96 1015.23 235.616C1015.6 236.272 1016.08 236.768 1016.67 237.104C1017.27 237.424 1017.9 237.584 1018.57 237.584C1019.4 237.584 1020.1 237.392 1020.66 237.008C1021.22 236.624 1021.63 236.104 1021.88 235.448H1023.87C1023.67 236.184 1023.32 236.84 1022.84 237.416C1022.36 237.992 1021.76 238.448 1021.04 238.784C1020.34 239.12 1019.51 239.288 1018.57 239.288ZM1034.37 239.288C1032.72 239.288 1031.3 238.928 1030.1 238.208C1028.9 237.472 1027.97 236.456 1027.31 235.16C1026.67 233.848 1026.35 232.328 1026.35 230.6C1026.35 228.872 1026.67 227.36 1027.31 226.064C1027.97 224.752 1028.9 223.736 1030.1 223.016C1031.3 222.28 1032.72 221.912 1034.37 221.912C1036.31 221.912 1037.87 222.368 1039.07 223.28C1040.27 224.192 1041.04 225.48 1041.38 227.144H1039.15C1038.89 226.104 1038.37 225.272 1037.59 224.648C1036.8 224.008 1035.73 223.688 1034.37 223.688C1033.17 223.688 1032.12 223.968 1031.23 224.528C1030.33 225.072 1029.63 225.864 1029.14 226.904C1028.66 227.928 1028.42 229.16 1028.42 230.6C1028.42 232.04 1028.66 233.28 1029.14 234.32C1029.63 235.344 1030.33 236.136 1031.23 236.696C1032.12 237.24 1033.17 237.512 1034.37 237.512C1035.73 237.512 1036.8 237.208 1037.59 236.6C1038.37 235.976 1038.89 235.152 1039.15 234.128H1041.38C1041.04 235.744 1040.27 237.008 1039.07 237.92C1037.87 238.832 1036.31 239.288 1034.37 239.288ZM1049.58 239.288C1048.46 239.288 1047.45 239.032 1046.56 238.52C1045.66 238.008 1044.95 237.288 1044.42 236.36C1043.91 235.416 1043.65 234.312 1043.65 233.048C1043.65 231.784 1043.92 230.688 1044.44 229.76C1044.97 228.816 1045.68 228.088 1046.58 227.576C1047.49 227.064 1048.51 226.808 1049.63 226.808C1050.75 226.808 1051.76 227.064 1052.65 227.576C1053.55 228.088 1054.25 228.816 1054.76 229.76C1055.29 230.688 1055.56 231.784 1055.56 233.048C1055.56 234.312 1055.29 235.416 1054.76 236.36C1054.24 237.288 1053.52 238.008 1052.6 238.52C1051.71 239.032 1050.7 239.288 1049.58 239.288ZM1049.58 237.56C1050.27 237.56 1050.91 237.392 1051.5 237.056C1052.09 236.72 1052.57 236.216 1052.94 235.544C1053.31 234.872 1053.49 234.04 1053.49 233.048C1053.49 232.04 1053.31 231.208 1052.94 230.552C1052.59 229.88 1052.12 229.376 1051.52 229.04C1050.93 228.704 1050.3 228.536 1049.63 228.536C1048.96 228.536 1048.32 228.704 1047.71 229.04C1047.12 229.376 1046.64 229.88 1046.27 230.552C1045.9 231.208 1045.72 232.04 1045.72 233.048C1045.72 234.04 1045.9 234.872 1046.27 235.544C1046.64 236.216 1047.11 236.72 1047.68 237.056C1048.28 237.392 1048.91 237.56 1049.58 237.56ZM1063.76 239.288C1062.58 239.288 1061.54 239.016 1060.64 238.472C1059.76 237.928 1059.07 237.184 1058.58 236.24C1058.1 235.296 1057.86 234.224 1057.86 233.024C1057.86 231.824 1058.1 230.76 1058.58 229.832C1059.07 228.888 1059.77 228.152 1060.66 227.624C1061.56 227.08 1062.6 226.808 1063.78 226.808C1064.76 226.808 1065.62 227.008 1066.38 227.408C1067.14 227.808 1067.73 228.368 1068.13 229.088V221.72H1070.14V239H1068.32L1068.13 237.032C1067.87 237.416 1067.54 237.784 1067.14 238.136C1066.74 238.472 1066.26 238.752 1065.7 238.976C1065.14 239.184 1064.5 239.288 1063.76 239.288ZM1063.98 237.536C1064.78 237.536 1065.48 237.352 1066.09 236.984C1066.71 236.6 1067.19 236.072 1067.53 235.4C1067.88 234.728 1068.06 233.944 1068.06 233.048C1068.06 232.152 1067.88 231.368 1067.53 230.696C1067.19 230.024 1066.71 229.504 1066.09 229.136C1065.48 228.752 1064.78 228.56 1063.98 228.56C1063.19 228.56 1062.49 228.752 1061.86 229.136C1061.26 229.504 1060.78 230.024 1060.42 230.696C1060.09 231.368 1059.92 232.152 1059.92 233.048C1059.92 233.944 1060.09 234.728 1060.42 235.4C1060.78 236.072 1061.26 236.6 1061.86 236.984C1062.49 237.352 1063.19 237.536 1063.98 237.536ZM1078.8 239.288C1077.67 239.288 1076.66 239.032 1075.78 238.52C1074.9 237.992 1074.2 237.264 1073.69 236.336C1073.2 235.392 1072.95 234.296 1072.95 233.048C1072.95 231.784 1073.2 230.688 1073.69 229.76C1074.19 228.832 1074.88 228.112 1075.76 227.6C1076.65 227.072 1077.68 226.808 1078.85 226.808C1080.02 226.808 1081.02 227.072 1081.85 227.6C1082.68 228.112 1083.32 228.792 1083.77 229.64C1084.22 230.472 1084.44 231.384 1084.44 232.376C1084.44 232.536 1084.44 232.712 1084.44 232.904C1084.44 233.08 1084.44 233.28 1084.42 233.504H1074.46V231.944H1082.45C1082.4 230.872 1082.04 230.032 1081.35 229.424C1080.68 228.816 1079.83 228.512 1078.8 228.512C1078.12 228.512 1077.48 228.664 1076.88 228.968C1076.29 229.272 1075.81 229.72 1075.44 230.312C1075.09 230.888 1074.92 231.616 1074.92 232.496V233.168C1074.92 234.144 1075.1 234.96 1075.47 235.616C1075.84 236.272 1076.32 236.768 1076.91 237.104C1077.5 237.424 1078.13 237.584 1078.8 237.584C1079.64 237.584 1080.33 237.392 1080.89 237.008C1081.45 236.624 1081.86 236.104 1082.12 235.448H1084.11C1083.9 236.184 1083.56 236.84 1083.08 237.416C1082.6 237.992 1082 238.448 1081.28 238.784C1080.57 239.12 1079.75 239.288 1078.8 239.288ZM1087.81 239.12C1087.41 239.12 1087.08 238.992 1086.8 238.736C1086.55 238.464 1086.42 238.136 1086.42 237.752C1086.42 237.368 1086.55 237.048 1086.8 236.792C1087.08 236.52 1087.41 236.384 1087.81 236.384C1088.21 236.384 1088.54 236.52 1088.8 236.792C1089.05 237.048 1089.18 237.368 1089.18 237.752C1089.18 238.136 1089.05 238.464 1088.8 238.736C1088.54 238.992 1088.21 239.12 1087.81 239.12Z" fill="#FDF8E7"/>
<path d="M741.72 274L747.912 257.2H750.048L756.216 274H754.08L748.968 259.72L743.832 274H741.72ZM744.552 269.68L745.128 268.048H752.736L753.312 269.68H744.552ZM758.594 274V256.72H760.61V274H758.594ZM763.914 274V256.72H765.93V274H763.914ZM775.706 274V257.2H781.13C782.442 257.2 783.514 257.424 784.346 257.872C785.178 258.304 785.794 258.888 786.194 259.624C786.594 260.36 786.794 261.192 786.794 262.12C786.794 263.016 786.586 263.84 786.17 264.592C785.77 265.344 785.146 265.944 784.298 266.392C783.45 266.84 782.362 267.064 781.034 267.064H777.722V274H775.706ZM784.586 274L780.89 266.488H783.146L786.962 274H784.586ZM777.722 265.48H780.986C782.266 265.48 783.202 265.168 783.794 264.544C784.402 263.92 784.706 263.12 784.706 262.144C784.706 261.152 784.41 260.368 783.818 259.792C783.242 259.2 782.29 258.904 780.962 258.904H777.722V265.48ZM790.028 274V262.096H792.044V274H790.028ZM791.036 259.456C790.636 259.456 790.3 259.328 790.028 259.072C789.772 258.8 789.644 258.464 789.644 258.064C789.644 257.664 789.772 257.344 790.028 257.104C790.3 256.848 790.636 256.72 791.036 256.72C791.42 256.72 791.748 256.848 792.02 257.104C792.292 257.344 792.428 257.664 792.428 258.064C792.428 258.464 792.292 258.8 792.02 259.072C791.748 259.328 791.42 259.456 791.036 259.456ZM800.282 279.568C799.21 279.568 798.258 279.424 797.426 279.136C796.594 278.864 795.946 278.44 795.482 277.864C795.018 277.288 794.786 276.576 794.786 275.728C794.786 275.376 794.858 274.992 795.002 274.576C795.162 274.176 795.426 273.776 795.794 273.376C796.178 272.976 796.714 272.616 797.402 272.296L798.746 273.112C797.93 273.464 797.394 273.864 797.138 274.312C796.882 274.76 796.754 275.168 796.754 275.536C796.754 276.064 796.906 276.504 797.21 276.856C797.514 277.208 797.93 277.472 798.458 277.648C799.002 277.824 799.61 277.912 800.282 277.912C800.954 277.912 801.53 277.808 802.01 277.6C802.506 277.408 802.89 277.136 803.162 276.784C803.434 276.432 803.57 276.016 803.57 275.536C803.57 275.024 803.362 274.576 802.946 274.192C802.546 273.824 801.778 273.608 800.642 273.544C799.698 273.48 798.906 273.392 798.266 273.28C797.642 273.168 797.122 273.04 796.706 272.896C796.29 272.736 795.938 272.56 795.65 272.368C795.378 272.176 795.13 271.976 794.906 271.768V271.216L797.234 268.888L798.938 269.512L796.586 271.696L796.898 270.88C797.074 271.008 797.242 271.128 797.402 271.24C797.562 271.336 797.778 271.424 798.05 271.504C798.322 271.584 798.698 271.656 799.178 271.72C799.658 271.784 800.298 271.848 801.098 271.912C802.17 271.992 803.034 272.184 803.69 272.488C804.346 272.792 804.818 273.2 805.106 273.712C805.41 274.208 805.562 274.792 805.562 275.464C805.562 276.152 805.37 276.808 804.986 277.432C804.618 278.056 804.042 278.568 803.258 278.968C802.49 279.368 801.498 279.568 800.282 279.568ZM800.258 270.256C799.25 270.256 798.394 270.072 797.69 269.704C796.986 269.32 796.45 268.808 796.082 268.168C795.714 267.528 795.53 266.816 795.53 266.032C795.53 265.248 795.714 264.544 796.082 263.92C796.45 263.28 796.986 262.768 797.69 262.384C798.394 262 799.25 261.808 800.258 261.808C801.266 261.808 802.122 262 802.826 262.384C803.53 262.768 804.066 263.28 804.434 263.92C804.802 264.544 804.986 265.248 804.986 266.032C804.986 266.816 804.802 267.528 804.434 268.168C804.066 268.808 803.53 269.32 802.826 269.704C802.122 270.072 801.266 270.256 800.258 270.256ZM800.258 268.6C801.106 268.6 801.778 268.384 802.274 267.952C802.786 267.504 803.042 266.864 803.042 266.032C803.042 265.216 802.786 264.592 802.274 264.16C801.778 263.712 801.106 263.488 800.258 263.488C799.41 263.488 798.73 263.712 798.218 264.16C797.706 264.592 797.45 265.216 797.45 266.032C797.45 266.864 797.706 267.504 798.218 267.952C798.73 268.384 799.41 268.6 800.258 268.6ZM802.178 263.8L801.578 262.096H806.522V263.608L802.178 263.8ZM808.797 274V256.72H810.813V264.136C811.213 263.4 811.773 262.832 812.493 262.432C813.229 262.016 814.037 261.808 814.917 261.808C815.829 261.808 816.629 262 817.317 262.384C818.005 262.752 818.533 263.328 818.901 264.112C819.285 264.88 819.477 265.856 819.477 267.04V274H817.485V267.256C817.485 266.024 817.229 265.096 816.717 264.472C816.221 263.848 815.477 263.536 814.485 263.536C813.797 263.536 813.173 263.704 812.613 264.04C812.053 264.376 811.613 264.864 811.293 265.504C810.973 266.128 810.813 266.904 810.813 267.832V274H808.797ZM827.235 274C826.515 274 825.891 273.888 825.363 273.664C824.835 273.44 824.427 273.064 824.139 272.536C823.867 271.992 823.731 271.264 823.731 270.352V263.8H821.667V262.096H823.731L823.995 259.24H825.747V262.096H829.251V263.8H825.747V270.352C825.747 271.104 825.899 271.616 826.203 271.888C826.507 272.144 827.043 272.272 827.811 272.272H829.059V274H827.235ZM836.372 274.288C835.428 274.288 834.58 274.128 833.828 273.808C833.076 273.472 832.468 273.008 832.004 272.416C831.556 271.808 831.276 271.096 831.164 270.28H833.228C833.324 270.696 833.5 271.08 833.756 271.432C834.028 271.784 834.38 272.064 834.812 272.272C835.26 272.48 835.788 272.584 836.396 272.584C836.972 272.584 837.436 272.504 837.788 272.344C838.156 272.168 838.428 271.944 838.604 271.672C838.78 271.384 838.868 271.08 838.868 270.76C838.868 270.28 838.748 269.92 838.508 269.68C838.284 269.424 837.948 269.224 837.5 269.08C837.052 268.936 836.516 268.8 835.892 268.672C835.412 268.576 834.924 268.448 834.428 268.288C833.932 268.128 833.476 267.928 833.06 267.688C832.66 267.432 832.332 267.12 832.076 266.752C831.836 266.368 831.716 265.904 831.716 265.36C831.716 264.672 831.892 264.064 832.244 263.536C832.596 262.992 833.092 262.568 833.732 262.264C834.388 261.96 835.156 261.808 836.036 261.808C837.3 261.808 838.332 262.12 839.132 262.744C839.948 263.368 840.42 264.272 840.548 265.456H838.556C838.492 264.848 838.236 264.376 837.788 264.04C837.356 263.688 836.764 263.512 836.012 263.512C835.276 263.512 834.716 263.664 834.332 263.968C833.948 264.272 833.756 264.672 833.756 265.168C833.756 265.472 833.868 265.744 834.092 265.984C834.316 266.208 834.636 266.4 835.052 266.56C835.484 266.72 835.988 266.864 836.564 266.992C837.316 267.152 838.02 267.352 838.676 267.592C839.332 267.816 839.868 268.16 840.284 268.624C840.716 269.072 840.932 269.728 840.932 270.592C840.948 271.312 840.764 271.952 840.38 272.512C840.012 273.072 839.484 273.512 838.796 273.832C838.124 274.136 837.316 274.288 836.372 274.288ZM850.284 274V257.2H855.708C857.02 257.2 858.092 257.424 858.924 257.872C859.756 258.304 860.372 258.888 860.772 259.624C861.172 260.36 861.372 261.192 861.372 262.12C861.372 263.016 861.164 263.84 860.748 264.592C860.348 265.344 859.724 265.944 858.876 266.392C858.028 266.84 856.94 267.064 855.612 267.064H852.3V274H850.284ZM859.164 274L855.468 266.488H857.724L861.54 274H859.164ZM852.3 265.48H855.564C856.844 265.48 857.78 265.168 858.372 264.544C858.98 263.92 859.284 263.12 859.284 262.144C859.284 261.152 858.988 260.368 858.396 259.792C857.82 259.2 856.868 258.904 855.54 258.904H852.3V265.48ZM869.016 274.288C867.88 274.288 866.872 274.032 865.992 273.52C865.112 272.992 864.416 272.264 863.904 271.336C863.408 270.392 863.16 269.296 863.16 268.048C863.16 266.784 863.408 265.688 863.904 264.76C864.4 263.832 865.088 263.112 865.968 262.6C866.864 262.072 867.896 261.808 869.064 261.808C870.232 261.808 871.232 262.072 872.064 262.6C872.896 263.112 873.536 263.792 873.984 264.64C874.432 265.472 874.656 266.384 874.656 267.376C874.656 267.536 874.656 267.712 874.656 267.904C874.656 268.08 874.648 268.28 874.632 268.504H864.672V266.944H872.664C872.616 265.872 872.248 265.032 871.56 264.424C870.888 263.816 870.04 263.512 869.016 263.512C868.328 263.512 867.688 263.664 867.096 263.968C866.504 264.272 866.024 264.72 865.656 265.312C865.304 265.888 865.128 266.616 865.128 267.496V268.168C865.128 269.144 865.312 269.96 865.68 270.616C866.048 271.272 866.528 271.768 867.12 272.104C867.712 272.424 868.344 272.584 869.016 272.584C869.848 272.584 870.544 272.392 871.104 272.008C871.664 271.624 872.072 271.104 872.328 270.448H874.32C874.112 271.184 873.768 271.84 873.288 272.416C872.808 272.992 872.208 273.448 871.488 273.784C870.784 274.12 869.96 274.288 869.016 274.288ZM881.888 274.288C880.944 274.288 880.096 274.128 879.344 273.808C878.592 273.472 877.984 273.008 877.52 272.416C877.072 271.808 876.792 271.096 876.68 270.28H878.744C878.84 270.696 879.016 271.08 879.272 271.432C879.544 271.784 879.896 272.064 880.328 272.272C880.776 272.48 881.304 272.584 881.912 272.584C882.488 272.584 882.952 272.504 883.304 272.344C883.672 272.168 883.944 271.944 884.12 271.672C884.296 271.384 884.384 271.08 884.384 270.76C884.384 270.28 884.264 269.92 884.024 269.68C883.8 269.424 883.464 269.224 883.016 269.08C882.568 268.936 882.032 268.8 881.408 268.672C880.928 268.576 880.44 268.448 879.944 268.288C879.448 268.128 878.992 267.928 878.576 267.688C878.176 267.432 877.848 267.12 877.592 266.752C877.352 266.368 877.232 265.904 877.232 265.36C877.232 264.672 877.408 264.064 877.76 263.536C878.112 262.992 878.608 262.568 879.248 262.264C879.904 261.96 880.672 261.808 881.552 261.808C882.816 261.808 883.848 262.12 884.648 262.744C885.464 263.368 885.936 264.272 886.064 265.456H884.072C884.008 264.848 883.752 264.376 883.304 264.04C882.872 263.688 882.28 263.512 881.528 263.512C880.792 263.512 880.232 263.664 879.848 263.968C879.464 264.272 879.272 264.672 879.272 265.168C879.272 265.472 879.384 265.744 879.608 265.984C879.832 266.208 880.152 266.4 880.568 266.56C881 266.72 881.504 266.864 882.08 266.992C882.832 267.152 883.536 267.352 884.192 267.592C884.848 267.816 885.384 268.16 885.8 268.624C886.232 269.072 886.448 269.728 886.448 270.592C886.464 271.312 886.28 271.952 885.896 272.512C885.528 273.072 885 273.512 884.312 273.832C883.64 274.136 882.832 274.288 881.888 274.288ZM894.68 274.288C893.544 274.288 892.536 274.032 891.656 273.52C890.776 272.992 890.08 272.264 889.568 271.336C889.072 270.392 888.824 269.296 888.824 268.048C888.824 266.784 889.072 265.688 889.568 264.76C890.064 263.832 890.752 263.112 891.632 262.6C892.528 262.072 893.56 261.808 894.728 261.808C895.896 261.808 896.896 262.072 897.728 262.6C898.56 263.112 899.2 263.792 899.648 264.64C900.096 265.472 900.32 266.384 900.32 267.376C900.32 267.536 900.32 267.712 900.32 267.904C900.32 268.08 900.312 268.28 900.296 268.504H890.336V266.944H898.328C898.28 265.872 897.912 265.032 897.224 264.424C896.552 263.816 895.704 263.512 894.68 263.512C893.992 263.512 893.352 263.664 892.76 263.968C892.168 264.272 891.688 264.72 891.32 265.312C890.968 265.888 890.792 266.616 890.792 267.496V268.168C890.792 269.144 890.976 269.96 891.344 270.616C891.712 271.272 892.192 271.768 892.784 272.104C893.376 272.424 894.008 272.584 894.68 272.584C895.512 272.584 896.208 272.392 896.768 272.008C897.328 271.624 897.736 271.104 897.992 270.448H899.984C899.776 271.184 899.432 271.84 898.952 272.416C898.472 272.992 897.872 273.448 897.152 273.784C896.448 274.12 895.624 274.288 894.68 274.288ZM902.992 274V262.096H904.816L904.984 264.4C905.24 263.856 905.576 263.392 905.992 263.008C906.408 262.624 906.904 262.328 907.48 262.12C908.056 261.912 908.712 261.808 909.448 261.808V263.92H908.896C908.368 263.92 907.864 263.992 907.384 264.136C906.92 264.264 906.504 264.48 906.136 264.784C905.784 265.088 905.504 265.504 905.296 266.032C905.104 266.56 905.008 267.216 905.008 268V274H902.992ZM915.143 274L910.631 262.096H912.743L916.319 272.056L919.919 262.096H921.983L917.471 274H915.143ZM928.969 274.288C927.833 274.288 926.825 274.032 925.945 273.52C925.065 272.992 924.369 272.264 923.857 271.336C923.361 270.392 923.113 269.296 923.113 268.048C923.113 266.784 923.361 265.688 923.857 264.76C924.353 263.832 925.041 263.112 925.921 262.6C926.817 262.072 927.849 261.808 929.017 261.808C930.185 261.808 931.185 262.072 932.017 262.6C932.849 263.112 933.489 263.792 933.937 264.64C934.385 265.472 934.609 266.384 934.609 267.376C934.609 267.536 934.609 267.712 934.609 267.904C934.609 268.08 934.601 268.28 934.585 268.504H924.625V266.944H932.617C932.569 265.872 932.201 265.032 931.513 264.424C930.841 263.816 929.993 263.512 928.969 263.512C928.281 263.512 927.641 263.664 927.049 263.968C926.457 264.272 925.977 264.72 925.609 265.312C925.257 265.888 925.081 266.616 925.081 267.496V268.168C925.081 269.144 925.265 269.96 925.633 270.616C926.001 271.272 926.481 271.768 927.073 272.104C927.665 272.424 928.297 272.584 928.969 272.584C929.801 272.584 930.497 272.392 931.057 272.008C931.617 271.624 932.025 271.104 932.281 270.448H934.273C934.065 271.184 933.721 271.84 933.241 272.416C932.761 272.992 932.161 273.448 931.441 273.784C930.737 274.12 929.913 274.288 928.969 274.288ZM942.681 274.288C941.497 274.288 940.457 274.016 939.561 273.472C938.681 272.928 937.993 272.184 937.497 271.24C937.017 270.296 936.777 269.224 936.777 268.024C936.777 266.824 937.017 265.76 937.497 264.832C937.993 263.888 938.689 263.152 939.585 262.624C940.481 262.08 941.521 261.808 942.705 261.808C943.681 261.808 944.545 262.008 945.297 262.408C946.065 262.808 946.649 263.368 947.049 264.088V256.72H949.065V274H947.241L947.049 272.032C946.793 272.416 946.465 272.784 946.065 273.136C945.665 273.472 945.185 273.752 944.625 273.976C944.065 274.184 943.417 274.288 942.681 274.288ZM942.897 272.536C943.697 272.536 944.401 272.352 945.009 271.984C945.633 271.6 946.113 271.072 946.449 270.4C946.801 269.728 946.977 268.944 946.977 268.048C946.977 267.152 946.801 266.368 946.449 265.696C946.113 265.024 945.633 264.504 945.009 264.136C944.401 263.752 943.697 263.56 942.897 263.56C942.113 263.56 941.409 263.752 940.785 264.136C940.177 264.504 939.697 265.024 939.345 265.696C939.009 266.368 938.841 267.152 938.841 268.048C938.841 268.944 939.009 269.728 939.345 270.4C939.697 271.072 940.177 271.6 940.785 271.984C941.409 272.352 942.113 272.536 942.897 272.536Z" fill="#FDF8E7"/>
<g clip-path="url(#clip2_52_2555)">
<path d="M228.12 263.821H209.009V303H228.12V263.821Z" fill="#82954B"/>
<path d="M273.06 223.14L257.858 208.054C257.137 207.34 256.291 206.732 255.372 206.285L222.824 189.001C220.141 187.66 216.971 187.66 214.287 189.001L181.739 206.267C180.82 206.714 179.992 207.322 179.253 208.037L164.051 223.122C162.268 224.892 161.259 227.305 161.259 229.825V302.982H189.916V254.33C189.916 249.093 194.185 244.857 199.463 244.857H237.666C242.944 244.857 247.213 249.093 247.213 254.33V302.982H275.87V229.843C275.87 227.322 274.861 224.909 273.078 223.14H273.06Z" fill="#82954B"/>
<path d="M350.097 209.735C349.377 209.02 348.53 208.412 347.612 207.965L308.778 189.001C307.445 188.34 305.986 188 304.509 188H261.442L264.378 189.555C266.629 190.645 269.169 192.451 271.367 194.649L286.569 209.735C290.964 214.096 293.701 219.851 294.566 225.91H366.416L350.115 209.735H350.097Z" fill="#82954B"/>
<path d="M294.962 244.875V303H372V244.875H294.962Z" fill="#82954B"/>
<path d="M93.7499 188C66.2455 188 46 225.338 46 244.874C46 263.07 62.427 278.424 84.2035 282.034V303.018H103.314V282.034C125.091 278.441 141.518 263.088 141.518 244.874C141.518 225.356 121.272 188 93.7679 188H93.7499Z" fill="#82954B"/>
</g>
<defs>
<clipPath id="clip0_52_2555">
<rect width="1455" height="204" fill="white" transform="translate(0 270)"/>
</clipPath>
<clipPath id="clip1_52_2555">
<rect width="1440" height="369" fill="white" transform="translate(0 317)"/>
</clipPath>
<clipPath id="clip2_52_2555">
<rect width="326" height="115" fill="white" transform="translate(46 188)"/>
</clipPath>
</defs>
</svg>
