<svg width="69" height="98" viewBox="0 0 69 98" fill="none" xmlns="http://www.w3.org/2000/svg">
                                <path d="M34.5 98C27.7188 98 21.7812 96.6094 16.6875 93.8281C11.5938 91.0781 7.625 87.2188 4.78125 82.25C1.96875 77.2812 0.5625 71.4844 0.5625 64.8594C0.5625 61.7031 0.921875 58.5312 1.64062 55.3438C2.39062 52.1562 3.32812 49.0625 4.45312 46.0625C5.60938 43.0625 6.79688 40.2656 8.01562 37.6719C9.67188 34.0469 11.5938 30.375 13.7812 26.6562C16 22.9062 18.3125 19.1719 20.7188 15.4531C23.1562 11.7031 25.5469 8.03125 27.8906 4.4375C28.8281 3.03125 29.8438 1.98438 30.9375 1.29688C32.0625 0.578125 33.25 0.21875 34.5 0.21875C35.7812 0.21875 36.9688 0.578125 38.0625 1.29688C39.1562 1.98438 40.1719 3.03125 41.1094 4.4375C43.4219 7.96875 45.7656 11.5625 48.1406 15.2188C50.5156 18.875 52.7812 22.5469 54.9375 26.2344C57.125 29.8906 59.0312 33.5 60.6562 37.0625C61.9375 39.7188 63.1719 42.5938 64.3594 45.6875C65.5469 48.75 66.5156 51.9062 67.2656 55.1562C68.0156 58.4062 68.3906 61.6406 68.3906 64.8594C68.3906 71.4844 66.9844 77.2812 64.1719 82.25C61.3594 87.2188 57.4062 91.0781 52.3125 93.8281C47.2188 96.6094 41.2812 98 34.5 98Z" fill="#155042"/>
                                </svg>  