 <svg width="629" height="440" viewBox="0 0 629 440" fill="none" xmlns="http://www.w3.org/2000/svg">
                    <g filter="url(#filter0_d_39_2406)">
                    <rect x="4" width="621" height="431.493" rx="32" fill="#FFFDF5"/>
                    <rect x="4.5" y="0.5" width="620" height="430.493" rx="31.5" stroke="#3C3C43" stroke-opacity="0.36"/>
                    <line x1="169.509" y1="-2.24392e-08" x2="169.509" y2="373.587" stroke="#3C3C43" stroke-opacity="0.36"/>
                    <line x1="338.066" y1="-2.24392e-08" x2="338.066" y2="373.587" stroke="#3C3C43" stroke-opacity="0.36"/>
                    <line x1="506.623" y1="-2.24392e-08" x2="506.623" y2="373.587" stroke="#3C3C43" stroke-opacity="0.36"/>
                    <line x1="531.462" y1="-2.32684e-08" x2="531.462" y2="431.493" stroke="#3C3C43" stroke-opacity="0.36"/>
                    <path d="M4 48.5664L625 48.5665" stroke="#3C3C43" stroke-opacity="0.36"/>
                    <path d="M4 175.586L530.963 175.586" stroke="#3C3C43" stroke-opacity="0.36"/>
                    <path d="M4 311.945L530.963 311.945" stroke="#3C3C43" stroke-opacity="0.36"/>
                    <path d="M4 373.587L530.963 373.587" stroke="#3C3C43" stroke-opacity="0.36"/>
                    <path d="M50.956 388.8C50.956 391.188 49.54 393.132 47.26 393.132C44.968 393.132 43.576 391.188 43.576 388.8C43.576 386.4 44.968 384.468 47.26 384.468C49.54 384.468 50.956 386.4 50.956 388.8ZM49.468 388.8C49.468 387.096 48.628 385.728 47.26 385.728C45.892 385.728 45.064 387.096 45.064 388.8C45.064 390.504 45.892 391.86 47.26 391.86C48.628 391.86 49.468 390.504 49.468 388.8ZM59.7873 388.8C59.7873 391.188 58.3713 393.132 56.0913 393.132C53.7993 393.132 52.4073 391.188 52.4073 388.8C52.4073 386.4 53.7993 384.468 56.0913 384.468C58.3713 384.468 59.7873 386.4 59.7873 388.8ZM58.2993 388.8C58.2993 387.096 57.4593 385.728 56.0913 385.728C54.7233 385.728 53.8953 387.096 53.8953 388.8C53.8953 390.504 54.7233 391.86 56.0913 391.86C57.4593 391.86 58.2993 390.504 58.2993 388.8Z" fill="#3C3C43" fill-opacity="0.36"/>
                    <path d="M181.956 388.8C181.956 391.188 180.54 393.132 178.26 393.132C175.968 393.132 174.576 391.188 174.576 388.8C174.576 386.4 175.968 384.468 178.26 384.468C180.54 384.468 181.956 386.4 181.956 388.8ZM180.468 388.8C180.468 387.096 179.628 385.728 178.26 385.728C176.892 385.728 176.064 387.096 176.064 388.8C176.064 390.504 176.892 391.86 178.26 391.86C179.628 391.86 180.468 390.504 180.468 388.8ZM190.787 388.8C190.787 391.188 189.371 393.132 187.091 393.132C184.799 393.132 183.407 391.188 183.407 388.8C183.407 386.4 184.799 384.468 187.091 384.468C189.371 384.468 190.787 386.4 190.787 388.8ZM189.299 388.8C189.299 387.096 188.459 385.728 187.091 385.728C185.723 385.728 184.895 387.096 184.895 388.8C184.895 390.504 185.723 391.86 187.091 391.86C188.459 391.86 189.299 390.504 189.299 388.8Z" fill="#3C3C43" fill-opacity="0.36"/>
                    <path d="M348.956 388.8C348.956 391.188 347.54 393.132 345.26 393.132C342.968 393.132 341.576 391.188 341.576 388.8C341.576 386.4 342.968 384.468 345.26 384.468C347.54 384.468 348.956 386.4 348.956 388.8ZM347.468 388.8C347.468 387.096 346.628 385.728 345.26 385.728C343.892 385.728 343.064 387.096 343.064 388.8C343.064 390.504 343.892 391.86 345.26 391.86C346.628 391.86 347.468 390.504 347.468 388.8ZM357.787 388.8C357.787 391.188 356.371 393.132 354.091 393.132C351.799 393.132 350.407 391.188 350.407 388.8C350.407 386.4 351.799 384.468 354.091 384.468C356.371 384.468 357.787 386.4 357.787 388.8ZM356.299 388.8C356.299 387.096 355.459 385.728 354.091 385.728C352.723 385.728 351.895 387.096 351.895 388.8C351.895 390.504 352.723 391.86 354.091 391.86C355.459 391.86 356.299 390.504 356.299 388.8Z" fill="#3C3C43" fill-opacity="0.36"/>
                    <path d="M497.956 388.8C497.956 391.188 496.54 393.132 494.26 393.132C491.968 393.132 490.576 391.188 490.576 388.8C490.576 386.4 491.968 384.468 494.26 384.468C496.54 384.468 497.956 386.4 497.956 388.8ZM496.468 388.8C496.468 387.096 495.628 385.728 494.26 385.728C492.892 385.728 492.064 387.096 492.064 388.8C492.064 390.504 492.892 391.86 494.26 391.86C495.628 391.86 496.468 390.504 496.468 388.8ZM506.787 388.8C506.787 391.188 505.371 393.132 503.091 393.132C500.799 393.132 499.407 391.188 499.407 388.8C499.407 386.4 500.799 384.468 503.091 384.468C505.371 384.468 506.787 386.4 506.787 388.8ZM505.299 388.8C505.299 387.096 504.459 385.728 503.091 385.728C501.723 385.728 500.895 387.096 500.895 388.8C500.895 390.504 501.723 391.86 503.091 391.86C504.459 391.86 505.299 390.504 505.299 388.8Z" fill="#3C3C43" fill-opacity="0.36"/>
                    </g>
                    <defs>
                    <filter id="filter0_d_39_2406" x="0" y="0" width="629" height="442" filterUnits="userSpaceOnUse" color-interpolation-filters="sRGB">
                    <feFlood flood-opacity="0" result="BackgroundImageFix"/>
                    <feColorMatrix in="SourceAlpha" type="matrix" values="0 0 0 0 0 0 0 0 0 0 0 0 0 0 0 0 0 0 127 0" result="hardAlpha"/>
                    <feOffset dy="4"/>
                    <feGaussianBlur stdDeviation="2"/>
                    <feComposite in2="hardAlpha" operator="out"/>
                    <feColorMatrix type="matrix" values="0 0 0 0 0 0 0 0 0 0 0 0 0 0 0 0 0 0 0.25 0"/>
                    <feBlend mode="normal" in2="BackgroundImageFix" result="effect1_dropShadow_39_2406"/>
                    <feBlend mode="normal" in="SourceGraphic" in2="effect1_dropShadow_39_2406" result="shape"/>
                    </filter>
                    </defs>
                    </svg>
                                   