<svg width="727" height="478" viewBox="0 0 727 478" fill="none" xmlns="http://www.w3.org/2000/svg">
<rect x="3" width="724" height="477.84" rx="32" fill="#FFFDF5"/>
<rect x="3.5" y="0.5" width="723" height="476.84" rx="31.5" stroke="#3C3C43" stroke-opacity="0.36"/>
<line x1="195.877" y1="-2.18557e-08" x2="195.877" y2="413.714" stroke="#3C3C43" stroke-opacity="0.36"/>
<line x1="392.391" y1="-2.18557e-08" x2="392.391" y2="413.714" stroke="#3C3C43" stroke-opacity="0.36"/>
<line x1="588.906" y1="-2.18557e-08" x2="588.906" y2="413.714" stroke="#3C3C43" stroke-opacity="0.36"/>
<line x1="617.866" y1="-2.18557e-08" x2="617.866" y2="477.84" stroke="#3C3C43" stroke-opacity="0.36"/>
<path d="M3 53.7827L727 53.7828" stroke="#3C3C43" stroke-opacity="0.36"/>
<path d="M3 194.445L617.366 194.445" stroke="#3C3C43" stroke-opacity="0.36"/>
<path d="M3 345.451L617.366 345.451" stroke="#3C3C43" stroke-opacity="0.36"/>
<path d="M3 413.714L617.366 413.714" stroke="#3C3C43" stroke-opacity="0.36"/>
<path d="M56.956 429.8C56.956 432.188 55.54 434.132 53.26 434.132C50.968 434.132 49.576 432.188 49.576 429.8C49.576 427.4 50.968 425.468 53.26 425.468C55.54 425.468 56.956 427.4 56.956 429.8ZM55.468 429.8C55.468 428.096 54.628 426.728 53.26 426.728C51.892 426.728 51.064 428.096 51.064 429.8C51.064 431.504 51.892 432.86 53.26 432.86C54.628 432.86 55.468 431.504 55.468 429.8ZM65.7873 429.8C65.7873 432.188 64.3713 434.132 62.0913 434.132C59.7993 434.132 58.4073 432.188 58.4073 429.8C58.4073 427.4 59.7993 425.468 62.0913 425.468C64.3713 425.468 65.7873 427.4 65.7873 429.8ZM64.2993 429.8C64.2993 428.096 63.4593 426.728 62.0913 426.728C60.7233 426.728 59.8953 428.096 59.8953 429.8C59.8953 431.504 60.7233 432.86 62.0913 432.86C63.4593 432.86 64.2993 431.504 64.2993 429.8Z" fill="#3C3C43" fill-opacity="0.36"/>
<path d="M209.956 429.8C209.956 432.188 208.54 434.132 206.26 434.132C203.968 434.132 202.576 432.188 202.576 429.8C202.576 427.4 203.968 425.468 206.26 425.468C208.54 425.468 209.956 427.4 209.956 429.8ZM208.468 429.8C208.468 428.096 207.628 426.728 206.26 426.728C204.892 426.728 204.064 428.096 204.064 429.8C204.064 431.504 204.892 432.86 206.26 432.86C207.628 432.86 208.468 431.504 208.468 429.8ZM218.787 429.8C218.787 432.188 217.371 434.132 215.091 434.132C212.799 434.132 211.407 432.188 211.407 429.8C211.407 427.4 212.799 425.468 215.091 425.468C217.371 425.468 218.787 427.4 218.787 429.8ZM217.299 429.8C217.299 428.096 216.459 426.728 215.091 426.728C213.723 426.728 212.895 428.096 212.895 429.8C212.895 431.504 213.723 432.86 215.091 432.86C216.459 432.86 217.299 431.504 217.299 429.8Z" fill="#3C3C43" fill-opacity="0.36"/>
<path d="M403.956 429.8C403.956 432.188 402.54 434.132 400.26 434.132C397.968 434.132 396.576 432.188 396.576 429.8C396.576 427.4 397.968 425.468 400.26 425.468C402.54 425.468 403.956 427.4 403.956 429.8ZM402.468 429.8C402.468 428.096 401.628 426.728 400.26 426.728C398.892 426.728 398.064 428.096 398.064 429.8C398.064 431.504 398.892 432.86 400.26 432.86C401.628 432.86 402.468 431.504 402.468 429.8ZM412.787 429.8C412.787 432.188 411.371 434.132 409.091 434.132C406.799 434.132 405.407 432.188 405.407 429.8C405.407 427.4 406.799 425.468 409.091 425.468C411.371 425.468 412.787 427.4 412.787 429.8ZM411.299 429.8C411.299 428.096 410.459 426.728 409.091 426.728C407.723 426.728 406.895 428.096 406.895 429.8C406.895 431.504 407.723 432.86 409.091 432.86C410.459 432.86 411.299 431.504 411.299 429.8Z" fill="#3C3C43" fill-opacity="0.36"/>
<path d="M577.956 429.8C577.956 432.188 576.54 434.132 574.26 434.132C571.968 434.132 570.576 432.188 570.576 429.8C570.576 427.4 571.968 425.468 574.26 425.468C576.54 425.468 577.956 427.4 577.956 429.8ZM576.468 429.8C576.468 428.096 575.628 426.728 574.26 426.728C572.892 426.728 572.064 428.096 572.064 429.8C572.064 431.504 572.892 432.86 574.26 432.86C575.628 432.86 576.468 431.504 576.468 429.8ZM586.787 429.8C586.787 432.188 585.371 434.132 583.091 434.132C580.799 434.132 579.407 432.188 579.407 429.8C579.407 427.4 580.799 425.468 583.091 425.468C585.371 425.468 586.787 427.4 586.787 429.8ZM585.299 429.8C585.299 428.096 584.459 426.728 583.091 426.728C581.723 426.728 580.895 428.096 580.895 429.8C580.895 431.504 581.723 432.86 583.091 432.86C584.459 432.86 585.299 431.504 585.299 429.8Z" fill="#3C3C43" fill-opacity="0.36"/>
<path d="M639.348 89.848C640.596 89.848 641.304 88.984 641.304 88.216C641.304 87.316 640.536 86.692 639.612 86.692C639.396 86.692 638.868 86.74 638.448 87.004L637.812 86.188L640.392 83.836H636.768V82.6H642.54V83.5L640.128 85.624C641.532 85.636 642.804 86.728 642.804 88.204C642.804 89.8 641.52 91.132 639.336 91.132C638.016 91.132 637.008 90.748 636.348 90.148L637.14 89.188C638.016 89.764 638.628 89.848 639.348 89.848ZM647.955 83.764C646.827 83.764 645.807 84.832 645.759 86.572C645.771 86.572 645.783 86.572 645.783 86.572C646.179 85.804 647.079 85.468 647.871 85.468C649.407 85.468 650.895 86.536 650.895 88.288C650.895 89.932 649.599 91.132 647.715 91.132C645.567 91.132 644.283 89.452 644.283 86.992C644.283 84.484 645.543 82.468 647.919 82.468C649.023 82.468 649.983 82.9 650.547 83.548L649.611 84.4C649.167 83.908 648.447 83.764 647.955 83.764ZM647.679 86.692C646.611 86.692 645.915 87.376 645.915 88.24C645.915 89.128 646.647 89.848 647.667 89.848C648.615 89.848 649.395 89.2 649.395 88.276C649.395 87.328 648.675 86.692 647.679 86.692ZM652.15 84.376C652.15 83.236 653.05 82.324 654.202 82.324C655.366 82.324 656.254 83.236 656.254 84.376C656.254 85.492 655.366 86.392 654.202 86.392C653.05 86.392 652.15 85.492 652.15 84.376ZM653.11 84.376C653.11 85.012 653.566 85.504 654.202 85.504C654.85 85.504 655.306 85.012 655.306 84.376C655.306 83.728 654.85 83.212 654.202 83.212C653.566 83.212 653.11 83.728 653.11 84.376Z" fill="#3C3C43" fill-opacity="0.36"/>
<path d="M639.348 151.848C640.596 151.848 641.304 150.984 641.304 150.216C641.304 149.316 640.536 148.692 639.612 148.692C639.396 148.692 638.868 148.74 638.448 149.004L637.812 148.188L640.392 145.836H636.768V144.6H642.54V145.5L640.128 147.624C641.532 147.636 642.804 148.728 642.804 150.204C642.804 151.8 641.52 153.132 639.336 153.132C638.016 153.132 637.008 152.748 636.348 152.148L637.14 151.188C638.016 151.764 638.628 151.848 639.348 151.848ZM647.043 151.848C648.291 151.848 648.999 150.984 648.999 150.216C648.999 149.316 648.231 148.692 647.307 148.692C647.091 148.692 646.563 148.74 646.143 149.004L645.507 148.188L648.087 145.836H644.463V144.6H650.235V145.5L647.823 147.624C649.227 147.636 650.499 148.728 650.499 150.204C650.499 151.8 649.215 153.132 647.031 153.132C645.711 153.132 644.703 152.748 644.043 152.148L644.835 151.188C645.711 151.764 646.323 151.848 647.043 151.848ZM651.869 146.376C651.869 145.236 652.769 144.324 653.921 144.324C655.085 144.324 655.973 145.236 655.973 146.376C655.973 147.492 655.085 148.392 653.921 148.392C652.769 148.392 651.869 147.492 651.869 146.376ZM652.829 146.376C652.829 147.012 653.285 147.504 653.921 147.504C654.569 147.504 655.025 147.012 655.025 146.376C655.025 145.728 654.569 145.212 653.921 145.212C653.285 145.212 652.829 145.728 652.829 146.376Z" fill="#3C3C43" fill-opacity="0.36"/>
<path d="M639.348 213.848C640.596 213.848 641.304 212.984 641.304 212.216C641.304 211.316 640.536 210.692 639.612 210.692C639.396 210.692 638.868 210.74 638.448 211.004L637.812 210.188L640.392 207.836H636.768V206.6H642.54V207.5L640.128 209.624C641.532 209.636 642.804 210.728 642.804 212.204C642.804 213.8 641.52 215.132 639.336 215.132C638.016 215.132 637.008 214.748 636.348 214.148L637.14 213.188C638.016 213.764 638.628 213.848 639.348 213.848ZM651.651 210.8C651.651 213.188 650.235 215.132 647.955 215.132C645.663 215.132 644.271 213.188 644.271 210.8C644.271 208.4 645.663 206.468 647.955 206.468C650.235 206.468 651.651 208.4 651.651 210.8ZM650.163 210.8C650.163 209.096 649.323 207.728 647.955 207.728C646.587 207.728 645.759 209.096 645.759 210.8C645.759 212.504 646.587 213.86 647.955 213.86C649.323 213.86 650.163 212.504 650.163 210.8ZM653.006 208.376C653.006 207.236 653.906 206.324 655.058 206.324C656.222 206.324 657.11 207.236 657.11 208.376C657.11 209.492 656.222 210.392 655.058 210.392C653.906 210.392 653.006 209.492 653.006 208.376ZM653.966 208.376C653.966 209.012 654.422 209.504 655.058 209.504C655.706 209.504 656.162 209.012 656.162 208.376C656.162 207.728 655.706 207.212 655.058 207.212C654.422 207.212 653.966 207.728 653.966 208.376Z" fill="#3C3C43" fill-opacity="0.36"/>
<path d="M640.932 273.976L638.832 275.812C638.832 275.812 638.832 275.824 638.832 275.836C639.288 275.788 640.32 275.776 640.44 275.776H642.864V277H636.768L636.6 276.064L639.948 273.016C640.548 272.5 641.1 271.852 641.1 271.132C641.1 270.268 640.5 269.752 639.564 269.752C638.316 269.752 638.004 270.544 638.004 271.096H636.528C636.528 270.076 637.248 268.468 639.564 268.468C641.376 268.468 642.564 269.5 642.564 271.12C642.564 272.416 641.724 273.28 640.932 273.976ZM645.687 273.58H648.123V270.892L645.687 273.58ZM648.123 274.828H643.935V273.892L648.639 268.6H649.611V273.58H651.363V274.828H649.611V277H648.123V274.828ZM652.467 270.376C652.467 269.236 653.367 268.324 654.519 268.324C655.683 268.324 656.571 269.236 656.571 270.376C656.571 271.492 655.683 272.392 654.519 272.392C653.367 272.392 652.467 271.492 652.467 270.376ZM653.427 270.376C653.427 271.012 653.883 271.504 654.519 271.504C655.167 271.504 655.623 271.012 655.623 270.376C655.623 269.728 655.167 269.212 654.519 269.212C653.883 269.212 653.427 269.728 653.427 270.376Z" fill="#3C3C43" fill-opacity="0.36"/>
<path d="M636.516 333.12L636.144 331.932L639.048 330.6H639.852V339H638.364V332.352L636.516 333.12ZM644.947 334.068H644.995C646.039 334.068 646.531 333.42 646.531 332.832C646.531 332.22 645.919 331.728 644.971 331.728C644.023 331.728 643.423 332.22 643.423 332.832C643.423 333.42 643.891 334.068 644.947 334.068ZM644.971 335.124C643.687 335.124 643.075 335.772 643.075 336.492C643.075 337.248 643.831 337.86 644.971 337.86C646.123 337.86 646.879 337.248 646.879 336.492C646.879 335.784 646.267 335.124 645.019 335.124H644.971ZM644.971 339.132C642.991 339.132 641.563 338.052 641.563 336.492C641.563 335.676 642.211 334.812 643.135 334.5C642.415 334.212 641.911 333.504 641.911 332.832C641.911 331.44 643.183 330.468 644.971 330.468C646.759 330.468 648.031 331.44 648.031 332.832C648.031 333.504 647.539 334.212 646.819 334.5C647.743 334.812 648.379 335.676 648.379 336.492C648.379 338.052 646.963 339.132 644.971 339.132ZM649.713 332.376C649.713 331.236 650.613 330.324 651.765 330.324C652.929 330.324 653.817 331.236 653.817 332.376C653.817 333.492 652.929 334.392 651.765 334.392C650.613 334.392 649.713 333.492 649.713 332.376ZM650.673 332.376C650.673 333.012 651.129 333.504 651.765 333.504C652.413 333.504 652.869 333.012 652.869 332.376C652.869 331.728 652.413 331.212 651.765 331.212C651.129 331.212 650.673 331.728 650.673 332.376Z" fill="#3C3C43" fill-opacity="0.36"/>
<path d="M636.516 395.12L636.144 393.932L639.048 392.6H639.852V401H638.364V394.352L636.516 395.12ZM645.943 397.976L643.843 399.812C643.843 399.812 643.843 399.824 643.843 399.836C644.299 399.788 645.331 399.776 645.451 399.776H647.875V401H641.779L641.611 400.064L644.959 397.016C645.559 396.5 646.111 395.852 646.111 395.132C646.111 394.268 645.511 393.752 644.575 393.752C643.327 393.752 643.015 394.544 643.015 395.096H641.539C641.539 394.076 642.259 392.468 644.575 392.468C646.387 392.468 647.575 393.5 647.575 395.12C647.575 396.416 646.735 397.28 645.943 397.976ZM649.162 394.376C649.162 393.236 650.062 392.324 651.214 392.324C652.378 392.324 653.266 393.236 653.266 394.376C653.266 395.492 652.378 396.392 651.214 396.392C650.062 396.392 649.162 395.492 649.162 394.376ZM650.122 394.376C650.122 395.012 650.578 395.504 651.214 395.504C651.862 395.504 652.318 395.012 652.318 394.376C652.318 393.728 651.862 393.212 651.214 393.212C650.578 393.212 650.122 393.728 650.122 394.376Z" fill="#3C3C43" fill-opacity="0.36"/>
<path d="M188.159 331.258L6 324.012V412H615V331.258H561.687L465.076 244.305C443.363 212.216 417.421 145.365 383.669 147.031C349.918 148.696 239.266 270.543 188.159 331.258Z" fill="url(#paint0_linear_52_2341)" fill-opacity="0.5"/>
<path d="M346.01 115V112.21C346.01 111.33 345.66 110.87 345.07 110.87C344.51 110.87 343.96 111.3 343.93 112.41V115H342.7V109.94H343.93V110.79C344.2 110.17 344.77 109.83 345.42 109.83C346.05 109.83 346.67 110.08 347 110.78C347.4 109.97 348.11 109.83 348.66 109.83C349.97 109.83 350.54 110.74 350.54 112.2V115H349.31V112.21C349.31 111.33 348.96 110.87 348.37 110.87C347.81 110.87 347.26 111.3 347.23 112.41V115H346.01ZM356.05 109.94H357.28V115H356.05V114.24C355.69 114.79 355.06 115.11 354.32 115.11C352.82 115.11 351.84 113.93 351.84 112.45C351.84 111.02 352.78 109.83 354.33 109.83C355.01 109.83 355.64 110.11 356.05 110.69V109.94ZM353.08 112.46C353.08 113.36 353.65 114.08 354.57 114.08C355.41 114.08 356.08 113.51 356.08 112.51C356.08 111.53 355.45 110.86 354.54 110.86C353.61 110.86 353.08 111.59 353.08 112.46ZM354.97 107.64H356.3L355 109.25H354.04L354.97 107.64ZM361.224 113.2L359.784 115H358.364V114.88L360.454 112.38L358.524 110.04V109.94H359.944L361.224 111.57L362.504 109.94H363.924V110.04L361.994 112.38L364.084 114.88V115H362.664L361.224 113.2Z" fill="#565656"/>
<path d="M131.01 297V294.21C131.01 293.33 130.66 292.87 130.07 292.87C129.51 292.87 128.96 293.3 128.93 294.41V297H127.7V291.94H128.93V292.79C129.2 292.17 129.77 291.83 130.42 291.83C131.05 291.83 131.67 292.08 132 292.78C132.4 291.97 133.11 291.83 133.66 291.83C134.97 291.83 135.54 292.74 135.54 294.2V297H134.31V294.21C134.31 293.33 133.96 292.87 133.37 292.87C132.81 292.87 132.26 293.3 132.23 294.41V297H131.01ZM138.42 297H137.19V291.94H138.42V297ZM138.12 289.64H139.45L138.16 291.25H137.19L138.12 289.64ZM140.136 297V291.94H141.366V292.79C141.686 292.13 142.286 291.83 143.006 291.83C144.266 291.83 144.876 292.74 144.876 294.2V297H143.646V294.21C143.646 293.33 143.276 292.87 142.666 292.87C141.946 292.87 141.366 293.41 141.366 294.47V297H140.136Z" fill="#565656"/>
<path d="M3 326.826L91.4699 330.913L179.94 335C231.033 275.394 345.514 150.666 379.256 149.031C412.998 147.396 451.657 211.512 460.916 245.573L563.249 326.826L617 335" stroke="url(#paint1_linear_52_2341)" stroke-width="5" stroke-linecap="round" stroke-linejoin="round"/>
<path d="M159 335C159 338.759 155.532 342 151 342C146.468 342 143 338.759 143 335C143 331.241 146.468 328 151 328C155.532 328 159 331.241 159 335Z" stroke="#FFFDF5" stroke-width="2"/>
<path d="M383 149C383 152.712 379.362 156 374.5 156C369.638 156 366 152.712 366 149C366 145.288 369.638 142 374.5 142C379.362 142 383 145.288 383 149Z" stroke="#FFFDF5" stroke-width="2"/>
<defs>
<linearGradient id="paint0_linear_52_2341" x1="310.5" y1="147" x2="310.5" y2="412" gradientUnits="userSpaceOnUse">
<stop stop-color="#FFCD5E"/>
<stop offset="0.455" stop-color="#FFAC33"/>
<stop offset="1" stop-color="#FFCD5E"/>
</linearGradient>
<linearGradient id="paint1_linear_52_2341" x1="178.911" y1="171.511" x2="494.727" y2="176.689" gradientUnits="userSpaceOnUse">
<stop stop-color="#FFCD5E"/>
<stop offset="0.31" stop-color="#F99E18"/>
<stop offset="1" stop-color="#FFCD5E"/>
</linearGradient>
</defs>
</svg>
