<svg width="91" height="87" viewBox="0 0 91 87" fill="none" xmlns="http://www.w3.org/2000/svg">
<path d="M13.3438 77.3125C12.6354 76.5833 12.2812 75.6667 12.2812 74.5625C12.2812 73.4583 12.6562 72.5417 13.4062 71.8125L19.4688 65.7812C20.1979 65.0521 21.1146 64.6875 22.2188 64.6875C23.3229 64.6875 24.25 65.0625 25 65.8125C25.75 66.5625 26.1146 67.4792 26.0938 68.5625C26.0938 69.6667 25.7083 70.5938 24.9375 71.3438L18.9062 77.375C18.1771 78.125 17.2604 78.4896 16.1562 78.4688C15.0521 78.4688 14.1146 78.0833 13.3438 77.3125ZM0.21875 45.4375C0.21875 44.375 0.59375 43.4583 1.34375 42.6875C2.11458 41.9167 3.04167 41.5312 4.125 41.5312H12.625C13.6875 41.5312 14.6042 41.9167 15.375 42.6875C16.1458 43.4583 16.5312 44.375 16.5312 45.4375C16.5312 46.5 16.1458 47.4167 15.375 48.1875C14.6042 48.9375 13.6875 49.3125 12.625 49.3125H4.125C3.04167 49.3125 2.11458 48.9375 1.34375 48.1875C0.59375 47.4167 0.21875 46.5 0.21875 45.4375ZM13.4688 13.4688C14.2188 12.7188 15.1354 12.3542 16.2188 12.375C17.3229 12.375 18.2396 12.75 18.9688 13.5L25 19.5625C25.75 20.2917 26.1146 21.2083 26.0938 22.3125C26.0729 23.4167 25.6875 24.3438 24.9375 25.0938C24.2083 25.8438 23.2917 26.2188 22.1875 26.2188C21.1042 26.1979 20.1875 25.8125 19.4375 25.0625L13.4062 19C12.6771 18.2708 12.3125 17.3542 12.3125 16.25C12.3333 15.1458 12.7188 14.2188 13.4688 13.4688ZM45.4062 0.1875C46.4688 0.1875 47.3854 0.572917 48.1562 1.34375C48.9271 2.11458 49.3125 3.04167 49.3125 4.125V12.625C49.3125 13.7083 48.9271 14.6354 48.1562 15.4062C47.3854 16.1771 46.4688 16.5625 45.4062 16.5625C44.3229 16.5625 43.3958 16.1771 42.625 15.4062C41.8542 14.6354 41.4688 13.7083 41.4688 12.625V4.125C41.4688 3.04167 41.8542 2.11458 42.625 1.34375C43.3958 0.572917 44.3229 0.1875 45.4062 0.1875ZM77.3438 13.4688C78.0938 14.2188 78.4688 15.1458 78.4688 16.25C78.4896 17.3542 78.1354 18.2812 77.4062 19.0312L71.3438 25.0625C70.5938 25.8333 69.6667 26.2188 68.5625 26.2188C67.4583 26.2188 66.5312 25.8438 65.7812 25.0938C65.0521 24.3438 64.6771 23.4271 64.6562 22.3438C64.6562 21.2396 65.0208 20.3125 65.75 19.5625L71.8438 13.5C72.5729 12.75 73.4792 12.375 74.5625 12.375C75.6667 12.3542 76.5938 12.7188 77.3438 13.4688ZM79.2812 49.3125L76.3438 44.0938C76.2188 43.9062 76.0833 43.7188 75.9375 43.5312C75.8125 43.3229 75.6979 43.125 75.5938 42.9375C75.7396 42.5625 76.0521 42.2396 76.5312 41.9688C77.0104 41.6771 77.5625 41.5312 78.1875 41.5312H86.6875C87.75 41.5312 88.6667 41.9167 89.4375 42.6875C90.2083 43.4583 90.5938 44.375 90.5938 45.4375C90.5938 46.5 90.2083 47.4167 89.4375 48.1875C88.6667 48.9375 87.75 49.3125 86.6875 49.3125H79.2812ZM24.3438 45.4375C24.3438 42.5208 24.8854 39.8021 25.9688 37.2812C27.0729 34.7396 28.5833 32.5104 30.5 30.5938C32.4167 28.6562 34.6458 27.1458 37.1875 26.0625C39.75 24.9583 42.4792 24.4062 45.375 24.4062C47.75 24.4062 50.0104 24.7917 52.1562 25.5625C54.3021 26.3125 56.25 27.375 58 28.75C59.7708 30.1042 61.2812 31.6979 62.5312 33.5312C63.7812 35.3646 64.6875 37.3646 65.25 39.5312C65.0417 39.5104 64.8438 39.5104 64.6562 39.5312C64.4688 39.5312 64.2812 39.5417 64.0938 39.5625C62.3854 39.7292 60.7812 40.2812 59.2812 41.2188C57.7812 42.1562 56.5833 43.4375 55.6875 45.0625L43.8438 66.25C43.5729 66.25 43.3021 66.2396 43.0312 66.2188C42.7812 66.1979 42.5312 66.1771 42.2812 66.1562C39.7604 65.7812 37.4062 64.9896 35.2188 63.7812C33.0521 62.5729 31.1458 61.0417 29.5 59.1875C27.875 57.3125 26.6042 55.2083 25.6875 52.875C24.7917 50.5417 24.3438 48.0625 24.3438 45.4375ZM48.2812 86.375C46.5938 86.375 45.2396 85.8229 44.2188 84.7188C43.2188 83.6146 42.7188 82.3021 42.7188 80.7812C42.7188 79.8646 42.9688 78.9583 43.4688 78.0625L60.4688 47.6562C60.9896 46.6979 61.6875 45.9896 62.5625 45.5312C63.4375 45.0521 64.3438 44.8125 65.2812 44.8125C66.2188 44.8125 67.1146 45.0521 67.9688 45.5312C68.8229 45.9896 69.5312 46.6979 70.0938 47.6562L87.0938 78.0625C87.5938 78.9375 87.8438 79.8438 87.8438 80.7812C87.8438 82.3021 87.3333 83.6146 86.3125 84.7188C85.3125 85.8229 83.9688 86.375 82.2812 86.375H48.2812ZM65.2812 80.375C66.2812 80.375 67.125 80.0417 67.8125 79.375C68.5 78.7083 68.8542 77.8854 68.875 76.9062C68.875 75.9479 68.5208 75.125 67.8125 74.4375C67.125 73.7708 66.2812 73.4375 65.2812 73.4375C64.3021 73.4375 63.4583 73.7708 62.75 74.4375C62.0625 75.1042 61.7188 75.9271 61.7188 76.9062C61.7188 77.8854 62.0625 78.7083 62.75 79.375C63.4375 80.0417 64.2812 80.375 65.2812 80.375ZM65.2812 70.8438C66.0312 70.8438 66.6562 70.6042 67.1562 70.125C67.6562 69.6458 67.9062 69.0417 67.9062 68.3125L68.25 57.2812C68.2708 56.4271 68 55.7292 67.4375 55.1875C66.8958 54.625 66.1771 54.3438 65.2812 54.3438C64.3854 54.3438 63.6562 54.625 63.0938 55.1875C62.5521 55.7292 62.2812 56.4271 62.2812 57.2812L62.625 68.3125C62.6458 69.0417 62.9062 69.6458 63.4062 70.125C63.9062 70.6042 64.5312 70.8438 65.2812 70.8438Z" fill="white"/>
</svg>
