<svg width="69" height="56" viewBox="0 0 69 56" fill="none" xmlns="http://www.w3.org/2000/svg">
<path d="M54.2656 55.7266C52.2969 55.7266 50.4453 55.3672 48.7109 54.6484C46.9922 53.9297 45.4766 52.9297 44.1641 51.6484C42.8672 50.3828 41.8516 48.8984 41.1172 47.1953C40.3828 45.5078 40.0156 43.6953 40.0156 41.7578C40.0156 40.3516 40.2109 38.9688 40.6016 37.6094C41.0078 36.25 41.4922 34.9531 42.0547 33.7188C42.6328 32.4688 43.2031 31.3203 43.7656 30.2734L50.4922 17.7578C51.3203 16.2109 52.5781 15.4375 54.2656 15.4375C55.9688 15.4375 57.2266 16.2031 58.0391 17.7344L64.7656 30.2734C65.3281 31.3203 65.8984 32.4688 66.4766 33.7188C67.0547 34.9531 67.5391 36.25 67.9297 37.6094C68.3359 38.9688 68.5391 40.3516 68.5391 41.7578C68.5391 43.6953 68.1719 45.5078 67.4375 47.1953C66.7031 48.8984 65.6797 50.3828 64.3672 51.6484C63.0703 52.9297 61.5547 53.9297 59.8203 54.6484C58.1016 55.3672 56.25 55.7266 54.2656 55.7266ZM14.4688 19.6328C12.4375 19.6328 10.4609 19.375 8.53906 18.8594C6.63281 18.3438 4.79688 17.5781 3.03125 16.5625C1.84375 15.875 1.10938 14.9531 0.828125 13.7969C0.546875 12.6406 0.75 11.5625 1.4375 10.5625C2 9.71875 2.75781 9.17188 3.71094 8.92188C4.67969 8.67187 5.64844 8.82031 6.61719 9.36719C8.02344 10.1797 9.33594 10.7578 10.5547 11.1016C11.7891 11.4453 13.0938 11.6172 14.4688 11.6172C16.4844 11.6172 18.3828 11.3437 20.1641 10.7969C21.9609 10.2344 23.6953 9.52344 25.3672 8.66406C27.0391 7.78906 28.7109 6.86719 30.3828 5.89844C32.0703 4.92969 33.8125 4.01563 35.6094 3.15625C37.4219 2.28125 39.3438 1.57031 41.375 1.02344C43.4219 0.460938 45.6484 0.179688 48.0547 0.179688C50.0859 0.179688 52.0547 0.445312 53.9609 0.976562C55.8828 1.49219 57.7266 2.25 59.4922 3.25C60.7109 3.96875 61.4531 4.91406 61.7188 6.08594C62 7.24219 61.7969 8.32031 61.1094 9.32031C60.5156 10.1641 59.7344 10.7031 58.7656 10.9375C57.8125 11.1562 56.8594 11 55.9062 10.4688C54.5 9.65625 53.1797 9.07813 51.9453 8.73438C50.7266 8.39062 49.4297 8.21875 48.0547 8.21875C46.0391 8.21875 44.1406 8.49219 42.3594 9.03906C40.5781 9.58594 38.8438 10.2969 37.1562 11.1719C35.4844 12.0313 33.8047 12.9531 32.1172 13.9375C30.4453 14.9062 28.7031 15.8281 26.8906 16.7031C25.0938 17.5625 23.1719 18.2656 21.125 18.8125C19.0938 19.3594 16.875 19.6328 14.4688 19.6328ZM14.5156 35.8516C12.4844 35.8516 10.5078 35.5938 8.58594 35.0781C6.67969 34.5625 4.83594 33.7969 3.05469 32.7812C1.88281 32.0938 1.15625 31.1719 0.875 30.0156C0.59375 28.8594 0.789062 27.7812 1.46094 26.7812C2.02344 25.9219 2.78906 25.375 3.75781 25.1406C4.72656 24.8906 5.69531 25.0312 6.66406 25.5625C8.07031 26.3906 9.38281 26.9766 10.6016 27.3203C11.8359 27.6484 13.1406 27.8125 14.5156 27.8125C16.4375 27.8125 18.2422 27.5703 19.9297 27.0859C21.6328 26.6016 23.2656 25.9688 24.8281 25.1875C26.4062 24.4062 27.9766 23.5625 29.5391 22.6562C31.1016 21.7344 32.7031 20.8516 34.3438 20.0078C36 19.1484 37.75 18.4062 39.5938 17.7812C41.4375 17.1562 43.4297 16.7344 45.5703 16.5156C44.7422 18.0938 43.8984 19.6719 43.0391 21.25C42.1953 22.8281 41.3516 24.4062 40.5078 25.9844C39.1484 26.4844 37.8125 27.0703 36.5 27.7422C35.1875 28.4141 33.8672 29.125 32.5391 29.875C31.2266 30.6094 29.8828 31.3281 28.5078 32.0312C27.1328 32.7344 25.7109 33.375 24.2422 33.9531C22.7734 34.5312 21.2344 34.9922 19.625 35.3359C18.0156 35.6797 16.3125 35.8516 14.5156 35.8516ZM14.4688 52.0703C12.4375 52.0703 10.4609 51.8125 8.53906 51.2969C6.63281 50.7812 4.79688 50.0156 3.03125 49C1.84375 48.3125 1.10938 47.3906 0.828125 46.2344C0.546875 45.0781 0.75 44 1.4375 43C2 42.1406 2.75781 41.5938 3.71094 41.3594C4.67969 41.1094 5.64844 41.25 6.61719 41.7812C8.02344 42.5938 9.33594 43.1719 10.5547 43.5156C11.7891 43.8594 13.0938 44.0312 14.4688 44.0312C16.5469 44.0312 18.4922 43.75 20.3047 43.1875C22.1328 42.625 23.8906 41.8984 25.5781 41.0078C27.2812 40.1172 28.9922 39.1797 30.7109 38.1953C32.4453 37.1953 34.2578 36.2656 36.1484 35.4062C35.6641 36.9375 35.3438 38.4766 35.1875 40.0234C35.0469 41.5703 35.1016 43.0703 35.3516 44.5234C33.8047 45.3359 32.25 46.1797 30.6875 47.0547C29.125 47.9297 27.5078 48.7422 25.8359 49.4922C24.1641 50.2578 22.3906 50.875 20.5156 51.3438C18.6406 51.8281 16.625 52.0703 14.4688 52.0703Z" fill="white"/>
</svg>
