<svg xmlns="http://www.w3.org/2000/svg" width="58" height="58"
                                                    viewBox="0 0 58 58" fill="none">
                                                    <path fill-rule="evenodd" clip-rule="evenodd"
                                                        d="M7.69783 57.1722C7.47829 57.5299 7.18127 57.7662 6.80677 57.8812C6.43227 57.9961 6.05777 57.9578 5.68327 57.7662C5.30877 57.549 5.07632 57.2488 4.98592 56.8656C4.90844 56.4951 4.96655 56.1374 5.16026 55.7925L12.6374 42.9924C12.8698 42.6092 13.1668 42.3665 13.5284 42.2643C13.9029 42.1621 14.271 42.2132 14.6326 42.4176C15.0071 42.622 15.2395 42.9094 15.3299 43.2799C15.4332 43.6631 15.3686 44.0463 15.1362 44.4296L7.69783 57.1722Z"
                                                        fill="#4672E1" />
                                                    <path
                                                        d="M11.9788 38.2403C9.49931 38.2403 7.36852 37.7613 5.58641 36.8032C3.81722 35.8323 2.46127 34.5357 1.51856 32.9133C0.575847 31.2782 0.104492 29.4642 0.104492 27.4714C0.104492 25.7085 0.459623 24.1181 1.16988 22.7001C1.89306 21.2821 2.86805 20.0813 4.09487 19.0977C5.32168 18.1013 6.70346 17.3795 8.24021 16.9324C8.47266 14.6202 9.09252 12.4677 10.0998 10.4749C11.12 8.48204 12.4437 6.73832 14.0708 5.24369C15.7109 3.7363 17.5705 2.56104 19.6496 1.71792C21.7287 0.862029 23.9499 0.434082 26.3131 0.434082C28.8442 0.434082 31.1493 0.855642 33.2285 1.69876C35.3076 2.54188 37.1349 3.72352 38.7104 5.24369C40.2988 6.76386 41.6096 8.53314 42.6427 10.5515C44.7605 10.5515 46.7234 10.8964 48.5314 11.5863C50.3522 12.2761 51.9406 13.2406 53.2966 14.4797C54.6654 15.7188 55.7244 17.1751 56.4734 18.8486C57.2353 20.522 57.6162 22.3552 57.6162 24.348C57.6162 26.2642 57.2547 28.0654 56.5315 29.7516C55.8083 31.4379 54.7946 32.9133 53.4903 34.178C52.186 35.4427 50.6557 36.4391 48.8994 37.1673C47.1431 37.8826 45.2383 38.2403 43.185 38.2403H11.9788Z"
                                                        fill="#C8F5FF" />
                                                    <path
                                                        d="M27.611 57.1722C27.3914 57.5299 27.0879 57.7662 26.7005 57.8812C26.326 57.9961 25.958 57.9578 25.5964 57.7662C25.2219 57.549 24.9894 57.2488 24.8991 56.8656C24.8216 56.4951 24.8797 56.1374 25.0734 55.7925L32.5311 42.9924C32.7636 42.6092 33.0606 42.3665 33.4222 42.2643C33.7967 42.1621 34.1712 42.2132 34.5457 42.4176C34.9073 42.622 35.1333 42.9094 35.2237 43.2799C35.327 43.6631 35.2689 44.0463 35.0493 44.4296L27.611 57.1722Z"
                                                        fill="#4672E1" />
                                                    <path
                                                        d="M17.6738 57.1722C17.4671 57.5299 17.1701 57.7662 16.7827 57.8812C16.3953 57.9961 16.0208 57.9578 15.6592 57.7662C15.2847 57.549 15.0523 57.2488 14.9619 56.8656C14.8844 56.4951 14.9425 56.1374 15.1362 55.7925L22.6133 42.9924C22.8328 42.6092 23.1234 42.3665 23.485 42.2643C23.8595 42.1493 24.234 42.2004 24.6085 42.4176C24.9701 42.622 25.1961 42.9094 25.2865 43.2799C25.3898 43.6631 25.3317 44.0463 25.1121 44.4296L17.6738 57.1722Z"
                                                        fill="#4672E1" />
                                                    <path
                                                        d="M37.5094 57.1913C37.3157 57.5363 37.0251 57.7662 36.6377 57.8812C36.2503 57.9961 35.8887 57.9578 35.553 57.7662C35.1785 57.549 34.946 57.2488 34.8556 56.8656C34.7781 56.4824 34.8492 56.1119 35.0687 55.7542L42.5071 42.9733C42.7266 42.6028 43.0236 42.3729 43.3981 42.2835C43.7726 42.1813 44.1342 42.226 44.4829 42.4176C44.8574 42.6092 45.0898 42.8966 45.1802 43.2799C45.2706 43.6631 45.2125 44.0336 45.0059 44.3913L37.5094 57.1913Z"
                                                        fill="#4672E1" />
                                                </svg>