<svg xmlns="http://www.w3.org/2000/svg" width="70" height="71" viewBox="0 0 70 71"
                                fill="none">
                                <path
                                    d="M14.7812 46.6797C11.7812 46.6797 9.20312 46.0938 7.04688 44.9219C4.90625 43.7344 3.26562 42.1484 2.125 40.1641C0.984375 38.1641 0.414062 35.9453 0.414062 33.5078C0.414062 31.3516 0.84375 29.4062 1.70312 27.6719C2.57812 25.9375 3.75781 24.4688 5.24219 23.2656C6.72656 22.0469 8.39844 21.1641 10.2578 20.6172C10.5391 17.7891 11.2891 15.1562 12.5078 12.7188C13.7422 10.2812 15.3438 8.14844 17.3125 6.32031C19.2969 4.47656 21.5469 3.03906 24.0625 2.00781C26.5781 0.960938 29.2656 0.4375 32.125 0.4375C35.1875 0.4375 37.9766 0.953125 40.4922 1.98438C43.0078 3.01562 45.2188 4.46094 47.125 6.32031C49.0469 8.17969 50.6328 10.3438 51.8828 12.8125C54.4453 12.8125 56.8203 13.2344 59.0078 14.0781C61.2109 14.9219 63.1328 16.1016 64.7734 17.6172C66.4297 19.1328 67.7109 20.9141 68.6172 22.9609C69.5391 25.0078 70 27.25 70 29.6875C70 32.0312 69.5625 34.2344 68.6875 36.2969C67.8125 38.3594 66.5859 40.1641 65.0078 41.7109C63.4297 43.2578 61.5781 44.4766 59.4531 45.3672C57.3281 46.2422 55.0234 46.6797 52.5391 46.6797H14.7812ZM15.4375 61.2578C15.1719 61.6953 14.8047 61.9844 14.3359 62.125C13.8828 62.2656 13.4375 62.2188 13 61.9844C12.5469 61.7188 12.2656 61.3516 12.1562 60.8828C12.0469 60.4297 12.1172 59.9922 12.3672 59.5703L16.4453 52.4922C16.7266 52.0234 17.0938 51.7266 17.5469 51.6016C18 51.4609 18.4453 51.5156 18.8828 51.7656C19.3203 52.0312 19.5938 52.3984 19.7031 52.8672C19.8281 53.3359 19.7578 53.7891 19.4922 54.2266L15.4375 61.2578ZM22.4922 69.8594C22.2422 70.2969 21.8906 70.5781 21.4375 70.7031C21 70.8438 20.5625 70.7969 20.125 70.5625C19.6875 70.2969 19.4141 69.9297 19.3047 69.4609C19.1953 68.9922 19.2656 68.5391 19.5156 68.1016L28.5391 52.4688C28.8047 52.0156 29.1641 51.7266 29.6172 51.6016C30.0859 51.4609 30.5312 51.5234 30.9531 51.7891C31.3906 52.0391 31.6641 52.3906 31.7734 52.8438C31.8828 53.3125 31.8125 53.7656 31.5625 54.2031L22.4922 69.8594ZM39.4844 61.2344C39.2344 61.6719 38.875 61.9609 38.4062 62.1016C37.9531 62.2578 37.5078 62.2031 37.0703 61.9375C36.6172 61.6875 36.3359 61.3281 36.2266 60.8594C36.1172 60.4062 36.1875 59.9688 36.4375 59.5469L40.5156 52.4453C40.7969 52.0078 41.1562 51.7266 41.5938 51.6016C42.0469 51.4609 42.5 51.5078 42.9531 51.7422C43.3906 52.0078 43.6641 52.375 43.7734 52.8438C43.8984 53.3125 43.8281 53.7656 43.5625 54.2031L39.4844 61.2344ZM46.5625 69.8359C46.3125 70.2734 45.9609 70.5547 45.5078 70.6797C45.0703 70.8203 44.6328 70.7734 44.1953 70.5391C43.7578 70.2734 43.4844 69.9062 43.375 69.4375C43.2656 68.9688 43.3359 68.5156 43.5859 68.0781L52.5859 52.4453C52.8672 51.9922 53.2344 51.7031 53.6875 51.5781C54.1562 51.4375 54.6016 51.5 55.0234 51.7656C55.4453 52.0156 55.7109 52.3672 55.8203 52.8203C55.9453 53.2891 55.875 53.7422 55.6094 54.1797L46.5625 69.8359Z"
                                    fill="#155042" />
                            </svg>