<svg width="660" height="436" viewBox="0 0 660 436" fill="none" xmlns="http://www.w3.org/2000/svg">
<g filter="url(#filter0_d_39_2734)">
<rect x="7" width="648.485" height="428" rx="32" fill="#FFFDF5"/>
<rect x="7.5" y="0.5" width="647.485" height="427" rx="31.5" stroke="#3C3C43" stroke-opacity="0.36"/>
<line x1="179.812" y1="-2.18557e-08" x2="179.812" y2="370.563" stroke="#3C3C43" stroke-opacity="0.36"/>
<line x1="355.829" y1="-2.18557e-08" x2="355.829" y2="370.563" stroke="#3C3C43" stroke-opacity="0.36"/>
<line x1="531.846" y1="-2.18557e-08" x2="531.846" y2="370.563" stroke="#3C3C43" stroke-opacity="0.36"/>
<line x1="557.786" y1="-2.18557e-08" x2="557.786" y2="428" stroke="#3C3C43" stroke-opacity="0.36"/>
<path d="M7 48.1733L655.485 48.1734" stroke="#3C3C43" stroke-opacity="0.36"/>
<path d="M7 174.165L557.286 174.165" stroke="#3C3C43" stroke-opacity="0.36"/>
<path d="M7 309.42L557.286 309.42" stroke="#3C3C43" stroke-opacity="0.36"/>
<path d="M7 370.563L557.286 370.563" stroke="#3C3C43" stroke-opacity="0.36"/>
<path d="M56.1984 385.8C56.1984 388.188 54.7824 390.132 52.5024 390.132C50.2104 390.132 48.8184 388.188 48.8184 385.8C48.8184 383.4 50.2104 381.468 52.5024 381.468C54.7824 381.468 56.1984 383.4 56.1984 385.8ZM54.7104 385.8C54.7104 384.096 53.8704 382.728 52.5024 382.728C51.1344 382.728 50.3064 384.096 50.3064 385.8C50.3064 387.504 51.1344 388.86 52.5024 388.86C53.8704 388.86 54.7104 387.504 54.7104 385.8ZM65.0297 385.8C65.0297 388.188 63.6137 390.132 61.3337 390.132C59.0417 390.132 57.6497 388.188 57.6497 385.8C57.6497 383.4 59.0417 381.468 61.3337 381.468C63.6137 381.468 65.0297 383.4 65.0297 385.8ZM63.5417 385.8C63.5417 384.096 62.7017 382.728 61.3337 382.728C59.9657 382.728 59.1377 384.096 59.1377 385.8C59.1377 387.504 59.9657 388.86 61.3337 388.86C62.7017 388.86 63.5417 387.504 63.5417 385.8Z" fill="#3C3C43" fill-opacity="0.36"/>
<path d="M192.198 385.8C192.198 388.188 190.782 390.132 188.502 390.132C186.21 390.132 184.818 388.188 184.818 385.8C184.818 383.4 186.21 381.468 188.502 381.468C190.782 381.468 192.198 383.4 192.198 385.8ZM190.71 385.8C190.71 384.096 189.87 382.728 188.502 382.728C187.134 382.728 186.306 384.096 186.306 385.8C186.306 387.504 187.134 388.86 188.502 388.86C189.87 388.86 190.71 387.504 190.71 385.8ZM201.03 385.8C201.03 388.188 199.614 390.132 197.334 390.132C195.042 390.132 193.65 388.188 193.65 385.8C193.65 383.4 195.042 381.468 197.334 381.468C199.614 381.468 201.03 383.4 201.03 385.8ZM199.542 385.8C199.542 384.096 198.702 382.728 197.334 382.728C195.966 382.728 195.138 384.096 195.138 385.8C195.138 387.504 195.966 388.86 197.334 388.86C198.702 388.86 199.542 387.504 199.542 385.8Z" fill="#3C3C43" fill-opacity="0.36"/>
<path d="M367.198 385.8C367.198 388.188 365.782 390.132 363.502 390.132C361.21 390.132 359.818 388.188 359.818 385.8C359.818 383.4 361.21 381.468 363.502 381.468C365.782 381.468 367.198 383.4 367.198 385.8ZM365.71 385.8C365.71 384.096 364.87 382.728 363.502 382.728C362.134 382.728 361.306 384.096 361.306 385.8C361.306 387.504 362.134 388.86 363.502 388.86C364.87 388.86 365.71 387.504 365.71 385.8ZM376.03 385.8C376.03 388.188 374.614 390.132 372.334 390.132C370.042 390.132 368.65 388.188 368.65 385.8C368.65 383.4 370.042 381.468 372.334 381.468C374.614 381.468 376.03 383.4 376.03 385.8ZM374.542 385.8C374.542 384.096 373.702 382.728 372.334 382.728C370.966 382.728 370.138 384.096 370.138 385.8C370.138 387.504 370.966 388.86 372.334 388.86C373.702 388.86 374.542 387.504 374.542 385.8Z" fill="#3C3C43" fill-opacity="0.36"/>
<path d="M522.198 385.8C522.198 388.188 520.782 390.132 518.502 390.132C516.21 390.132 514.818 388.188 514.818 385.8C514.818 383.4 516.21 381.468 518.502 381.468C520.782 381.468 522.198 383.4 522.198 385.8ZM520.71 385.8C520.71 384.096 519.87 382.728 518.502 382.728C517.134 382.728 516.306 384.096 516.306 385.8C516.306 387.504 517.134 388.86 518.502 388.86C519.87 388.86 520.71 387.504 520.71 385.8ZM531.03 385.8C531.03 388.188 529.614 390.132 527.334 390.132C525.042 390.132 523.65 388.188 523.65 385.8C523.65 383.4 525.042 381.468 527.334 381.468C529.614 381.468 531.03 383.4 531.03 385.8ZM529.542 385.8C529.542 384.096 528.702 382.728 527.334 382.728C525.966 382.728 525.138 384.096 525.138 385.8C525.138 387.504 525.966 388.86 527.334 388.86C528.702 388.86 529.542 387.504 529.542 385.8Z" fill="#3C3C43" fill-opacity="0.36"/>
<path d="M576.59 80.848C577.838 80.848 578.546 79.984 578.546 79.216C578.546 78.316 577.778 77.692 576.854 77.692C576.638 77.692 576.11 77.74 575.69 78.004L575.054 77.188L577.634 74.836H574.01V73.6H579.782V74.5L577.37 76.624C578.774 76.636 580.046 77.728 580.046 79.204C580.046 80.8 578.762 82.132 576.578 82.132C575.258 82.132 574.25 81.748 573.59 81.148L574.382 80.188C575.258 80.764 575.87 80.848 576.59 80.848ZM585.197 74.764C584.069 74.764 583.049 75.832 583.001 77.572C583.013 77.572 583.025 77.572 583.025 77.572C583.421 76.804 584.321 76.468 585.113 76.468C586.649 76.468 588.137 77.536 588.137 79.288C588.137 80.932 586.841 82.132 584.957 82.132C582.809 82.132 581.525 80.452 581.525 77.992C581.525 75.484 582.785 73.468 585.161 73.468C586.265 73.468 587.225 73.9 587.789 74.548L586.853 75.4C586.409 74.908 585.689 74.764 585.197 74.764ZM584.921 77.692C583.853 77.692 583.157 78.376 583.157 79.24C583.157 80.128 583.889 80.848 584.909 80.848C585.857 80.848 586.637 80.2 586.637 79.276C586.637 78.328 585.917 77.692 584.921 77.692ZM589.393 75.376C589.393 74.236 590.293 73.324 591.445 73.324C592.609 73.324 593.497 74.236 593.497 75.376C593.497 76.492 592.609 77.392 591.445 77.392C590.293 77.392 589.393 76.492 589.393 75.376ZM590.353 75.376C590.353 76.012 590.809 76.504 591.445 76.504C592.093 76.504 592.549 76.012 592.549 75.376C592.549 74.728 592.093 74.212 591.445 74.212C590.809 74.212 590.353 74.728 590.353 75.376Z" fill="#3C3C43" fill-opacity="0.36"/>
<path d="M576.59 136.848C577.838 136.848 578.546 135.984 578.546 135.216C578.546 134.316 577.778 133.692 576.854 133.692C576.638 133.692 576.11 133.74 575.69 134.004L575.054 133.188L577.634 130.836H574.01V129.6H579.782V130.5L577.37 132.624C578.774 132.636 580.046 133.728 580.046 135.204C580.046 136.8 578.762 138.132 576.578 138.132C575.258 138.132 574.25 137.748 573.59 137.148L574.382 136.188C575.258 136.764 575.87 136.848 576.59 136.848ZM584.285 136.848C585.533 136.848 586.241 135.984 586.241 135.216C586.241 134.316 585.473 133.692 584.549 133.692C584.333 133.692 583.805 133.74 583.385 134.004L582.749 133.188L585.329 130.836H581.705V129.6H587.477V130.5L585.065 132.624C586.469 132.636 587.741 133.728 587.741 135.204C587.741 136.8 586.457 138.132 584.273 138.132C582.953 138.132 581.945 137.748 581.285 137.148L582.077 136.188C582.953 136.764 583.565 136.848 584.285 136.848ZM589.111 131.376C589.111 130.236 590.011 129.324 591.163 129.324C592.327 129.324 593.215 130.236 593.215 131.376C593.215 132.492 592.327 133.392 591.163 133.392C590.011 133.392 589.111 132.492 589.111 131.376ZM590.071 131.376C590.071 132.012 590.527 132.504 591.163 132.504C591.811 132.504 592.267 132.012 592.267 131.376C592.267 130.728 591.811 130.212 591.163 130.212C590.527 130.212 590.071 130.728 590.071 131.376Z" fill="#3C3C43" fill-opacity="0.36"/>
<path d="M576.59 192.848C577.838 192.848 578.546 191.984 578.546 191.216C578.546 190.316 577.778 189.692 576.854 189.692C576.638 189.692 576.11 189.74 575.69 190.004L575.054 189.188L577.634 186.836H574.01V185.6H579.782V186.5L577.37 188.624C578.774 188.636 580.046 189.728 580.046 191.204C580.046 192.8 578.762 194.132 576.578 194.132C575.258 194.132 574.25 193.748 573.59 193.148L574.382 192.188C575.258 192.764 575.87 192.848 576.59 192.848ZM588.893 189.8C588.893 192.188 587.477 194.132 585.197 194.132C582.905 194.132 581.513 192.188 581.513 189.8C581.513 187.4 582.905 185.468 585.197 185.468C587.477 185.468 588.893 187.4 588.893 189.8ZM587.405 189.8C587.405 188.096 586.565 186.728 585.197 186.728C583.829 186.728 583.001 188.096 583.001 189.8C583.001 191.504 583.829 192.86 585.197 192.86C586.565 192.86 587.405 191.504 587.405 189.8ZM590.248 187.376C590.248 186.236 591.148 185.324 592.3 185.324C593.464 185.324 594.352 186.236 594.352 187.376C594.352 188.492 593.464 189.392 592.3 189.392C591.148 189.392 590.248 188.492 590.248 187.376ZM591.208 187.376C591.208 188.012 591.664 188.504 592.3 188.504C592.948 188.504 593.404 188.012 593.404 187.376C593.404 186.728 592.948 186.212 592.3 186.212C591.664 186.212 591.208 186.728 591.208 187.376Z" fill="#3C3C43" fill-opacity="0.36"/>
<path d="M578.174 245.976L576.074 247.812C576.074 247.812 576.074 247.824 576.074 247.836C576.53 247.788 577.562 247.776 577.682 247.776H580.106V249H574.01L573.842 248.064L577.19 245.016C577.79 244.5 578.342 243.852 578.342 243.132C578.342 242.268 577.742 241.752 576.806 241.752C575.558 241.752 575.246 242.544 575.246 243.096H573.77C573.77 242.076 574.49 240.468 576.806 240.468C578.618 240.468 579.806 241.5 579.806 243.12C579.806 244.416 578.966 245.28 578.174 245.976ZM582.93 245.58H585.366V242.892L582.93 245.58ZM585.366 246.828H581.178V245.892L585.882 240.6H586.854V245.58H588.606V246.828H586.854V249H585.366V246.828ZM589.709 242.376C589.709 241.236 590.609 240.324 591.761 240.324C592.925 240.324 593.813 241.236 593.813 242.376C593.813 243.492 592.925 244.392 591.761 244.392C590.609 244.392 589.709 243.492 589.709 242.376ZM590.669 242.376C590.669 243.012 591.125 243.504 591.761 243.504C592.409 243.504 592.865 243.012 592.865 242.376C592.865 241.728 592.409 241.212 591.761 241.212C591.125 241.212 590.669 241.728 590.669 242.376Z" fill="#3C3C43" fill-opacity="0.36"/>
<path d="M573.758 299.12L573.386 297.932L576.29 296.6H577.094V305H575.606V298.352L573.758 299.12ZM582.189 300.068H582.237C583.281 300.068 583.773 299.42 583.773 298.832C583.773 298.22 583.161 297.728 582.213 297.728C581.265 297.728 580.665 298.22 580.665 298.832C580.665 299.42 581.133 300.068 582.189 300.068ZM582.213 301.124C580.929 301.124 580.317 301.772 580.317 302.492C580.317 303.248 581.073 303.86 582.213 303.86C583.365 303.86 584.121 303.248 584.121 302.492C584.121 301.784 583.509 301.124 582.261 301.124H582.213ZM582.213 305.132C580.233 305.132 578.805 304.052 578.805 302.492C578.805 301.676 579.453 300.812 580.377 300.5C579.657 300.212 579.153 299.504 579.153 298.832C579.153 297.44 580.425 296.468 582.213 296.468C584.001 296.468 585.273 297.44 585.273 298.832C585.273 299.504 584.781 300.212 584.061 300.5C584.985 300.812 585.621 301.676 585.621 302.492C585.621 304.052 584.205 305.132 582.213 305.132ZM586.955 298.376C586.955 297.236 587.855 296.324 589.007 296.324C590.171 296.324 591.059 297.236 591.059 298.376C591.059 299.492 590.171 300.392 589.007 300.392C587.855 300.392 586.955 299.492 586.955 298.376ZM587.915 298.376C587.915 299.012 588.371 299.504 589.007 299.504C589.655 299.504 590.111 299.012 590.111 298.376C590.111 297.728 589.655 297.212 589.007 297.212C588.371 297.212 587.915 297.728 587.915 298.376Z" fill="#3C3C43" fill-opacity="0.36"/>
<path d="M573.758 354.12L573.386 352.932L576.29 351.6H577.094V360H575.606V353.352L573.758 354.12ZM583.185 356.976L581.085 358.812C581.085 358.812 581.085 358.824 581.085 358.836C581.541 358.788 582.573 358.776 582.693 358.776H585.117V360H579.021L578.853 359.064L582.201 356.016C582.801 355.5 583.353 354.852 583.353 354.132C583.353 353.268 582.753 352.752 581.817 352.752C580.569 352.752 580.257 353.544 580.257 354.096H578.781C578.781 353.076 579.501 351.468 581.817 351.468C583.629 351.468 584.817 352.5 584.817 354.12C584.817 355.416 583.977 356.28 583.185 356.976ZM586.404 353.376C586.404 352.236 587.304 351.324 588.456 351.324C589.62 351.324 590.508 352.236 590.508 353.376C590.508 354.492 589.62 355.392 588.456 355.392C587.304 355.392 586.404 354.492 586.404 353.376ZM587.364 353.376C587.364 354.012 587.82 354.504 588.456 354.504C589.104 354.504 589.56 354.012 589.56 353.376C589.56 352.728 589.104 352.212 588.456 352.212C587.82 352.212 587.364 352.728 587.364 353.376Z" fill="#3C3C43" fill-opacity="0.36"/>
<path d="M14.2424 288.544L173.027 296C218.878 241.631 318.149 132.519 348.429 131.028C378.709 129.536 401.983 189.4 421.463 218.135L508.137 296H565.242" stroke="#CFCFCF" stroke-width="5" stroke-linecap="round" stroke-linejoin="round"/>
<path d="M7.24243 288.544L165.739 296C211.506 241.63 310.598 132.517 340.823 131.026C371.047 129.534 393.393 194.482 401.687 225.55L500.241 296H557.242" stroke="url(#paint0_linear_39_2734)" stroke-width="5" stroke-linecap="round" stroke-linejoin="round"/>
<path d="M154.242 296.5C154.242 299.976 151.006 303 146.742 303C142.479 303 139.242 299.976 139.242 296.5C139.242 293.024 142.479 290 146.742 290C151.006 290 154.242 293.024 154.242 296.5Z" stroke="#FFFDF5" stroke-width="2"/>
<path d="M346.242 131.5C346.242 135.03 343.17 138 339.242 138C335.315 138 332.242 135.03 332.242 131.5C332.242 127.97 335.315 125 339.242 125C343.17 125 346.242 127.97 346.242 131.5Z" stroke="#FFFDF5" stroke-width="2"/>
<path d="M315.252 105V102.21C315.252 101.33 314.902 100.87 314.312 100.87C313.752 100.87 313.202 101.3 313.172 102.41V105H311.942V99.94H313.172V100.79C313.442 100.17 314.012 99.83 314.662 99.83C315.292 99.83 315.912 100.08 316.242 100.78C316.642 99.97 317.352 99.83 317.902 99.83C319.212 99.83 319.782 100.74 319.782 102.2V105H318.552V102.21C318.552 101.33 318.202 100.87 317.612 100.87C317.052 100.87 316.502 101.3 316.472 102.41V105H315.252ZM325.292 99.94H326.522V105H325.292V104.24C324.932 104.79 324.302 105.11 323.562 105.11C322.062 105.11 321.082 103.93 321.082 102.45C321.082 101.02 322.022 99.83 323.572 99.83C324.252 99.83 324.882 100.11 325.292 100.69V99.94ZM322.322 102.46C322.322 103.36 322.892 104.08 323.812 104.08C324.652 104.08 325.322 103.51 325.322 102.51C325.322 101.53 324.692 100.86 323.782 100.86C322.852 100.86 322.322 101.59 322.322 102.46ZM324.212 97.64H325.542L324.242 99.25H323.282L324.212 97.64ZM330.466 103.2L329.026 105H327.606V104.88L329.696 102.38L327.766 100.04V99.94H329.186L330.466 101.57L331.746 99.94H333.166V100.04L331.236 102.38L333.326 104.88V105H331.906L330.466 103.2Z" fill="#565656"/>
<path d="M122.252 267V264.21C122.252 263.33 121.902 262.87 121.312 262.87C120.752 262.87 120.202 263.3 120.172 264.41V267H118.942V261.94H120.172V262.79C120.442 262.17 121.012 261.83 121.662 261.83C122.292 261.83 122.912 262.08 123.242 262.78C123.642 261.97 124.352 261.83 124.902 261.83C126.212 261.83 126.782 262.74 126.782 264.2V267H125.552V264.21C125.552 263.33 125.202 262.87 124.612 262.87C124.052 262.87 123.502 263.3 123.472 264.41V267H122.252ZM129.662 267H128.432V261.94H129.662V267ZM129.362 259.64H130.692L129.402 261.25H128.432L129.362 259.64ZM131.378 267V261.94H132.608V262.79C132.928 262.13 133.528 261.83 134.248 261.83C135.508 261.83 136.118 262.74 136.118 264.2V267H134.888V264.21C134.888 263.33 134.518 262.87 133.908 262.87C133.188 262.87 132.608 263.41 132.608 264.47V267H131.378Z" fill="#565656"/>
</g>
<defs>
<filter id="filter0_d_39_2734" x="0" y="0" width="660" height="436" filterUnits="userSpaceOnUse" color-interpolation-filters="sRGB">
<feFlood flood-opacity="0" result="BackgroundImageFix"/>
<feColorMatrix in="SourceAlpha" type="matrix" values="0 0 0 0 0 0 0 0 0 0 0 0 0 0 0 0 0 0 127 0" result="hardAlpha"/>
<feOffset dy="4"/>
<feGaussianBlur stdDeviation="2"/>
<feComposite in2="hardAlpha" operator="out"/>
<feColorMatrix type="matrix" values="0 0 0 0 0 0 0 0 0 0 0 0 0 0 0 0 0 0 0.25 0"/>
<feBlend mode="normal" in2="BackgroundImageFix" result="effect1_dropShadow_39_2734"/>
<feBlend mode="normal" in="SourceGraphic" in2="effect1_dropShadow_39_2734" result="shape"/>
</filter>
<linearGradient id="paint0_linear_39_2734" x1="164.818" y1="146.87" x2="447.717" y2="151.426" gradientUnits="userSpaceOnUse">
<stop stop-color="#FFCD5E"/>
<stop offset="0.31" stop-color="#F99E18"/>
<stop offset="1" stop-color="#FFCD5E"/>
</linearGradient>
</defs>
</svg>
