<svg width="1298" height="548" viewBox="0 0 1298 548" fill="none" xmlns="http://www.w3.org/2000/svg">
<rect width="1298" height="548" rx="54" fill="#FFFDF5"/>
<path d="M12 191H1298" stroke="#3C3C43" stroke-opacity="0.36"/>
<path d="M59.36 492.52H64.24V494H57.54V480.06H59.36V492.52ZM76.1728 488.1C76.1728 488.447 76.1528 488.813 76.1128 489.2H67.3528C67.4195 490.28 67.7861 491.127 68.4528 491.74C69.1328 492.34 69.9528 492.64 70.9128 492.64C71.6995 492.64 72.3528 492.46 72.8728 492.1C73.4061 491.727 73.7795 491.233 73.9928 490.62H75.9528C75.6595 491.673 75.0728 492.533 74.1928 493.2C73.3128 493.853 72.2195 494.18 70.9128 494.18C69.8728 494.18 68.9395 493.947 68.1128 493.48C67.2995 493.013 66.6595 492.353 66.1928 491.5C65.7261 490.633 65.4928 489.633 65.4928 488.5C65.4928 487.367 65.7195 486.373 66.1728 485.52C66.6261 484.667 67.2595 484.013 68.0728 483.56C68.8995 483.093 69.8461 482.86 70.9128 482.86C71.9528 482.86 72.8728 483.087 73.6728 483.54C74.4728 483.993 75.0861 484.62 75.5128 485.42C75.9528 486.207 76.1728 487.1 76.1728 488.1ZM74.2928 487.72C74.2928 487.027 74.1395 486.433 73.8328 485.94C73.5261 485.433 73.1061 485.053 72.5728 484.8C72.0528 484.533 71.4728 484.4 70.8328 484.4C69.9128 484.4 69.1261 484.693 68.4728 485.28C67.8328 485.867 67.4661 486.68 67.3728 487.72H74.2928ZM83.9152 482.84C85.2485 482.84 86.3285 483.247 87.1552 484.06C87.9818 484.86 88.3952 486.02 88.3952 487.54V494H86.5952V487.8C86.5952 486.707 86.3218 485.873 85.7752 485.3C85.2285 484.713 84.4818 484.42 83.5352 484.42C82.5752 484.42 81.8085 484.72 81.2352 485.32C80.6752 485.92 80.3952 486.793 80.3952 487.94V494H78.5752V483.04H80.3952V484.6C80.7552 484.04 81.2418 483.607 81.8552 483.3C82.4818 482.993 83.1685 482.84 83.9152 482.84ZM95.8881 482.86C96.8348 482.86 97.6615 483.067 98.3681 483.48C99.0881 483.893 99.6215 484.413 99.9681 485.04V483.04H101.808V494.24C101.808 495.24 101.595 496.127 101.168 496.9C100.741 497.687 100.128 498.3 99.3281 498.74C98.5415 499.18 97.6215 499.4 96.5681 499.4C95.1281 499.4 93.9281 499.06 92.9681 498.38C92.0081 497.7 91.4415 496.773 91.2681 495.6H93.0681C93.2681 496.267 93.6815 496.8 94.3081 497.2C94.9348 497.613 95.6881 497.82 96.5681 497.82C97.5681 497.82 98.3815 497.507 99.0081 496.88C99.6481 496.253 99.9681 495.373 99.9681 494.24V491.94C99.6081 492.58 99.0748 493.113 98.3681 493.54C97.6615 493.967 96.8348 494.18 95.8881 494.18C94.9148 494.18 94.0281 493.94 93.2281 493.46C92.4415 492.98 91.8215 492.307 91.3681 491.44C90.9148 490.573 90.6881 489.587 90.6881 488.48C90.6881 487.36 90.9148 486.38 91.3681 485.54C91.8215 484.687 92.4415 484.027 93.2281 483.56C94.0281 483.093 94.9148 482.86 95.8881 482.86ZM99.9681 488.5C99.9681 487.673 99.8015 486.953 99.4681 486.34C99.1348 485.727 98.6815 485.26 98.1081 484.94C97.5481 484.607 96.9281 484.44 96.2481 484.44C95.5681 484.44 94.9481 484.6 94.3881 484.92C93.8281 485.24 93.3815 485.707 93.0481 486.32C92.7148 486.933 92.5481 487.653 92.5481 488.48C92.5481 489.32 92.7148 490.053 93.0481 490.68C93.3815 491.293 93.8281 491.767 94.3881 492.1C94.9481 492.42 95.5681 492.58 96.2481 492.58C96.9281 492.58 97.5481 492.42 98.1081 492.1C98.6815 491.767 99.1348 491.293 99.4681 490.68C99.8015 490.053 99.9681 489.327 99.9681 488.5ZM107.104 484.54V491C107.104 491.533 107.217 491.913 107.444 492.14C107.67 492.353 108.064 492.46 108.624 492.46H109.964V494H108.324C107.31 494 106.55 493.767 106.044 493.3C105.537 492.833 105.284 492.067 105.284 491V484.54H103.864V483.04H105.284V480.28H107.104V483.04H109.964V484.54H107.104ZM117.609 482.84C118.436 482.84 119.182 483.02 119.849 483.38C120.516 483.727 121.036 484.253 121.409 484.96C121.796 485.667 121.989 486.527 121.989 487.54V494H120.189V487.8C120.189 486.707 119.916 485.873 119.369 485.3C118.822 484.713 118.076 484.42 117.129 484.42C116.169 484.42 115.402 484.72 114.829 485.32C114.269 485.92 113.989 486.793 113.989 487.94V494H112.169V479.2H113.989V484.6C114.349 484.04 114.842 483.607 115.469 483.3C116.109 482.993 116.822 482.84 117.609 482.84ZM135.074 494.18C134.047 494.18 133.114 493.947 132.274 493.48C131.447 493.013 130.794 492.353 130.314 491.5C129.847 490.633 129.614 489.633 129.614 488.5C129.614 487.38 129.854 486.393 130.334 485.54C130.827 484.673 131.494 484.013 132.334 483.56C133.174 483.093 134.114 482.86 135.154 482.86C136.194 482.86 137.134 483.093 137.974 483.56C138.814 484.013 139.474 484.667 139.954 485.52C140.447 486.373 140.694 487.367 140.694 488.5C140.694 489.633 140.441 490.633 139.934 491.5C139.441 492.353 138.767 493.013 137.914 493.48C137.061 493.947 136.114 494.18 135.074 494.18ZM135.074 492.58C135.727 492.58 136.341 492.427 136.914 492.12C137.487 491.813 137.947 491.353 138.294 490.74C138.654 490.127 138.834 489.38 138.834 488.5C138.834 487.62 138.661 486.873 138.314 486.26C137.967 485.647 137.514 485.193 136.954 484.9C136.394 484.593 135.787 484.44 135.134 484.44C134.467 484.44 133.854 484.593 133.294 484.9C132.747 485.193 132.307 485.647 131.974 486.26C131.641 486.873 131.474 487.62 131.474 488.5C131.474 489.393 131.634 490.147 131.954 490.76C132.287 491.373 132.727 491.833 133.274 492.14C133.821 492.433 134.421 492.58 135.074 492.58ZM147.547 484.54H145.247V494H143.427V484.54H142.007V483.04H143.427V482.26C143.427 481.033 143.74 480.14 144.367 479.58C145.007 479.007 146.027 478.72 147.427 478.72V480.24C146.627 480.24 146.06 480.4 145.727 480.72C145.407 481.027 145.247 481.54 145.247 482.26V483.04H147.547V484.54ZM154.321 488.48C154.321 487.36 154.548 486.38 155.001 485.54C155.454 484.687 156.074 484.027 156.861 483.56C157.661 483.093 158.554 482.86 159.541 482.86C160.394 482.86 161.188 483.06 161.921 483.46C162.654 483.847 163.214 484.36 163.601 485V479.2H165.441V494H163.601V491.94C163.241 492.593 162.708 493.133 162.001 493.56C161.294 493.973 160.468 494.18 159.521 494.18C158.548 494.18 157.661 493.94 156.861 493.46C156.074 492.98 155.454 492.307 155.001 491.44C154.548 490.573 154.321 489.587 154.321 488.48ZM163.601 488.5C163.601 487.673 163.434 486.953 163.101 486.34C162.768 485.727 162.314 485.26 161.741 484.94C161.181 484.607 160.561 484.44 159.881 484.44C159.201 484.44 158.581 484.6 158.021 484.92C157.461 485.24 157.014 485.707 156.681 486.32C156.348 486.933 156.181 487.653 156.181 488.48C156.181 489.32 156.348 490.053 156.681 490.68C157.014 491.293 157.461 491.767 158.021 492.1C158.581 492.42 159.201 492.58 159.881 492.58C160.561 492.58 161.181 492.42 161.741 492.1C162.314 491.767 162.768 491.293 163.101 490.68C163.434 490.053 163.601 489.327 163.601 488.5ZM167.837 488.48C167.837 487.36 168.063 486.38 168.517 485.54C168.97 484.687 169.59 484.027 170.377 483.56C171.177 483.093 172.063 482.86 173.037 482.86C173.997 482.86 174.83 483.067 175.537 483.48C176.243 483.893 176.77 484.413 177.117 485.04V483.04H178.957V494H177.117V491.96C176.757 492.6 176.217 493.133 175.497 493.56C174.79 493.973 173.963 494.18 173.017 494.18C172.043 494.18 171.163 493.94 170.377 493.46C169.59 492.98 168.97 492.307 168.517 491.44C168.063 490.573 167.837 489.587 167.837 488.48ZM177.117 488.5C177.117 487.673 176.95 486.953 176.617 486.34C176.283 485.727 175.83 485.26 175.257 484.94C174.697 484.607 174.077 484.44 173.397 484.44C172.717 484.44 172.097 484.6 171.537 484.92C170.977 485.24 170.53 485.707 170.197 486.32C169.863 486.933 169.697 487.653 169.697 488.48C169.697 489.32 169.863 490.053 170.197 490.68C170.53 491.293 170.977 491.767 171.537 492.1C172.097 492.42 172.717 492.58 173.397 492.58C174.077 492.58 174.697 492.42 175.257 492.1C175.83 491.767 176.283 491.293 176.617 490.68C176.95 490.053 177.117 489.327 177.117 488.5ZM191.472 483.04L184.872 499.16H182.992L185.152 493.88L180.732 483.04H182.752L186.192 491.92L189.592 483.04H191.472ZM193.882 494.12C193.535 494.12 193.242 494 193.002 493.76C192.762 493.52 192.642 493.227 192.642 492.88C192.642 492.533 192.762 492.24 193.002 492C193.242 491.76 193.535 491.64 193.882 491.64C194.215 491.64 194.495 491.76 194.722 492C194.962 492.24 195.082 492.533 195.082 492.88C195.082 493.227 194.962 493.52 194.722 493.76C194.495 494 194.215 494.12 193.882 494.12ZM193.882 485.56C193.535 485.56 193.242 485.44 193.002 485.2C192.762 484.96 192.642 484.667 192.642 484.32C192.642 483.973 192.762 483.68 193.002 483.44C193.242 483.2 193.535 483.08 193.882 483.08C194.215 483.08 194.495 483.2 194.722 483.44C194.962 483.68 195.082 483.973 195.082 484.32C195.082 484.667 194.962 484.96 194.722 485.2C194.495 485.44 194.215 485.56 193.882 485.56Z" fill="#9A9A9A"/>
<path d="M202.112 481.2V479.54H205.872V494H204.032V481.2H202.112ZM208.958 483.18C209.051 481.953 209.524 480.993 210.378 480.3C211.231 479.607 212.338 479.26 213.698 479.26C214.604 479.26 215.384 479.427 216.038 479.76C216.704 480.08 217.204 480.52 217.538 481.08C217.884 481.64 218.058 482.273 218.058 482.98C218.058 483.807 217.818 484.52 217.338 485.12C216.871 485.72 216.258 486.107 215.498 486.28V486.38C216.364 486.593 217.051 487.013 217.558 487.64C218.064 488.267 218.318 489.087 218.318 490.1C218.318 490.86 218.144 491.547 217.798 492.16C217.451 492.76 216.931 493.233 216.238 493.58C215.544 493.927 214.711 494.1 213.738 494.1C212.324 494.1 211.164 493.733 210.258 493C209.351 492.253 208.844 491.2 208.738 489.84H210.498C210.591 490.64 210.918 491.293 211.478 491.8C212.038 492.307 212.784 492.56 213.718 492.56C214.651 492.56 215.358 492.32 215.838 491.84C216.331 491.347 216.578 490.713 216.578 489.94C216.578 488.94 216.244 488.22 215.578 487.78C214.911 487.34 213.904 487.12 212.558 487.12H212.098V485.6H212.578C213.804 485.587 214.731 485.387 215.358 485C215.984 484.6 216.298 483.987 216.298 483.16C216.298 482.453 216.064 481.887 215.598 481.46C215.144 481.033 214.491 480.82 213.638 480.82C212.811 480.82 212.144 481.033 211.638 481.46C211.131 481.887 210.831 482.46 210.738 483.18H208.958ZM231.815 480.06V494H229.995V487.68H222.895V494H221.075V480.06H222.895V486.18H229.995V480.06H231.815ZM239.475 481.2V479.54H243.235V494H241.395V481.2H239.475ZM246.141 492.54C247.834 491.18 249.161 490.067 250.121 489.2C251.081 488.32 251.888 487.407 252.541 486.46C253.208 485.5 253.541 484.56 253.541 483.64C253.541 482.773 253.328 482.093 252.901 481.6C252.488 481.093 251.814 480.84 250.881 480.84C249.974 480.84 249.268 481.127 248.761 481.7C248.268 482.26 248.001 483.013 247.961 483.96H246.201C246.254 482.467 246.708 481.313 247.561 480.5C248.414 479.687 249.514 479.28 250.861 479.28C252.234 479.28 253.321 479.66 254.121 480.42C254.934 481.18 255.341 482.227 255.341 483.56C255.341 484.667 255.008 485.747 254.341 486.8C253.688 487.84 252.941 488.76 252.101 489.56C251.261 490.347 250.188 491.267 248.881 492.32H255.761V493.84H246.141V492.54ZM272.305 480.16V494H270.485V483.68L265.885 494H264.605L259.985 483.66V494H258.165V480.16H260.125L265.245 491.6L270.365 480.16H272.305Z" fill="#2C2C2C"/>
<path d="M189.931 233.168C188.827 233.168 187.835 232.976 186.955 232.592C186.091 232.192 185.411 231.648 184.915 230.96C184.419 230.256 184.163 229.448 184.147 228.536H186.475C186.555 229.32 186.875 229.984 187.435 230.528C188.011 231.056 188.843 231.32 189.931 231.32C190.971 231.32 191.787 231.064 192.379 230.552C192.987 230.024 193.291 229.352 193.291 228.536C193.291 227.896 193.115 227.376 192.763 226.976C192.411 226.576 191.971 226.272 191.443 226.064C190.915 225.856 190.203 225.632 189.307 225.392C188.203 225.104 187.315 224.816 186.643 224.528C185.987 224.24 185.419 223.792 184.939 223.184C184.475 222.56 184.243 221.728 184.243 220.688C184.243 219.776 184.475 218.968 184.939 218.264C185.403 217.56 186.051 217.016 186.883 216.632C187.731 216.248 188.699 216.056 189.787 216.056C191.355 216.056 192.635 216.448 193.627 217.232C194.635 218.016 195.203 219.056 195.331 220.352H192.931C192.851 219.712 192.515 219.152 191.923 218.672C191.331 218.176 190.547 217.928 189.571 217.928C188.659 217.928 187.915 218.168 187.339 218.648C186.763 219.112 186.475 219.768 186.475 220.616C186.475 221.224 186.643 221.72 186.979 222.104C187.331 222.488 187.755 222.784 188.251 222.992C188.763 223.184 189.475 223.408 190.387 223.664C191.491 223.968 192.379 224.272 193.051 224.576C193.723 224.864 194.299 225.32 194.779 225.944C195.259 226.552 195.499 227.384 195.499 228.44C195.499 229.256 195.283 230.024 194.851 230.744C194.419 231.464 193.779 232.048 192.931 232.496C192.083 232.944 191.083 233.168 189.931 233.168ZM210.377 219.848V233H208.193V231.056C207.777 231.728 207.193 232.256 206.441 232.64C205.705 233.008 204.889 233.192 203.993 233.192C202.969 233.192 202.049 232.984 201.233 232.568C200.417 232.136 199.769 231.496 199.289 230.648C198.825 229.8 198.593 228.768 198.593 227.552V219.848H200.753V227.264C200.753 228.56 201.081 229.56 201.737 230.264C202.393 230.952 203.289 231.296 204.425 231.296C205.593 231.296 206.513 230.936 207.185 230.216C207.857 229.496 208.193 228.448 208.193 227.072V219.848H210.377ZM220.473 219.608C222.073 219.608 223.369 220.096 224.361 221.072C225.353 222.032 225.849 223.424 225.849 225.248V233H223.689V225.56C223.689 224.248 223.361 223.248 222.705 222.56C222.049 221.856 221.153 221.504 220.017 221.504C218.865 221.504 217.945 221.864 217.257 222.584C216.585 223.304 216.249 224.352 216.249 225.728V233H214.065V219.848H216.249V221.72C216.681 221.048 217.265 220.528 218.001 220.16C218.753 219.792 219.577 219.608 220.473 219.608ZM231.6 221.984C231.984 221.232 232.528 220.648 233.232 220.232C233.952 219.816 234.824 219.608 235.848 219.608V221.864H235.272C232.824 221.864 231.6 223.192 231.6 225.848V233H229.416V219.848H231.6V221.984ZM239.497 217.712C239.081 217.712 238.729 217.568 238.441 217.28C238.153 216.992 238.009 216.64 238.009 216.224C238.009 215.808 238.153 215.456 238.441 215.168C238.729 214.88 239.081 214.736 239.497 214.736C239.897 214.736 240.233 214.88 240.505 215.168C240.793 215.456 240.937 215.808 240.937 216.224C240.937 216.64 240.793 216.992 240.505 217.28C240.233 217.568 239.897 217.712 239.497 217.712ZM240.553 219.848V233H238.369V219.848H240.553ZM248.932 233.216C247.924 233.216 247.02 233.048 246.22 232.712C245.42 232.36 244.788 231.88 244.324 231.272C243.86 230.648 243.604 229.936 243.556 229.136H245.812C245.876 229.792 246.18 230.328 246.724 230.744C247.284 231.16 248.012 231.368 248.908 231.368C249.74 231.368 250.396 231.184 250.876 230.816C251.356 230.448 251.596 229.984 251.596 229.424C251.596 228.848 251.34 228.424 250.828 228.152C250.316 227.864 249.524 227.584 248.452 227.312C247.476 227.056 246.676 226.8 246.052 226.544C245.444 226.272 244.916 225.88 244.468 225.368C244.036 224.84 243.82 224.152 243.82 223.304C243.82 222.632 244.02 222.016 244.42 221.456C244.82 220.896 245.388 220.456 246.124 220.136C246.86 219.8 247.7 219.632 248.644 219.632C250.1 219.632 251.276 220 252.172 220.736C253.068 221.472 253.548 222.48 253.612 223.76H251.428C251.38 223.072 251.1 222.52 250.588 222.104C250.092 221.688 249.42 221.48 248.572 221.48C247.788 221.48 247.164 221.648 246.7 221.984C246.236 222.32 246.004 222.76 246.004 223.304C246.004 223.736 246.14 224.096 246.412 224.384C246.7 224.656 247.052 224.88 247.468 225.056C247.9 225.216 248.492 225.4 249.244 225.608C250.188 225.864 250.956 226.12 251.548 226.376C252.14 226.616 252.644 226.984 253.06 227.48C253.492 227.976 253.716 228.624 253.732 229.424C253.732 230.144 253.532 230.792 253.132 231.368C252.732 231.944 252.164 232.4 251.428 232.736C250.708 233.056 249.876 233.216 248.932 233.216ZM268.815 225.92C268.815 226.336 268.791 226.776 268.743 227.24H258.231C258.311 228.536 258.751 229.552 259.551 230.288C260.367 231.008 261.351 231.368 262.503 231.368C263.447 231.368 264.231 231.152 264.855 230.72C265.495 230.272 265.943 229.68 266.199 228.944H268.551C268.199 230.208 267.495 231.24 266.439 232.04C265.383 232.824 264.071 233.216 262.503 233.216C261.255 233.216 260.135 232.936 259.143 232.376C258.167 231.816 257.399 231.024 256.839 230C256.279 228.96 255.999 227.76 255.999 226.4C255.999 225.04 256.271 223.848 256.815 222.824C257.359 221.8 258.119 221.016 259.095 220.472C260.087 219.912 261.223 219.632 262.503 219.632C263.751 219.632 264.855 219.904 265.815 220.448C266.775 220.992 267.511 221.744 268.023 222.704C268.551 223.648 268.815 224.72 268.815 225.92ZM266.559 225.464C266.559 224.632 266.375 223.92 266.007 223.328C265.639 222.72 265.135 222.264 264.495 221.96C263.871 221.64 263.175 221.48 262.407 221.48C261.303 221.48 260.359 221.832 259.575 222.536C258.807 223.24 258.367 224.216 258.255 225.464H266.559Z" fill="#155042"/>
<path d="M207.784 273.427C207.784 270.675 208.232 268.531 209.128 266.995C210.024 265.443 211.592 264.667 213.832 264.667C216.056 264.667 217.616 265.443 218.512 266.995C219.408 268.531 219.856 270.675 219.856 273.427C219.856 276.227 219.408 278.403 218.512 279.955C217.616 281.507 216.056 282.283 213.832 282.283C211.592 282.283 210.024 281.507 209.128 279.955C208.232 278.403 207.784 276.227 207.784 273.427ZM217.696 273.427C217.696 272.035 217.6 270.859 217.408 269.899C217.232 268.923 216.856 268.139 216.28 267.547C215.72 266.955 214.904 266.659 213.832 266.659C212.744 266.659 211.912 266.955 211.336 267.547C210.776 268.139 210.4 268.923 210.208 269.899C210.032 270.859 209.944 272.035 209.944 273.427C209.944 274.867 210.032 276.075 210.208 277.051C210.4 278.027 210.776 278.811 211.336 279.403C211.912 279.995 212.744 280.291 213.832 280.291C214.904 280.291 215.72 279.995 216.28 279.403C216.856 278.811 217.232 278.027 217.408 277.051C217.6 276.075 217.696 274.867 217.696 273.427ZM232.527 269.059C232.175 267.283 231.079 266.395 229.239 266.395C227.815 266.395 226.751 266.947 226.047 268.051C225.343 269.139 224.999 270.939 225.015 273.451C225.383 272.619 225.991 271.971 226.839 271.507C227.703 271.027 228.663 270.787 229.719 270.787C231.367 270.787 232.679 271.299 233.655 272.323C234.647 273.347 235.143 274.763 235.143 276.571C235.143 277.659 234.927 278.635 234.495 279.499C234.079 280.363 233.439 281.051 232.575 281.563C231.727 282.075 230.695 282.331 229.479 282.331C227.831 282.331 226.543 281.963 225.615 281.227C224.687 280.491 224.039 279.475 223.671 278.179C223.303 276.883 223.119 275.283 223.119 273.379C223.119 267.507 225.167 264.571 229.263 264.571C230.831 264.571 232.063 264.995 232.959 265.843C233.855 266.691 234.383 267.763 234.543 269.059H232.527ZM229.263 272.635C228.575 272.635 227.927 272.779 227.319 273.067C226.711 273.339 226.215 273.763 225.831 274.339C225.463 274.899 225.279 275.587 225.279 276.403C225.279 277.619 225.631 278.611 226.335 279.379C227.039 280.131 228.047 280.507 229.359 280.507C230.479 280.507 231.367 280.163 232.023 279.475C232.695 278.771 233.031 277.827 233.031 276.643C233.031 275.395 232.711 274.419 232.071 273.715C231.431 272.995 230.495 272.635 229.263 272.635ZM239.145 282.427C238.729 282.427 238.377 282.283 238.089 281.995C237.801 281.707 237.657 281.355 237.657 280.939C237.657 280.523 237.801 280.171 238.089 279.883C238.377 279.595 238.729 279.451 239.145 279.451C239.545 279.451 239.881 279.595 240.153 279.883C240.441 280.171 240.585 280.523 240.585 280.939C240.585 281.355 240.441 281.707 240.153 281.995C239.881 282.283 239.545 282.427 239.145 282.427ZM239.145 272.155C238.729 272.155 238.377 272.011 238.089 271.723C237.801 271.435 237.657 271.083 237.657 270.667C237.657 270.251 237.801 269.899 238.089 269.611C238.377 269.323 238.729 269.179 239.145 269.179C239.545 269.179 239.881 269.323 240.153 269.611C240.441 269.899 240.585 270.251 240.585 270.667C240.585 271.083 240.441 271.435 240.153 271.723C239.881 272.011 239.545 272.155 239.145 272.155ZM242.934 280.531C244.966 278.899 246.558 277.563 247.71 276.523C248.862 275.467 249.83 274.371 250.614 273.235C251.414 272.083 251.814 270.955 251.814 269.851C251.814 268.811 251.558 267.995 251.046 267.403C250.55 266.795 249.742 266.491 248.622 266.491C247.534 266.491 246.686 266.835 246.078 267.523C245.486 268.195 245.166 269.099 245.118 270.235H243.006C243.07 268.443 243.614 267.059 244.638 266.083C245.662 265.107 246.982 264.619 248.598 264.619C250.246 264.619 251.55 265.075 252.51 265.987C253.486 266.899 253.974 268.155 253.974 269.755C253.974 271.083 253.574 272.379 252.774 273.643C251.99 274.891 251.094 275.995 250.086 276.955C249.078 277.899 247.79 279.003 246.222 280.267H254.478V282.091H242.934V280.531ZM268.067 266.827H259.643V272.299C260.011 271.787 260.555 271.371 261.275 271.051C261.995 270.715 262.771 270.547 263.603 270.547C264.931 270.547 266.011 270.827 266.843 271.387C267.675 271.931 268.267 272.643 268.619 273.523C268.987 274.387 269.171 275.307 269.171 276.283C269.171 277.435 268.955 278.467 268.523 279.379C268.091 280.291 267.427 281.011 266.531 281.539C265.651 282.067 264.555 282.331 263.243 282.331C261.563 282.331 260.203 281.899 259.163 281.035C258.123 280.171 257.491 279.019 257.267 277.579H259.403C259.611 278.491 260.051 279.203 260.723 279.715C261.395 280.227 262.243 280.483 263.267 280.483C264.531 280.483 265.483 280.107 266.123 279.355C266.763 278.587 267.083 277.579 267.083 276.331C267.083 275.083 266.763 274.123 266.123 273.451C265.483 272.763 264.539 272.419 263.291 272.419C262.443 272.419 261.699 272.627 261.059 273.043C260.435 273.443 259.979 273.995 259.691 274.699H257.627V264.907H268.067V266.827ZM288.72 278.563H281.424L280.08 282.283H277.776L283.824 265.651H286.344L292.368 282.283H290.064L288.72 278.563ZM288.096 276.787L285.072 268.339L282.048 276.787H288.096ZM311.972 265.675V282.283H309.788V269.899L304.268 282.283H302.732L297.188 269.875V282.283H295.004V265.675H297.356L303.5 279.403L309.644 265.675H311.972Z" fill="#155042"/>
<line x1="258.483" y1="427.323" x2="258.483" y2="305.566" stroke="#155042" stroke-width="4" stroke-dasharray="2 2"/>
<line x1="56" y1="425.323" x2="1242" y2="425.323" stroke="#155042" stroke-width="4" stroke-dasharray="2 2"/>
<line x1="1027.34" y1="427.323" x2="1027.34" y2="305.566" stroke="#155042" stroke-width="4" stroke-dasharray="2 2"/>
<path d="M954.697 233.168C953.593 233.168 952.601 232.976 951.721 232.592C950.857 232.192 950.177 231.648 949.681 230.96C949.185 230.256 948.929 229.448 948.913 228.536H951.241C951.321 229.32 951.641 229.984 952.201 230.528C952.777 231.056 953.609 231.32 954.697 231.32C955.737 231.32 956.553 231.064 957.145 230.552C957.753 230.024 958.057 229.352 958.057 228.536C958.057 227.896 957.881 227.376 957.529 226.976C957.177 226.576 956.737 226.272 956.209 226.064C955.681 225.856 954.969 225.632 954.073 225.392C952.969 225.104 952.081 224.816 951.409 224.528C950.753 224.24 950.185 223.792 949.705 223.184C949.241 222.56 949.009 221.728 949.009 220.688C949.009 219.776 949.241 218.968 949.705 218.264C950.169 217.56 950.817 217.016 951.649 216.632C952.497 216.248 953.465 216.056 954.553 216.056C956.121 216.056 957.401 216.448 958.393 217.232C959.401 218.016 959.969 219.056 960.097 220.352H957.697C957.617 219.712 957.281 219.152 956.689 218.672C956.097 218.176 955.313 217.928 954.337 217.928C953.425 217.928 952.681 218.168 952.105 218.648C951.529 219.112 951.241 219.768 951.241 220.616C951.241 221.224 951.409 221.72 951.745 222.104C952.097 222.488 952.521 222.784 953.017 222.992C953.529 223.184 954.241 223.408 955.153 223.664C956.257 223.968 957.145 224.272 957.817 224.576C958.489 224.864 959.065 225.32 959.545 225.944C960.025 226.552 960.265 227.384 960.265 228.44C960.265 229.256 960.049 230.024 959.617 230.744C959.185 231.464 958.545 232.048 957.697 232.496C956.849 232.944 955.849 233.168 954.697 233.168ZM975.143 219.848V233H972.959V231.056C972.543 231.728 971.959 232.256 971.207 232.64C970.471 233.008 969.655 233.192 968.759 233.192C967.735 233.192 966.815 232.984 965.999 232.568C965.183 232.136 964.535 231.496 964.055 230.648C963.591 229.8 963.359 228.768 963.359 227.552V219.848H965.519V227.264C965.519 228.56 965.847 229.56 966.503 230.264C967.159 230.952 968.055 231.296 969.191 231.296C970.359 231.296 971.279 230.936 971.951 230.216C972.623 229.496 972.959 228.448 972.959 227.072V219.848H975.143ZM985.238 219.608C986.838 219.608 988.134 220.096 989.126 221.072C990.118 222.032 990.614 223.424 990.614 225.248V233H988.454V225.56C988.454 224.248 988.126 223.248 987.47 222.56C986.814 221.856 985.918 221.504 984.782 221.504C983.63 221.504 982.71 221.864 982.022 222.584C981.35 223.304 981.014 224.352 981.014 225.728V233H978.83V219.848H981.014V221.72C981.446 221.048 982.03 220.528 982.766 220.16C983.518 219.792 984.342 219.608 985.238 219.608ZM998.838 233.216C997.83 233.216 996.926 233.048 996.126 232.712C995.326 232.36 994.694 231.88 994.23 231.272C993.766 230.648 993.51 229.936 993.462 229.136H995.718C995.782 229.792 996.086 230.328 996.63 230.744C997.19 231.16 997.918 231.368 998.814 231.368C999.646 231.368 1000.3 231.184 1000.78 230.816C1001.26 230.448 1001.5 229.984 1001.5 229.424C1001.5 228.848 1001.25 228.424 1000.73 228.152C1000.22 227.864 999.43 227.584 998.358 227.312C997.382 227.056 996.582 226.8 995.958 226.544C995.35 226.272 994.822 225.88 994.374 225.368C993.942 224.84 993.726 224.152 993.726 223.304C993.726 222.632 993.926 222.016 994.326 221.456C994.726 220.896 995.294 220.456 996.03 220.136C996.766 219.8 997.606 219.632 998.55 219.632C1000.01 219.632 1001.18 220 1002.08 220.736C1002.97 221.472 1003.45 222.48 1003.52 223.76H1001.33C1001.29 223.072 1001.01 222.52 1000.49 222.104C999.998 221.688 999.326 221.48 998.478 221.48C997.694 221.48 997.07 221.648 996.606 221.984C996.142 222.32 995.91 222.76 995.91 223.304C995.91 223.736 996.046 224.096 996.318 224.384C996.606 224.656 996.958 224.88 997.374 225.056C997.806 225.216 998.398 225.4 999.15 225.608C1000.09 225.864 1000.86 226.12 1001.45 226.376C1002.05 226.616 1002.55 226.984 1002.97 227.48C1003.4 227.976 1003.62 228.624 1003.64 229.424C1003.64 230.144 1003.44 230.792 1003.04 231.368C1002.64 231.944 1002.07 232.4 1001.33 232.736C1000.61 233.056 999.782 233.216 998.838 233.216ZM1018.72 225.92C1018.72 226.336 1018.7 226.776 1018.65 227.24H1008.14C1008.22 228.536 1008.66 229.552 1009.46 230.288C1010.27 231.008 1011.26 231.368 1012.41 231.368C1013.35 231.368 1014.14 231.152 1014.76 230.72C1015.4 230.272 1015.85 229.68 1016.11 228.944H1018.46C1018.11 230.208 1017.4 231.24 1016.35 232.04C1015.29 232.824 1013.98 233.216 1012.41 233.216C1011.16 233.216 1010.04 232.936 1009.05 232.376C1008.07 231.816 1007.31 231.024 1006.75 230C1006.19 228.96 1005.91 227.76 1005.91 226.4C1005.91 225.04 1006.18 223.848 1006.72 222.824C1007.27 221.8 1008.03 221.016 1009 220.472C1009.99 219.912 1011.13 219.632 1012.41 219.632C1013.66 219.632 1014.76 219.904 1015.72 220.448C1016.68 220.992 1017.42 221.744 1017.93 222.704C1018.46 223.648 1018.72 224.72 1018.72 225.92ZM1016.47 225.464C1016.47 224.632 1016.28 223.92 1015.91 223.328C1015.55 222.72 1015.04 222.264 1014.4 221.96C1013.78 221.64 1013.08 221.48 1012.31 221.48C1011.21 221.48 1010.27 221.832 1009.48 222.536C1008.71 223.24 1008.27 224.216 1008.16 225.464H1016.47ZM1024.27 221.648V229.4C1024.27 230.04 1024.4 230.496 1024.68 230.768C1024.95 231.024 1025.42 231.152 1026.09 231.152H1027.7V233H1025.73C1024.52 233 1023.6 232.72 1023 232.16C1022.39 231.6 1022.08 230.68 1022.08 229.4V221.648H1020.38V219.848H1022.08V216.536H1024.27V219.848H1027.7V221.648H1024.27Z" fill="#155042"/>
<path d="M975.659 273.427C975.659 270.675 976.107 268.531 977.003 266.995C977.899 265.443 979.467 264.667 981.707 264.667C983.931 264.667 985.491 265.443 986.387 266.995C987.283 268.531 987.731 270.675 987.731 273.427C987.731 276.227 987.283 278.403 986.387 279.955C985.491 281.507 983.931 282.283 981.707 282.283C979.467 282.283 977.899 281.507 977.003 279.955C976.107 278.403 975.659 276.227 975.659 273.427ZM985.571 273.427C985.571 272.035 985.475 270.859 985.283 269.899C985.107 268.923 984.731 268.139 984.155 267.547C983.595 266.955 982.779 266.659 981.707 266.659C980.619 266.659 979.787 266.955 979.211 267.547C978.651 268.139 978.275 268.923 978.083 269.899C977.907 270.859 977.819 272.035 977.819 273.427C977.819 274.867 977.907 276.075 978.083 277.051C978.275 278.027 978.651 278.811 979.211 279.403C979.787 279.995 980.619 280.291 981.707 280.291C982.779 280.291 983.595 279.995 984.155 279.403C984.731 278.811 985.107 278.027 985.283 277.051C985.475 276.075 985.571 274.867 985.571 273.427ZM993.897 273.259C993.001 272.907 992.313 272.395 991.833 271.723C991.353 271.051 991.113 270.235 991.113 269.275C991.113 268.411 991.329 267.635 991.761 266.947C992.193 266.243 992.833 265.691 993.681 265.291C994.545 264.875 995.585 264.667 996.801 264.667C998.017 264.667 999.049 264.875 999.897 265.291C1000.76 265.691 1001.41 266.243 1001.84 266.947C1002.29 267.635 1002.51 268.411 1002.51 269.275C1002.51 270.203 1002.27 271.019 1001.77 271.723C1001.27 272.411 1000.59 272.923 999.729 273.259C1000.72 273.563 1001.51 274.099 1002.08 274.867C1002.67 275.619 1002.97 276.531 1002.97 277.603C1002.97 278.643 1002.71 279.555 1002.2 280.339C1001.69 281.107 1000.96 281.707 1000.02 282.139C999.089 282.555 998.017 282.763 996.801 282.763C995.585 282.763 994.513 282.555 993.585 282.139C992.673 281.707 991.961 281.107 991.449 280.339C990.937 279.555 990.681 278.643 990.681 277.603C990.681 276.531 990.969 275.611 991.545 274.843C992.121 274.075 992.905 273.547 993.897 273.259ZM1000.4 269.539C1000.4 268.563 1000.08 267.811 999.441 267.283C998.801 266.755 997.921 266.491 996.801 266.491C995.697 266.491 994.825 266.755 994.185 267.283C993.545 267.811 993.225 268.571 993.225 269.563C993.225 270.459 993.553 271.179 994.209 271.723C994.881 272.267 995.745 272.539 996.801 272.539C997.873 272.539 998.737 272.267 999.393 271.723C1000.07 271.163 1000.4 270.435 1000.4 269.539ZM996.801 274.219C995.617 274.219 994.649 274.499 993.897 275.059C993.145 275.603 992.769 276.427 992.769 277.531C992.769 278.555 993.129 279.379 993.849 280.003C994.585 280.627 995.569 280.939 996.801 280.939C998.033 280.939 999.009 280.627 999.729 280.003C1000.45 279.379 1000.81 278.555 1000.81 277.531C1000.81 276.459 1000.44 275.643 999.705 275.083C998.969 274.507 998.001 274.219 996.801 274.219ZM1006.93 282.427C1006.51 282.427 1006.16 282.283 1005.87 281.995C1005.58 281.707 1005.44 281.355 1005.44 280.939C1005.44 280.523 1005.58 280.171 1005.87 279.883C1006.16 279.595 1006.51 279.451 1006.93 279.451C1007.33 279.451 1007.66 279.595 1007.93 279.883C1008.22 280.171 1008.37 280.523 1008.37 280.939C1008.37 281.355 1008.22 281.707 1007.93 281.995C1007.66 282.283 1007.33 282.427 1006.93 282.427ZM1006.93 272.155C1006.51 272.155 1006.16 272.011 1005.87 271.723C1005.58 271.435 1005.44 271.083 1005.44 270.667C1005.44 270.251 1005.58 269.899 1005.87 269.611C1006.16 269.323 1006.51 269.179 1006.93 269.179C1007.33 269.179 1007.66 269.323 1007.93 269.611C1008.22 269.899 1008.37 270.251 1008.37 270.667C1008.37 271.083 1008.22 271.435 1007.93 271.723C1007.66 272.011 1007.33 272.155 1006.93 272.155ZM1010.93 269.299C1011.04 267.827 1011.61 266.675 1012.64 265.843C1013.66 265.011 1014.99 264.595 1016.62 264.595C1017.71 264.595 1018.64 264.795 1019.43 265.195C1020.23 265.579 1020.83 266.107 1021.23 266.779C1021.64 267.451 1021.85 268.211 1021.85 269.059C1021.85 270.051 1021.56 270.907 1020.99 271.627C1020.43 272.347 1019.69 272.811 1018.78 273.019V273.139C1019.82 273.395 1020.64 273.899 1021.25 274.651C1021.86 275.403 1022.16 276.387 1022.16 277.603C1022.16 278.515 1021.96 279.339 1021.54 280.075C1021.12 280.795 1020.5 281.363 1019.67 281.779C1018.84 282.195 1017.84 282.403 1016.67 282.403C1014.97 282.403 1013.58 281.963 1012.49 281.083C1011.4 280.187 1010.8 278.923 1010.67 277.291H1012.78C1012.89 278.251 1013.28 279.035 1013.96 279.643C1014.63 280.251 1015.52 280.555 1016.64 280.555C1017.76 280.555 1018.61 280.267 1019.19 279.691C1019.78 279.099 1020.08 278.339 1020.08 277.411C1020.08 276.211 1019.68 275.347 1018.88 274.819C1018.08 274.291 1016.87 274.027 1015.25 274.027H1014.7V272.203H1015.28C1016.75 272.187 1017.86 271.947 1018.61 271.483C1019.36 271.003 1019.74 270.267 1019.74 269.275C1019.74 268.427 1019.46 267.747 1018.9 267.235C1018.36 266.723 1017.57 266.467 1016.55 266.467C1015.56 266.467 1014.76 266.723 1014.15 267.235C1013.54 267.747 1013.18 268.435 1013.07 269.299H1010.93ZM1025.11 273.427C1025.11 270.675 1025.56 268.531 1026.46 266.995C1027.35 265.443 1028.92 264.667 1031.16 264.667C1033.38 264.667 1034.94 265.443 1035.84 266.995C1036.74 268.531 1037.18 270.675 1037.18 273.427C1037.18 276.227 1036.74 278.403 1035.84 279.955C1034.94 281.507 1033.38 282.283 1031.16 282.283C1028.92 282.283 1027.35 281.507 1026.46 279.955C1025.56 278.403 1025.11 276.227 1025.11 273.427ZM1035.02 273.427C1035.02 272.035 1034.93 270.859 1034.74 269.899C1034.56 268.923 1034.18 268.139 1033.61 267.547C1033.05 266.955 1032.23 266.659 1031.16 266.659C1030.07 266.659 1029.24 266.955 1028.66 267.547C1028.1 268.139 1027.73 268.923 1027.54 269.899C1027.36 270.859 1027.27 272.035 1027.27 273.427C1027.27 274.867 1027.36 276.075 1027.54 277.051C1027.73 278.027 1028.1 278.811 1028.66 279.403C1029.24 279.995 1030.07 280.291 1031.16 280.291C1032.23 280.291 1033.05 279.995 1033.61 279.403C1034.18 278.811 1034.56 278.027 1034.74 277.051C1034.93 276.075 1035.02 274.867 1035.02 273.427ZM1058.12 270.451C1058.12 271.843 1057.64 273.003 1056.68 273.931C1055.74 274.843 1054.29 275.299 1052.34 275.299H1049.12V282.283H1046.94V265.555H1052.34C1054.23 265.555 1055.66 266.011 1056.64 266.923C1057.63 267.835 1058.12 269.011 1058.12 270.451ZM1052.34 273.499C1053.56 273.499 1054.45 273.235 1055.03 272.707C1055.6 272.179 1055.89 271.427 1055.89 270.451C1055.89 268.387 1054.71 267.355 1052.34 267.355H1049.12V273.499H1052.34ZM1077.81 265.675V282.283H1075.62V269.899L1070.1 282.283H1068.57L1063.02 269.875V282.283H1060.84V265.675H1063.19L1069.34 279.403L1075.48 265.675H1077.81Z" fill="#155042"/>
<path d="M1092.12 387.565V393.838H1091.3V390.994H1088.11V393.838H1087.29V387.565H1088.11V390.319H1091.3V387.565H1092.12ZM1095.67 393.919C1095.21 393.919 1094.79 393.814 1094.41 393.604C1094.04 393.394 1093.74 393.097 1093.53 392.713C1093.32 392.323 1093.21 391.873 1093.21 391.363C1093.21 390.859 1093.32 390.415 1093.54 390.031C1093.76 389.641 1094.06 389.344 1094.44 389.14C1094.81 388.93 1095.24 388.825 1095.7 388.825C1096.17 388.825 1096.6 388.93 1096.97 389.14C1097.35 389.344 1097.65 389.638 1097.86 390.022C1098.09 390.406 1098.2 390.853 1098.2 391.363C1098.2 391.873 1098.08 392.323 1097.86 392.713C1097.63 393.097 1097.33 393.394 1096.95 393.604C1096.56 393.814 1096.14 393.919 1095.67 393.919ZM1095.67 393.199C1095.96 393.199 1096.24 393.13 1096.5 392.992C1096.75 392.854 1096.96 392.647 1097.12 392.371C1097.28 392.095 1097.36 391.759 1097.36 391.363C1097.36 390.967 1097.28 390.631 1097.13 390.355C1096.97 390.079 1096.77 389.875 1096.51 389.743C1096.26 389.605 1095.99 389.536 1095.7 389.536C1095.4 389.536 1095.12 389.605 1094.87 389.743C1094.62 389.875 1094.42 390.079 1094.27 390.355C1094.12 390.631 1094.05 390.967 1094.05 391.363C1094.05 391.765 1094.12 392.104 1094.26 392.38C1094.41 392.656 1094.61 392.863 1094.86 393.001C1095.1 393.133 1095.37 393.199 1095.67 393.199ZM1100.09 389.707C1100.24 389.425 1100.44 389.206 1100.71 389.05C1100.98 388.894 1101.3 388.816 1101.69 388.816V389.662H1101.47C1100.55 389.662 1100.09 390.16 1100.09 391.156V393.838H1099.27V388.906H1100.09V389.707ZM1103.05 388.105C1102.9 388.105 1102.77 388.051 1102.66 387.943C1102.55 387.835 1102.5 387.703 1102.5 387.547C1102.5 387.391 1102.55 387.259 1102.66 387.151C1102.77 387.043 1102.9 386.989 1103.05 386.989C1103.2 386.989 1103.33 387.043 1103.43 387.151C1103.54 387.259 1103.59 387.391 1103.59 387.547C1103.59 387.703 1103.54 387.835 1103.43 387.943C1103.33 388.051 1103.2 388.105 1103.05 388.105ZM1103.45 388.906V393.838H1102.63V388.906H1103.45ZM1105.46 393.163H1107.88V393.838H1104.52V393.163L1106.92 389.572H1104.54V388.906H1107.86V389.572L1105.46 393.163ZM1111.09 393.919C1110.63 393.919 1110.21 393.814 1109.83 393.604C1109.46 393.394 1109.17 393.097 1108.95 392.713C1108.74 392.323 1108.64 391.873 1108.64 391.363C1108.64 390.859 1108.74 390.415 1108.96 390.031C1109.18 389.641 1109.48 389.344 1109.86 389.14C1110.24 388.93 1110.66 388.825 1111.13 388.825C1111.6 388.825 1112.02 388.93 1112.4 389.14C1112.78 389.344 1113.07 389.638 1113.29 390.022C1113.51 390.406 1113.62 390.853 1113.62 391.363C1113.62 391.873 1113.51 392.323 1113.28 392.713C1113.06 393.097 1112.76 393.394 1112.37 393.604C1111.99 393.814 1111.56 393.919 1111.09 393.919ZM1111.09 393.199C1111.39 393.199 1111.66 393.13 1111.92 392.992C1112.18 392.854 1112.39 392.647 1112.54 392.371C1112.7 392.095 1112.79 391.759 1112.79 391.363C1112.79 390.967 1112.71 390.631 1112.55 390.355C1112.4 390.079 1112.19 389.875 1111.94 389.743C1111.69 389.605 1111.41 389.536 1111.12 389.536C1110.82 389.536 1110.54 389.605 1110.29 389.743C1110.05 389.875 1109.85 390.079 1109.7 390.355C1109.55 390.631 1109.47 390.967 1109.47 391.363C1109.47 391.765 1109.55 392.104 1109.69 392.38C1109.84 392.656 1110.04 392.863 1110.28 393.001C1110.53 393.133 1110.8 393.199 1111.09 393.199ZM1117.1 388.816C1117.7 388.816 1118.19 388.999 1118.56 389.365C1118.93 389.725 1119.12 390.247 1119.12 390.931V393.838H1118.31V391.048C1118.31 390.556 1118.19 390.181 1117.94 389.923C1117.69 389.659 1117.36 389.527 1116.93 389.527C1116.5 389.527 1116.15 389.662 1115.9 389.932C1115.64 390.202 1115.52 390.595 1115.52 391.111V393.838H1114.7V388.906H1115.52V389.608C1115.68 389.356 1115.9 389.161 1116.18 389.023C1116.46 388.885 1116.77 388.816 1117.1 388.816Z" fill="#155042"/>
<path d="M262 417C544.32 195.17 805.881 226.073 1028 417" stroke="url(#paint0_linear_39_3757)" stroke-width="5" stroke-linecap="round" stroke-linejoin="round"/>
<path d="M957.88 472L954.56 466.3H952.36V472H950.54V458.06H955.04C956.093 458.06 956.98 458.24 957.7 458.6C958.433 458.96 958.98 459.447 959.34 460.06C959.7 460.673 959.88 461.373 959.88 462.16C959.88 463.12 959.6 463.967 959.04 464.7C958.493 465.433 957.667 465.92 956.56 466.16L960.06 472H957.88ZM952.36 464.84H955.04C956.027 464.84 956.767 464.6 957.26 464.12C957.753 463.627 958 462.973 958 462.16C958 461.333 957.753 460.693 957.26 460.24C956.78 459.787 956.04 459.56 955.04 459.56H952.36V464.84ZM972.708 466.1C972.708 466.447 972.688 466.813 972.648 467.2H963.888C963.955 468.28 964.321 469.127 964.988 469.74C965.668 470.34 966.488 470.64 967.448 470.64C968.235 470.64 968.888 470.46 969.408 470.1C969.941 469.727 970.315 469.233 970.528 468.62H972.488C972.195 469.673 971.608 470.533 970.728 471.2C969.848 471.853 968.755 472.18 967.448 472.18C966.408 472.18 965.475 471.947 964.648 471.48C963.835 471.013 963.195 470.353 962.728 469.5C962.261 468.633 962.028 467.633 962.028 466.5C962.028 465.367 962.255 464.373 962.708 463.52C963.161 462.667 963.795 462.013 964.608 461.56C965.435 461.093 966.381 460.86 967.448 460.86C968.488 460.86 969.408 461.087 970.208 461.54C971.008 461.993 971.621 462.62 972.048 463.42C972.488 464.207 972.708 465.1 972.708 466.1ZM970.828 465.72C970.828 465.027 970.675 464.433 970.368 463.94C970.061 463.433 969.641 463.053 969.108 462.8C968.588 462.533 968.008 462.4 967.368 462.4C966.448 462.4 965.661 462.693 965.008 463.28C964.368 463.867 964.001 464.68 963.908 465.72H970.828ZM988.29 460.84C989.144 460.84 989.904 461.02 990.57 461.38C991.237 461.727 991.764 462.253 992.15 462.96C992.537 463.667 992.73 464.527 992.73 465.54V472H990.93V465.8C990.93 464.707 990.657 463.873 990.11 463.3C989.577 462.713 988.85 462.42 987.93 462.42C986.984 462.42 986.23 462.727 985.67 463.34C985.11 463.94 984.83 464.813 984.83 465.96V472H983.03V465.8C983.03 464.707 982.757 463.873 982.21 463.3C981.677 462.713 980.95 462.42 980.03 462.42C979.084 462.42 978.33 462.727 977.77 463.34C977.21 463.94 976.93 464.813 976.93 465.96V472H975.11V461.04H976.93V462.62C977.29 462.047 977.77 461.607 978.37 461.3C978.984 460.993 979.657 460.84 980.39 460.84C981.31 460.84 982.124 461.047 982.83 461.46C983.537 461.873 984.064 462.48 984.41 463.28C984.717 462.507 985.224 461.907 985.93 461.48C986.637 461.053 987.424 460.84 988.29 460.84ZM995.036 466.48C995.036 465.36 995.262 464.38 995.716 463.54C996.169 462.687 996.789 462.027 997.576 461.56C998.376 461.093 999.262 460.86 1000.24 460.86C1001.2 460.86 1002.03 461.067 1002.74 461.48C1003.44 461.893 1003.97 462.413 1004.32 463.04V461.04H1006.16V472H1004.32V469.96C1003.96 470.6 1003.42 471.133 1002.7 471.56C1001.99 471.973 1001.16 472.18 1000.22 472.18C999.242 472.18 998.362 471.94 997.576 471.46C996.789 470.98 996.169 470.307 995.716 469.44C995.262 468.573 995.036 467.587 995.036 466.48ZM1004.32 466.5C1004.32 465.673 1004.15 464.953 1003.82 464.34C1003.48 463.727 1003.03 463.26 1002.46 462.94C1001.9 462.607 1001.28 462.44 1000.6 462.44C999.916 462.44 999.296 462.6 998.736 462.92C998.176 463.24 997.729 463.707 997.396 464.32C997.062 464.933 996.896 465.653 996.896 466.48C996.896 467.32 997.062 468.053 997.396 468.68C997.729 469.293 998.176 469.767 998.736 470.1C999.296 470.42 999.916 470.58 1000.6 470.58C1001.28 470.58 1001.9 470.42 1002.46 470.1C1003.03 469.767 1003.48 469.293 1003.82 468.68C1004.15 468.053 1004.32 467.327 1004.32 466.5ZM1010.17 459.26C1009.82 459.26 1009.53 459.14 1009.29 458.9C1009.05 458.66 1008.93 458.367 1008.93 458.02C1008.93 457.673 1009.05 457.38 1009.29 457.14C1009.53 456.9 1009.82 456.78 1010.17 456.78C1010.5 456.78 1010.78 456.9 1011.01 457.14C1011.25 457.38 1011.37 457.673 1011.37 458.02C1011.37 458.367 1011.25 458.66 1011.01 458.9C1010.78 459.14 1010.5 459.26 1010.17 459.26ZM1011.05 461.04V472H1009.23V461.04H1011.05ZM1019.49 460.84C1020.83 460.84 1021.91 461.247 1022.73 462.06C1023.56 462.86 1023.97 464.02 1023.97 465.54V472H1022.17V465.8C1022.17 464.707 1021.9 463.873 1021.35 463.3C1020.81 462.713 1020.06 462.42 1019.11 462.42C1018.15 462.42 1017.39 462.72 1016.81 463.32C1016.25 463.92 1015.97 464.793 1015.97 465.94V472H1014.15V461.04H1015.97V462.6C1016.33 462.04 1016.82 461.607 1017.43 461.3C1018.06 460.993 1018.75 460.84 1019.49 460.84ZM1027.89 459.26C1027.54 459.26 1027.25 459.14 1027.01 458.9C1026.77 458.66 1026.65 458.367 1026.65 458.02C1026.65 457.673 1026.77 457.38 1027.01 457.14C1027.25 456.9 1027.54 456.78 1027.89 456.78C1028.22 456.78 1028.5 456.9 1028.73 457.14C1028.97 457.38 1029.09 457.673 1029.09 458.02C1029.09 458.367 1028.97 458.66 1028.73 458.9C1028.5 459.14 1028.22 459.26 1027.89 459.26ZM1028.77 461.04V472H1026.95V461.04H1028.77ZM1037.21 460.84C1038.54 460.84 1039.62 461.247 1040.45 462.06C1041.27 462.86 1041.69 464.02 1041.69 465.54V472H1039.89V465.8C1039.89 464.707 1039.61 463.873 1039.07 463.3C1038.52 462.713 1037.77 462.42 1036.83 462.42C1035.87 462.42 1035.1 462.72 1034.53 463.32C1033.97 463.92 1033.69 464.793 1033.69 465.94V472H1031.87V461.04H1033.69V462.6C1034.05 462.04 1034.53 461.607 1035.15 461.3C1035.77 460.993 1036.46 460.84 1037.21 460.84ZM1049.18 460.86C1050.13 460.86 1050.95 461.067 1051.66 461.48C1052.38 461.893 1052.91 462.413 1053.26 463.04V461.04H1055.1V472.24C1055.1 473.24 1054.89 474.127 1054.46 474.9C1054.03 475.687 1053.42 476.3 1052.62 476.74C1051.83 477.18 1050.91 477.4 1049.86 477.4C1048.42 477.4 1047.22 477.06 1046.26 476.38C1045.3 475.7 1044.73 474.773 1044.56 473.6H1046.36C1046.56 474.267 1046.97 474.8 1047.6 475.2C1048.23 475.613 1048.98 475.82 1049.86 475.82C1050.86 475.82 1051.67 475.507 1052.3 474.88C1052.94 474.253 1053.26 473.373 1053.26 472.24V469.94C1052.9 470.58 1052.37 471.113 1051.66 471.54C1050.95 471.967 1050.13 472.18 1049.18 472.18C1048.21 472.18 1047.32 471.94 1046.52 471.46C1045.73 470.98 1045.11 470.307 1044.66 469.44C1044.21 468.573 1043.98 467.587 1043.98 466.48C1043.98 465.36 1044.21 464.38 1044.66 463.54C1045.11 462.687 1045.73 462.027 1046.52 461.56C1047.32 461.093 1048.21 460.86 1049.18 460.86ZM1053.26 466.5C1053.26 465.673 1053.09 464.953 1052.76 464.34C1052.43 463.727 1051.97 463.26 1051.4 462.94C1050.84 462.607 1050.22 462.44 1049.54 462.44C1048.86 462.44 1048.24 462.6 1047.68 462.92C1047.12 463.24 1046.67 463.707 1046.34 464.32C1046.01 464.933 1045.84 465.653 1045.84 466.48C1045.84 467.32 1046.01 468.053 1046.34 468.68C1046.67 469.293 1047.12 469.767 1047.68 470.1C1048.24 470.42 1048.86 470.58 1049.54 470.58C1050.22 470.58 1050.84 470.42 1051.4 470.1C1051.97 469.767 1052.43 469.293 1052.76 468.68C1053.09 468.053 1053.26 467.327 1053.26 466.5ZM1062.83 466.48C1062.83 465.36 1063.06 464.38 1063.51 463.54C1063.96 462.687 1064.58 462.027 1065.37 461.56C1066.17 461.093 1067.06 460.86 1068.05 460.86C1068.9 460.86 1069.7 461.06 1070.43 461.46C1071.16 461.847 1071.72 462.36 1072.11 463V457.2H1073.95V472H1072.11V469.94C1071.75 470.593 1071.22 471.133 1070.51 471.56C1069.8 471.973 1068.98 472.18 1068.03 472.18C1067.06 472.18 1066.17 471.94 1065.37 471.46C1064.58 470.98 1063.96 470.307 1063.51 469.44C1063.06 468.573 1062.83 467.587 1062.83 466.48ZM1072.11 466.5C1072.11 465.673 1071.94 464.953 1071.61 464.34C1071.28 463.727 1070.82 463.26 1070.25 462.94C1069.69 462.607 1069.07 462.44 1068.39 462.44C1067.71 462.44 1067.09 462.6 1066.53 462.92C1065.97 463.24 1065.52 463.707 1065.19 464.32C1064.86 464.933 1064.69 465.653 1064.69 466.48C1064.69 467.32 1064.86 468.053 1065.19 468.68C1065.52 469.293 1065.97 469.767 1066.53 470.1C1067.09 470.42 1067.71 470.58 1068.39 470.58C1069.07 470.58 1069.69 470.42 1070.25 470.1C1070.82 469.767 1071.28 469.293 1071.61 468.68C1071.94 468.053 1072.11 467.327 1072.11 466.5ZM1076.34 466.48C1076.34 465.36 1076.57 464.38 1077.02 463.54C1077.48 462.687 1078.1 462.027 1078.88 461.56C1079.68 461.093 1080.57 460.86 1081.54 460.86C1082.5 460.86 1083.34 461.067 1084.04 461.48C1084.75 461.893 1085.28 462.413 1085.62 463.04V461.04H1087.46V472H1085.62V469.96C1085.26 470.6 1084.72 471.133 1084 471.56C1083.3 471.973 1082.47 472.18 1081.52 472.18C1080.55 472.18 1079.67 471.94 1078.88 471.46C1078.1 470.98 1077.48 470.307 1077.02 469.44C1076.57 468.573 1076.34 467.587 1076.34 466.48ZM1085.62 466.5C1085.62 465.673 1085.46 464.953 1085.12 464.34C1084.79 463.727 1084.34 463.26 1083.76 462.94C1083.2 462.607 1082.58 462.44 1081.9 462.44C1081.22 462.44 1080.6 462.6 1080.04 462.92C1079.48 463.24 1079.04 463.707 1078.7 464.32C1078.37 464.933 1078.2 465.653 1078.2 466.48C1078.2 467.32 1078.37 468.053 1078.7 468.68C1079.04 469.293 1079.48 469.767 1080.04 470.1C1080.6 470.42 1081.22 470.58 1081.9 470.58C1082.58 470.58 1083.2 470.42 1083.76 470.1C1084.34 469.767 1084.79 469.293 1085.12 468.68C1085.46 468.053 1085.62 467.327 1085.62 466.5ZM1099.98 461.04L1093.38 477.16H1091.5L1093.66 471.88L1089.24 461.04H1091.26L1094.7 469.92L1098.1 461.04H1099.98ZM1103.63 457.2V472H1101.81V457.2H1103.63ZM1107.67 459.26C1107.32 459.26 1107.03 459.14 1106.79 458.9C1106.55 458.66 1106.43 458.367 1106.43 458.02C1106.43 457.673 1106.55 457.38 1106.79 457.14C1107.03 456.9 1107.32 456.78 1107.67 456.78C1108 456.78 1108.28 456.9 1108.51 457.14C1108.75 457.38 1108.87 457.673 1108.87 458.02C1108.87 458.367 1108.75 458.66 1108.51 458.9C1108.28 459.14 1108 459.26 1107.67 459.26ZM1108.55 461.04V472H1106.73V461.04H1108.55ZM1116.17 460.86C1117.12 460.86 1117.95 461.067 1118.65 461.48C1119.37 461.893 1119.91 462.413 1120.25 463.04V461.04H1122.09V472.24C1122.09 473.24 1121.88 474.127 1121.45 474.9C1121.03 475.687 1120.41 476.3 1119.61 476.74C1118.83 477.18 1117.91 477.4 1116.85 477.4C1115.41 477.4 1114.21 477.06 1113.25 476.38C1112.29 475.7 1111.73 474.773 1111.55 473.6H1113.35C1113.55 474.267 1113.97 474.8 1114.59 475.2C1115.22 475.613 1115.97 475.82 1116.85 475.82C1117.85 475.82 1118.67 475.507 1119.29 474.88C1119.93 474.253 1120.25 473.373 1120.25 472.24V469.94C1119.89 470.58 1119.36 471.113 1118.65 471.54C1117.95 471.967 1117.12 472.18 1116.17 472.18C1115.2 472.18 1114.31 471.94 1113.51 471.46C1112.73 470.98 1112.11 470.307 1111.65 469.44C1111.2 468.573 1110.97 467.587 1110.97 466.48C1110.97 465.36 1111.2 464.38 1111.65 463.54C1112.11 462.687 1112.73 462.027 1113.51 461.56C1114.31 461.093 1115.2 460.86 1116.17 460.86ZM1120.25 466.5C1120.25 465.673 1120.09 464.953 1119.75 464.34C1119.42 463.727 1118.97 463.26 1118.39 462.94C1117.83 462.607 1117.21 462.44 1116.53 462.44C1115.85 462.44 1115.23 462.6 1114.67 462.92C1114.11 463.24 1113.67 463.707 1113.33 464.32C1113 464.933 1112.83 465.653 1112.83 466.48C1112.83 467.32 1113 468.053 1113.33 468.68C1113.67 469.293 1114.11 469.767 1114.67 470.1C1115.23 470.42 1115.85 470.58 1116.53 470.58C1117.21 470.58 1117.83 470.42 1118.39 470.1C1118.97 469.767 1119.42 469.293 1119.75 468.68C1120.09 468.053 1120.25 467.327 1120.25 466.5ZM1130.61 460.84C1131.44 460.84 1132.18 461.02 1132.85 461.38C1133.52 461.727 1134.04 462.253 1134.41 462.96C1134.8 463.667 1134.99 464.527 1134.99 465.54V472H1133.19V465.8C1133.19 464.707 1132.92 463.873 1132.37 463.3C1131.82 462.713 1131.08 462.42 1130.13 462.42C1129.17 462.42 1128.4 462.72 1127.83 463.32C1127.27 463.92 1126.99 464.793 1126.99 465.94V472H1125.17V457.2H1126.99V462.6C1127.35 462.04 1127.84 461.607 1128.47 461.3C1129.11 460.993 1129.82 460.84 1130.61 460.84ZM1140.18 462.54V469C1140.18 469.533 1140.3 469.913 1140.52 470.14C1140.75 470.353 1141.14 470.46 1141.7 470.46H1143.04V472H1141.4C1140.39 472 1139.63 471.767 1139.12 471.3C1138.62 470.833 1138.36 470.067 1138.36 469V462.54H1136.94V461.04H1138.36V458.28H1140.18V461.04H1143.04V462.54H1140.18ZM1145.83 472.12C1145.48 472.12 1145.19 472 1144.95 471.76C1144.71 471.52 1144.59 471.227 1144.59 470.88C1144.59 470.533 1144.71 470.24 1144.95 470C1145.19 469.76 1145.48 469.64 1145.83 469.64C1146.16 469.64 1146.44 469.76 1146.67 470C1146.91 470.24 1147.03 470.533 1147.03 470.88C1147.03 471.227 1146.91 471.52 1146.67 471.76C1146.44 472 1146.16 472.12 1145.83 472.12ZM1145.83 463.56C1145.48 463.56 1145.19 463.44 1144.95 463.2C1144.71 462.96 1144.59 462.667 1144.59 462.32C1144.59 461.973 1144.71 461.68 1144.95 461.44C1145.19 461.2 1145.48 461.08 1145.83 461.08C1146.16 461.08 1146.44 461.2 1146.67 461.44C1146.91 461.68 1147.03 461.973 1147.03 462.32C1147.03 462.667 1146.91 462.96 1146.67 463.2C1146.44 463.44 1146.16 463.56 1145.83 463.56Z" fill="#9A9A9A"/>
<path d="M1156.88 468.12C1157.01 468.88 1157.32 469.467 1157.8 469.88C1158.29 470.293 1158.95 470.5 1159.78 470.5C1160.88 470.5 1161.7 470.067 1162.22 469.2C1162.75 468.333 1163 466.873 1162.98 464.82C1162.7 465.42 1162.23 465.893 1161.58 466.24C1160.92 466.573 1160.2 466.74 1159.4 466.74C1158.5 466.74 1157.7 466.56 1157 466.2C1156.3 465.827 1155.76 465.287 1155.36 464.58C1154.96 463.873 1154.76 463.02 1154.76 462.02C1154.76 460.593 1155.17 459.447 1156 458.58C1156.82 457.7 1158 457.26 1159.52 457.26C1161.38 457.26 1162.69 457.867 1163.44 459.08C1164.2 460.293 1164.58 462.1 1164.58 464.5C1164.58 466.18 1164.42 467.567 1164.12 468.66C1163.82 469.753 1163.32 470.587 1162.6 471.16C1161.89 471.733 1160.92 472.02 1159.68 472.02C1158.32 472.02 1157.26 471.653 1156.5 470.92C1155.74 470.187 1155.3 469.253 1155.2 468.12H1156.88ZM1159.7 465.2C1160.59 465.2 1161.32 464.927 1161.9 464.38C1162.47 463.82 1162.76 463.067 1162.76 462.12C1162.76 461.12 1162.48 460.313 1161.92 459.7C1161.36 459.087 1160.57 458.78 1159.56 458.78C1158.62 458.78 1157.88 459.073 1157.32 459.66C1156.77 460.247 1156.5 461.02 1156.5 461.98C1156.5 462.953 1156.77 463.733 1157.32 464.32C1157.86 464.907 1158.66 465.2 1159.7 465.2ZM1178.17 458.06V472H1176.35V465.68H1169.25V472H1167.43V458.06H1169.25V464.18H1176.35V458.06H1178.17ZM1186.09 470.54C1187.79 469.18 1189.11 468.067 1190.07 467.2C1191.03 466.32 1191.84 465.407 1192.49 464.46C1193.16 463.5 1193.49 462.56 1193.49 461.64C1193.49 460.773 1193.28 460.093 1192.85 459.6C1192.44 459.093 1191.77 458.84 1190.83 458.84C1189.93 458.84 1189.22 459.127 1188.71 459.7C1188.22 460.26 1187.95 461.013 1187.91 461.96H1186.15C1186.21 460.467 1186.66 459.313 1187.51 458.5C1188.37 457.687 1189.47 457.28 1190.81 457.28C1192.19 457.28 1193.27 457.66 1194.07 458.42C1194.89 459.18 1195.29 460.227 1195.29 461.56C1195.29 462.667 1194.96 463.747 1194.29 464.8C1193.64 465.84 1192.89 466.76 1192.05 467.56C1191.21 468.347 1190.14 469.267 1188.83 470.32H1195.71V471.84H1186.09V470.54ZM1197.6 470.54C1199.29 469.18 1200.62 468.067 1201.58 467.2C1202.54 466.32 1203.34 465.407 1204 464.46C1204.66 463.5 1205 462.56 1205 461.64C1205 460.773 1204.78 460.093 1204.36 459.6C1203.94 459.093 1203.27 458.84 1202.34 458.84C1201.43 458.84 1200.72 459.127 1200.22 459.7C1199.72 460.26 1199.46 461.013 1199.42 461.96H1197.66C1197.71 460.467 1198.16 459.313 1199.02 458.5C1199.87 457.687 1200.97 457.28 1202.32 457.28C1203.69 457.28 1204.78 457.66 1205.58 458.42C1206.39 459.18 1206.8 460.227 1206.8 461.56C1206.8 462.667 1206.46 463.747 1205.8 464.8C1205.14 465.84 1204.4 466.76 1203.56 467.56C1202.72 468.347 1201.64 469.267 1200.34 470.32H1207.22V471.84H1197.6V470.54ZM1223.76 458.16V472H1221.94V461.68L1217.34 472H1216.06L1211.44 461.66V472H1209.62V458.16H1211.58L1216.7 469.6L1221.82 458.16H1223.76Z" fill="#2C2C2C"/>
<defs>
<linearGradient id="paint0_linear_39_3757" x1="294.965" y1="321.388" x2="822.387" y2="346.132" gradientUnits="userSpaceOnUse">
<stop stop-color="#FFCD5E"/>
<stop offset="0.535" stop-color="#FBAD2E"/>
<stop offset="0.78" stop-color="#F96349"/>
<stop offset="1" stop-color="#390974"/>
</linearGradient>
</defs>
</svg>
