<svg xmlns="http://www.w3.org/2000/svg" width="74" height="53"
                                                    viewBox="0 0 74 53" fill="none">
                                                    <path
                                                        d="M10.9566 52.9549C4.67558 52.9549 0.47998 48.8226 0.47998 42.9963C0.47998 38.2737 3.31015 34.552 7.53058 33.2687C8.30018 24.7217 15.2515 18.1254 23.5185 18.1254C30.0478 18.1254 35.1123 21.7957 37.8928 27.2627C45.4648 27.3141 51.1003 32.781 51.1003 40.0703C51.1003 47.334 45.6137 52.9549 38.4886 52.9549H10.9566Z"
                                                        fill="#C8F5FF" />
                                                    <path fill-rule="evenodd" clip-rule="evenodd"
                                                        d="M47.6246 10.2201C46.3833 10.2201 45.3655 9.14214 45.3655 7.88447V2.5715C45.3655 1.28817 46.3833 0.23584 47.6246 0.23584C48.8411 0.23584 49.859 1.28817 49.859 2.5715V7.88447C49.859 9.14214 48.8411 10.2201 47.6246 10.2201ZM32.878 15.1738L29.2534 11.4008C28.3844 10.5025 28.3844 9.0138 29.2534 8.14114C30.0974 7.24281 31.5374 7.21714 32.4063 8.14114L36.0557 11.9398C36.9246 12.8381 36.8998 14.3011 36.0805 15.1738C35.2364 16.0721 33.7717 16.0978 32.878 15.1738ZM59.1687 15.1994C58.3247 14.3011 58.2998 12.8125 59.1687 11.9398L62.843 8.14114C63.7119 7.24281 65.127 7.24281 65.9959 8.14114C66.8648 9.03947 66.8648 10.5025 65.9959 11.4008L62.3713 15.1738C61.4776 16.0978 60.0128 16.0721 59.1687 15.1994ZM66.1945 29.4444C64.978 29.4444 63.9353 28.3921 63.9353 27.1344C63.9353 25.8511 64.978 24.7987 66.1945 24.7987H71.3335C72.5748 24.7987 73.5678 25.8511 73.5678 27.1344C73.5678 28.3921 72.5748 29.4444 71.3335 29.4444H66.1945ZM62.843 46.1276L59.1687 42.3547C58.3247 41.482 58.2998 39.9933 59.1687 39.095C60.0377 38.1967 61.4527 38.2223 62.3216 39.095L65.9711 42.868C66.84 43.7663 66.8648 45.2293 65.9959 46.1276C65.127 47.026 63.7119 47.0516 62.843 46.1276Z"
                                                        fill="#FFCD5E" />
                                                    <path
                                                        d="M54.2284 38.094C53.4091 30.317 47.8977 24.9784 39.8293 24.3367C39.0596 22.8224 38.1659 21.5904 37.0736 20.4611C39.1341 16.7908 43.0815 14.2754 47.6246 14.2754C54.5014 14.2754 60.0377 19.9991 60.0377 27.1087C60.0377 31.6517 57.8033 35.5787 54.2284 38.094Z"
                                                        fill="#FFCD5E" />
                                                </svg>