<svg xmlns="http://www.w3.org/2000/svg" width="79" height="76"
                                                    viewBox="0 0 79 76" fill="none">
                                                    <path
                                                        d="M11.2949 54.3374C9.08811 54.3374 7.14617 53.9053 5.46904 53.041C3.79192 52.1767 2.48552 50.9773 1.54986 49.4428C0.631855 47.9083 0.172852 46.1268 0.172852 44.0984C0.172852 41.7173 0.85253 39.6271 2.21189 37.828C3.57124 36.0113 5.39843 34.7766 7.69344 34.124C7.88764 31.9192 8.46139 29.8732 9.41471 27.9859C10.3857 26.0809 11.6479 24.4229 13.2015 23.0119C14.755 21.6008 16.5116 20.5073 18.4712 19.7312C20.4308 18.9374 22.514 18.5406 24.7207 18.5406C27.0157 18.5406 29.1254 18.9286 31.0497 19.7047C32.9916 20.4632 34.7217 21.5479 36.2399 22.959C37.7582 24.37 39.0204 26.028 40.0267 27.933C42.7101 27.9506 45.111 28.5415 47.2295 29.7056C49.348 30.8521 51.0163 32.4131 52.2344 34.3886C53.4702 36.364 54.0881 38.6041 54.0881 41.1087C54.0881 43.5957 53.4967 45.8358 52.3139 47.8289C51.131 49.822 49.5245 51.4095 47.4943 52.5912C45.4818 53.7554 43.2132 54.3374 40.6887 54.3374H11.2949Z"
                                                        fill="#C8F5FF" />
                                                    <path fill-rule="evenodd" clip-rule="evenodd"
                                                        d="M34.6246 15.4186L30.7848 11.5558C30.3082 11.0972 30.0699 10.5328 30.0699 9.86256C30.0699 9.19231 30.2994 8.62789 30.7584 8.16929C31.2174 7.7107 31.7735 7.4814 32.4267 7.4814C33.0975 7.4814 33.6624 7.7107 34.1214 8.16929L38.0141 12.085C38.4908 12.5436 38.7203 13.108 38.7026 13.7783C38.7026 14.4309 38.482 14.9865 38.0406 15.4451C37.5993 15.9037 37.0343 16.133 36.3458 16.133C35.675 16.133 35.1012 15.8948 34.6246 15.4186ZM50.3543 10.3123C49.7011 10.3123 49.1361 10.0742 48.6595 9.59799C48.2005 9.12176 47.971 8.55733 47.971 7.90472V2.42804C47.971 1.77542 48.2005 1.21982 48.6595 0.761224C49.1361 0.284991 49.7011 0.046875 50.3543 0.046875C51.0075 0.046875 51.5636 0.284991 52.0226 0.761224C52.4992 1.21982 52.7376 1.77542 52.7376 2.42804V7.90472C52.7376 8.55733 52.4992 9.12176 52.0226 9.59799C51.5636 10.0742 51.0075 10.3123 50.3543 10.3123ZM62.6944 15.4451C62.2354 14.9865 61.9971 14.4309 61.9794 13.7783C61.9794 13.108 62.2177 12.5436 62.6944 12.085L66.6136 8.19575C67.0726 7.73715 67.6287 7.50786 68.2819 7.50786C68.9527 7.49022 69.5177 7.7107 69.9767 8.16929C70.4357 8.64552 70.6652 9.21877 70.6652 9.88902C70.6652 10.5416 70.4357 11.0972 69.9767 11.5558L66.084 15.4451C65.625 15.9213 65.0512 16.1594 64.3627 16.1594C63.6918 16.1418 63.1357 15.9037 62.6944 15.4451ZM70.162 30.1289C69.5265 30.1289 68.9704 29.8996 68.4937 29.441C68.0171 28.9824 67.7787 28.418 67.7787 27.7478C67.7787 27.0951 68.0171 26.5307 68.4937 26.0545C68.9704 25.5783 69.5265 25.3401 70.162 25.3401H75.6701C76.3233 25.3401 76.8794 25.5783 77.3384 26.0545C77.815 26.5307 78.0534 27.0951 78.0534 27.7478C78.0534 28.418 77.815 28.9824 77.3384 29.441C76.8794 29.8996 76.3233 30.1289 75.6701 30.1289H70.162ZM66.6136 47.3527L62.6944 43.4634C62.2354 43.0048 61.9971 42.4404 61.9794 41.7702C61.9794 41.0999 62.2089 40.5443 62.6679 40.1034C63.1269 39.6448 63.683 39.4155 64.3362 39.4155C65.0071 39.4155 65.572 39.6448 66.031 40.1034L69.9502 43.9926C70.4092 44.4335 70.6387 44.9892 70.6387 45.6594C70.6563 46.312 70.4357 46.8764 69.9767 47.3527C69.5 47.8113 68.9351 48.0406 68.2819 48.0406C67.6287 48.0406 67.0726 47.8113 66.6136 47.3527Z"
                                                        fill="#FFCD5E" />
                                                    <path
                                                        d="M40.7682 74.6302C40.5387 75.0359 40.1944 75.3005 39.7354 75.424C39.2764 75.5651 38.8351 75.521 38.4114 75.2917C37.97 75.0271 37.6964 74.6743 37.5904 74.2334C37.4845 73.7924 37.5463 73.3603 37.7758 72.937L41.2183 67.0105C41.4832 66.5696 41.8274 66.2785 42.2511 66.1374C42.6924 66.014 43.1338 66.0757 43.5751 66.3226C44.0165 66.5872 44.2901 66.94 44.3961 67.3809C44.5196 67.8395 44.4578 68.2805 44.2107 68.7038L40.7682 74.6302Z"
                                                        fill="#4672E1" />
                                                    <path
                                                        d="M32.4796 67.1693C32.2325 67.5926 31.8794 67.866 31.4204 67.9894C30.9614 68.1305 30.52 68.0776 30.0963 67.8307C29.6726 67.5838 29.399 67.231 29.2754 66.7724C29.1695 66.3314 29.2401 65.9081 29.4873 65.5024L32.9298 59.5495C33.177 59.1086 33.5212 58.8264 33.9626 58.7029C34.4039 58.5794 34.8364 58.6412 35.2601 58.8881C35.7015 59.1527 35.9751 59.5054 36.081 59.9464C36.2046 60.405 36.1428 60.8459 35.8957 61.2693L32.4796 67.1693Z"
                                                        fill="#4672E1" />
                                                    <path
                                                        d="M19.7158 74.6567C19.4686 75.0624 19.1156 75.327 18.6566 75.4504C18.2152 75.5915 17.7739 75.5474 17.3325 75.3181C16.8912 75.0536 16.6175 74.7008 16.5116 74.2598C16.4057 73.8189 16.4763 73.3867 16.7235 72.9634L20.1395 67.037C20.422 66.596 20.775 66.305 21.1987 66.1639C21.6401 66.0404 22.0814 66.1021 22.5228 66.3491C22.9465 66.596 23.2113 66.9488 23.3172 67.4074C23.4408 67.866 23.379 68.3069 23.1318 68.7302L19.7158 74.6567Z"
                                                        fill="#4672E1" />
                                                    <path
                                                        d="M11.4008 67.1957C11.1536 67.619 10.8005 67.8924 10.3415 68.0159C9.90019 68.157 9.45884 68.1041 9.01749 67.8571C8.5938 67.6102 8.32016 67.2574 8.19658 66.7989C8.09066 66.3579 8.16127 65.9346 8.40843 65.5289L11.851 59.576C12.1158 59.135 12.46 58.8528 12.8837 58.7294C13.3251 58.6059 13.7664 58.6676 14.2078 58.9146C14.6315 59.1791 14.9051 59.5319 15.0287 59.9729C15.1522 60.4314 15.0816 60.8724 14.8168 61.2957L11.4008 67.1957Z"
                                                        fill="#4672E1" />
                                                    <path
                                                        d="M57.4247 39.0451C57.1246 36.3817 56.3037 34.027 54.962 31.9809C53.6203 29.9349 51.846 28.2945 49.6393 27.0599C47.4502 25.8252 44.9168 25.0932 42.0392 24.8639C41.6332 24.0878 41.183 23.3735 40.6887 22.7209C40.2121 22.0682 39.6913 21.4509 39.1263 20.8688C40.2209 18.9815 41.7568 17.447 43.734 16.2653C45.7289 15.0835 47.9357 14.4926 50.3543 14.4926C52.8082 14.4926 55.0326 15.0923 57.0275 16.2917C59.04 17.4735 60.6377 19.0697 61.8205 21.0805C63.0033 23.0736 63.5947 25.296 63.5947 27.7478C63.5947 30.076 63.0387 32.2191 61.9264 34.1769C60.8319 36.1347 59.3313 37.7575 57.4247 39.0451Z"
                                                        fill="#FFCD5E" />
                                                </svg>