<svg xmlns="http://www.w3.org/2000/svg" width="62" height="42"
                                                    viewBox="0 0 62 42" fill="none">
                                                    <path
                                                        d="M12.5704 41.3605C10.0463 41.3605 7.84272 40.8608 5.95951 39.8612C4.0763 38.8617 2.61158 37.4939 1.56535 35.7579C0.5322 34.0219 0.015625 32.036 0.015625 29.8002C0.015625 27.9721 0.381805 26.2952 1.11416 24.7696C1.8596 23.244 2.87967 21.942 4.17438 20.8636C5.48216 19.772 6.99266 18.9829 8.70585 18.4963C8.95433 15.958 9.61477 13.6104 10.6871 11.4535C11.7726 9.28346 13.1785 7.38961 14.9048 5.77195C16.6441 4.15429 18.6189 2.89172 20.829 1.98425C23.0392 1.07678 25.3801 0.623047 27.8518 0.623047C30.4412 0.623047 32.8345 1.06363 35.0316 1.9448C37.2286 2.81281 39.1772 4.06223 40.8774 5.69304C42.5906 7.32386 44.0095 9.27689 45.1342 11.5521C47.4228 11.539 49.5414 11.9072 51.49 12.6569C53.4386 13.3934 55.1322 14.4324 56.5708 15.7738C58.0093 17.1153 59.1275 18.6935 59.9252 20.5085C60.723 22.3103 61.1219 24.2764 61.1219 26.407C61.1219 28.4981 60.7361 30.4512 59.9645 32.2661C59.1929 34.0811 58.1074 35.6658 56.7081 37.0205C55.3218 38.3883 53.7002 39.4535 51.8431 40.2163C49.9992 40.9791 47.9982 41.3605 45.8404 41.3605H12.5704Z"
                                                        fill="#C8F5FF" />
                                                </svg>