<svg xmlns="http://www.w3.org/2000/svg" width="154" height="108" viewBox="0 0 154 108"
                            fill="none">
                            <path
                                d="M21.959 107.802C8.79403 107.802 0 99.3525 0 87.4386C0 77.7815 5.93206 70.1713 14.7781 67.5471C16.3912 50.0699 30.9612 36.5815 48.2891 36.5815C61.9745 36.5815 72.5897 44.0867 78.4177 55.2658C94.2886 55.3708 106.101 66.5499 106.101 81.4554C106.101 96.3084 94.6008 107.802 79.6666 107.802H21.959Z"
                                fill="#C8F5FF" />
                            <path fill-rule="evenodd" clip-rule="evenodd"
                                d="M98.8157 20.4163C96.2139 20.4163 94.0805 18.212 94.0805 15.6403V4.77606C94.0805 2.15185 96.2139 0 98.8157 0C101.365 0 103.499 2.15185 103.499 4.77606V15.6403C103.499 18.212 101.365 20.4163 98.8157 20.4163ZM67.9065 30.5458L60.3093 22.8306C58.4881 20.9937 58.4881 17.9496 60.3093 16.1651C62.0785 14.3282 65.0966 14.2757 66.9178 16.1651L74.5671 23.9328C76.3883 25.7697 76.3363 28.7613 74.6191 30.5458C72.8499 32.3827 69.7798 32.4352 67.9065 30.5458ZM123.012 30.5983C121.243 28.7613 121.191 25.7172 123.012 23.9328L130.714 16.1651C132.535 14.3282 135.501 14.3282 137.322 16.1651C139.143 18.0021 139.143 20.9937 137.322 22.8306L129.725 30.5458C127.852 32.4352 124.781 32.3827 123.012 30.5983ZM137.738 59.727C135.189 59.727 133.003 57.5751 133.003 55.0034C133.003 52.3792 135.189 50.2273 137.738 50.2273H148.51C151.112 50.2273 153.193 52.3792 153.193 55.0034C153.193 57.5751 151.112 59.727 148.51 59.727H137.738ZM130.714 93.8417L123.012 86.1265C121.243 84.342 121.191 81.298 123.012 79.461C124.834 77.6241 127.8 77.6765 129.621 79.461L137.27 87.1762C139.091 89.0131 139.143 92.0047 137.322 93.8417C135.501 95.6786 132.535 95.7311 130.714 93.8417Z"
                                fill="#FFCD5E" />
                            <path
                                d="M112.657 77.4141C110.94 61.5114 99.3881 50.5947 82.4765 49.2826C80.8634 46.1861 78.9901 43.6668 76.7005 41.3575C81.0195 33.8523 89.2932 28.7088 98.8157 28.7088C113.23 28.7088 124.834 40.4128 124.834 54.9509C124.834 64.2406 120.15 72.2707 112.657 77.4141Z"
                                fill="#FFCD5E" />
                        </svg>