<svg xmlns="http://www.w3.org/2000/svg" width="51" height="50" viewBox="0 0 51 50"
                                fill="none">
                                <path
                                    d="M7.44336 44.2383C7.04492 43.8281 6.8457 43.3125 6.8457 42.6914C6.8457 42.0703 7.05664 41.5547 7.47852 41.1445L10.8887 37.752C11.2988 37.3418 11.8145 37.1367 12.4355 37.1367C13.0566 37.1367 13.5781 37.3477 14 37.7695C14.4219 38.1914 14.627 38.707 14.6152 39.3164C14.6152 39.9375 14.3984 40.459 13.9648 40.8809L10.5723 44.2734C10.1621 44.6953 9.64648 44.9004 9.02539 44.8887C8.4043 44.8887 7.87695 44.6719 7.44336 44.2383ZM0.0605469 26.3086C0.0605469 25.7109 0.271484 25.1953 0.693359 24.7617C1.12695 24.3281 1.64844 24.1113 2.25781 24.1113H7.03906C7.63672 24.1113 8.15234 24.3281 8.58594 24.7617C9.01953 25.1953 9.23633 25.7109 9.23633 26.3086C9.23633 26.9062 9.01953 27.4219 8.58594 27.8555C8.15234 28.2773 7.63672 28.4883 7.03906 28.4883H2.25781C1.64844 28.4883 1.12695 28.2773 0.693359 27.8555C0.271484 27.4219 0.0605469 26.9062 0.0605469 26.3086ZM7.51367 8.32617C7.93555 7.9043 8.45117 7.69922 9.06055 7.71094C9.68164 7.71094 10.1973 7.92188 10.6074 8.34375L14 11.7539C14.4219 12.1641 14.627 12.6797 14.6152 13.3008C14.6035 13.9219 14.3867 14.4434 13.9648 14.8652C13.5547 15.2871 13.0391 15.498 12.418 15.498C11.8086 15.4863 11.293 15.2695 10.8711 14.8477L7.47852 11.4375C7.06836 11.0273 6.86328 10.5117 6.86328 9.89062C6.875 9.26953 7.0918 8.74805 7.51367 8.32617ZM25.4785 0.855469C26.0762 0.855469 26.5918 1.07227 27.0254 1.50586C27.459 1.93945 27.6758 2.46094 27.6758 3.07031V7.85156C27.6758 8.46094 27.459 8.98242 27.0254 9.41602C26.5918 9.84961 26.0762 10.0664 25.4785 10.0664C24.8691 10.0664 24.3477 9.84961 23.9141 9.41602C23.4805 8.98242 23.2637 8.46094 23.2637 7.85156V3.07031C23.2637 2.46094 23.4805 1.93945 23.9141 1.50586C24.3477 1.07227 24.8691 0.855469 25.4785 0.855469ZM43.4434 8.32617C43.8652 8.74805 44.0762 9.26953 44.0762 9.89062C44.0879 10.5117 43.8887 11.0332 43.4785 11.4551L40.0684 14.8477C39.6465 15.2812 39.125 15.498 38.5039 15.498C37.8828 15.498 37.3613 15.2871 36.9395 14.8652C36.5293 14.4434 36.3184 13.9277 36.3066 13.3184C36.3066 12.6973 36.5117 12.1758 36.9219 11.7539L40.3496 8.34375C40.7598 7.92188 41.2695 7.71094 41.8789 7.71094C42.5 7.69922 43.0215 7.9043 43.4434 8.32617ZM44.5332 28.4883L42.8809 25.5527C42.8105 25.4473 42.7344 25.3418 42.6523 25.2363C42.582 25.1191 42.5176 25.0078 42.459 24.9023C42.541 24.6914 42.7168 24.5098 42.9863 24.3574C43.2559 24.1934 43.5664 24.1113 43.918 24.1113H48.6992C49.2969 24.1113 49.8125 24.3281 50.2461 24.7617C50.6797 25.1953 50.8965 25.7109 50.8965 26.3086C50.8965 26.9062 50.6797 27.4219 50.2461 27.8555C49.8125 28.2773 49.2969 28.4883 48.6992 28.4883H44.5332ZM13.6309 26.3086C13.6309 24.668 13.9355 23.1387 14.5449 21.7207C15.166 20.291 16.0156 19.0371 17.0938 17.959C18.1719 16.8691 19.4258 16.0195 20.8555 15.4102C22.2969 14.7891 23.832 14.4785 25.4609 14.4785C26.7969 14.4785 28.0684 14.6953 29.2754 15.1289C30.4824 15.5508 31.5781 16.1484 32.5625 16.9219C33.5586 17.6836 34.4082 18.5801 35.1113 19.6113C35.8145 20.6426 36.3242 21.7676 36.6406 22.9863C36.5234 22.9746 36.4121 22.9746 36.3066 22.9863C36.2012 22.9863 36.0957 22.9922 35.9902 23.0039C35.0293 23.0977 34.127 23.4082 33.2832 23.9355C32.4395 24.4629 31.7656 25.1836 31.2617 26.0977L24.5996 38.0156C24.4473 38.0156 24.2949 38.0098 24.1426 37.998C24.002 37.9863 23.8613 37.9746 23.7207 37.9629C22.3027 37.752 20.9785 37.3066 19.748 36.627C18.5293 35.9473 17.457 35.0859 16.5312 34.043C15.6172 32.9883 14.9023 31.8047 14.3867 30.4922C13.8828 29.1797 13.6309 27.7852 13.6309 26.3086ZM27.0957 49.3359C26.1465 49.3359 25.3848 49.0254 24.8105 48.4043C24.248 47.7832 23.9668 47.0449 23.9668 46.1895C23.9668 45.6738 24.1074 45.1641 24.3887 44.6602L33.9512 27.5566C34.2441 27.0176 34.6367 26.6191 35.1289 26.3613C35.6211 26.0918 36.1309 25.957 36.6582 25.957C37.1855 25.957 37.6895 26.0918 38.1699 26.3613C38.6504 26.6191 39.0488 27.0176 39.3652 27.5566L48.9277 44.6602C49.209 45.1523 49.3496 45.6621 49.3496 46.1895C49.3496 47.0449 49.0625 47.7832 48.4883 48.4043C47.9258 49.0254 47.1699 49.3359 46.2207 49.3359H27.0957ZM36.6582 45.9609C37.2207 45.9609 37.6953 45.7734 38.082 45.3984C38.4688 45.0234 38.668 44.5605 38.6797 44.0098C38.6797 43.4707 38.4805 43.0078 38.082 42.6211C37.6953 42.2461 37.2207 42.0586 36.6582 42.0586C36.1074 42.0586 35.6328 42.2461 35.2344 42.6211C34.8477 42.9961 34.6543 43.459 34.6543 44.0098C34.6543 44.5605 34.8477 45.0234 35.2344 45.3984C35.6211 45.7734 36.0957 45.9609 36.6582 45.9609ZM36.6582 40.5996C37.0801 40.5996 37.4316 40.4648 37.7129 40.1953C37.9941 39.9258 38.1348 39.5859 38.1348 39.1758L38.3281 32.9707C38.3398 32.4902 38.1875 32.0977 37.8711 31.793C37.5664 31.4766 37.1621 31.3184 36.6582 31.3184C36.1543 31.3184 35.7441 31.4766 35.4277 31.793C35.123 32.0977 34.9707 32.4902 34.9707 32.9707L35.1641 39.1758C35.1758 39.5859 35.3223 39.9258 35.6035 40.1953C35.8848 40.4648 36.2363 40.5996 36.6582 40.5996Z"
                                    fill="#155042" />
                            </svg>