<svg xmlns="http://www.w3.org/2000/svg" width="61" height="61"
                                                    viewBox="0 0 61 61" fill="none">
                                                    <path
                                                        d="M30.092 11.2284C29.3381 11.2284 28.7009 10.9596 28.1803 10.4221C27.6598 9.88456 27.3995 9.24848 27.3995 8.51385V2.92351C27.3995 2.18888 27.6598 1.56176 28.1803 1.04214C28.7009 0.504606 29.3381 0.23584 30.092 0.23584C30.81 0.23584 31.4293 0.504606 31.9498 1.04214C32.4883 1.56176 32.7576 2.18888 32.7576 2.92351V8.51385C32.7576 9.24848 32.4883 9.88456 31.9498 10.4221C31.4293 10.9596 30.81 11.2284 30.092 11.2284ZM43.5007 16.8187C42.9801 16.317 42.7198 15.6899 42.7198 14.9374C42.7198 14.1848 42.9801 13.5487 43.5007 13.0291L47.4856 9.05138C47.9882 8.53177 48.6164 8.27196 49.3703 8.27196C50.1242 8.25404 50.7614 8.50489 51.282 9.02451C51.8025 9.54412 52.0628 10.1802 52.0628 10.9328C52.0628 11.6853 51.8025 12.3214 51.282 12.841L47.324 16.8187C46.8035 17.3563 46.1662 17.625 45.4123 17.625C44.6584 17.6071 44.0212 17.3384 43.5007 16.8187ZM49.0472 30.2033C49.0472 29.4687 49.3075 28.8416 49.828 28.322C50.3665 27.7844 51.0127 27.5157 51.7666 27.5157H57.3401C58.076 27.5157 58.7043 27.7844 59.2248 28.322C59.7633 28.8416 60.0326 29.4687 60.0326 30.2033C60.0326 30.9379 59.7633 31.5651 59.2248 32.0847C58.7043 32.6043 58.076 32.8641 57.3401 32.8641H51.7666C51.0127 32.8641 50.3665 32.6043 49.828 32.0847C49.3075 31.5651 49.0472 30.9379 49.0472 30.2033ZM43.5007 43.5879C44.0033 43.0862 44.6315 42.8354 45.3854 42.8354C46.1393 42.8354 46.7765 43.0862 47.2971 43.5879L51.282 47.5656C51.8025 48.0673 52.0628 48.6945 52.0628 49.447C52.0628 50.1996 51.8115 50.8356 51.3089 51.3553C50.7883 51.8569 50.1511 52.1078 49.3972 52.1078C48.6433 52.1257 48.0151 51.8928 47.5125 51.409L43.5007 47.3775C42.9801 46.8758 42.7198 46.2576 42.7198 45.523C42.7198 44.7705 42.9801 44.1254 43.5007 43.5879ZM30.092 49.1782C30.81 49.1782 31.4293 49.4381 31.9498 49.9577C32.4883 50.4952 32.7576 51.1313 32.7576 51.8659V57.4563C32.7576 58.1909 32.4883 58.818 31.9498 59.3376C31.4293 59.8752 30.81 60.1439 30.092 60.1439C29.3381 60.1439 28.7009 59.8752 28.1803 59.3376C27.6598 58.818 27.3995 58.1909 27.3995 57.4563V51.8659C27.3995 51.1313 27.6598 50.4952 28.1803 49.9577C28.7009 49.4381 29.3381 49.1782 30.092 49.1782ZM16.6565 43.5879C17.159 44.1254 17.4103 44.7705 17.4103 45.523C17.4103 46.2576 17.1501 46.8758 16.6295 47.3775L12.6446 51.3821C12.142 51.8659 11.5048 52.0988 10.733 52.0809C9.97905 52.0809 9.34183 51.8301 8.82128 51.3284C8.33663 50.8088 8.09431 50.1727 8.09431 49.4201C8.09431 48.6676 8.35458 48.0405 8.87513 47.5388L12.8331 43.5879C13.3537 43.0862 13.9909 42.8354 14.7448 42.8354C15.4987 42.8354 16.1359 43.0862 16.6565 43.5879ZM11.1099 30.2033C11.1099 30.9379 10.8407 31.5651 10.3022 32.0847C9.76365 32.6043 9.12643 32.8641 8.39048 32.8641H2.79008C2.07209 32.8641 1.44384 32.6043 0.905336 32.0847C0.384787 31.5651 0.124512 30.9379 0.124512 30.2033C0.124512 29.4687 0.384787 28.8416 0.905336 28.322C1.44384 27.7844 2.07209 27.5157 2.79008 27.5157H8.39048C9.12643 27.5157 9.76365 27.7844 10.3022 28.322C10.8407 28.8416 11.1099 29.4687 11.1099 30.2033ZM16.6295 16.8187C16.109 17.3384 15.4718 17.5982 14.7179 17.5982C13.9819 17.5982 13.3537 17.3384 12.8331 16.8187L8.87513 12.8141C8.37253 12.3124 8.12123 11.6853 8.12123 10.9328C8.12123 10.1802 8.38151 9.54412 8.90206 9.02451C9.4226 8.50489 10.0598 8.25404 10.8137 8.27196C11.5676 8.28988 12.1959 8.54969 12.6985 9.05138L16.6565 13.0291C17.159 13.5308 17.4103 14.1669 17.4103 14.9374C17.4103 15.6899 17.1501 16.317 16.6295 16.8187ZM30.0651 44.2329C28.1265 44.2329 26.3046 43.8746 24.5993 43.1579C22.8941 42.4232 21.3952 41.4198 20.1028 40.1477C18.8284 38.8576 17.8232 37.3615 17.0872 35.6593C16.3692 33.9571 16.0102 32.1384 16.0102 30.2033C16.0102 28.2503 16.3692 26.4316 17.0872 24.7474C17.8232 23.0452 18.8284 21.558 20.1028 20.2858C21.3952 18.9958 22.8941 17.9834 24.5993 17.2488C26.3046 16.5141 28.1265 16.1468 30.0651 16.1468C32.0037 16.1468 33.8256 16.5141 35.5309 17.2488C37.2361 17.9834 38.726 18.9958 40.0004 20.2858C41.2928 21.558 42.298 23.0452 43.016 24.7474C43.752 26.4316 44.1199 28.2503 44.1199 30.2033C44.1199 32.1384 43.752 33.9571 43.016 35.6593C42.298 37.3615 41.2928 38.8576 40.0004 40.1477C38.726 41.4198 37.2361 42.4232 35.5309 43.1579C33.8256 43.8746 32.0037 44.2329 30.0651 44.2329Z"
                                                        fill="#FFCD5E" />
                                                </svg>