<svg width="593" height="580" viewBox="0 0 593 580" fill="none"
                                xmlns="http://www.w3.org/2000/svg">
                                <rect width="586" height="560" rx="100" fill="url(#paint0_linear_78_514)" />
                                <path
                                    d="M215.94 378.46C225.689 396.861 256.45 426.933 301.503 400.004C274.535 357.974 233.224 368.129 215.94 378.46Z"
                                    fill="#EEE6C6" />
                                <path
                                    d="M159.55 155.115C159.575 175.939 172.73 216.896 225.144 214.128C220.93 164.369 179.659 154.053 159.55 155.115Z"
                                    fill="#EEE6C6" />
                                <path
                                    d="M160.868 237.952C165.979 258.139 188.739 294.643 238.89 279.157C222.649 231.934 180.109 232.01 160.868 237.952Z"
                                    fill="#EEE6C6" />
                                <path
                                    d="M177.922 312.483C186.215 331.585 214.551 363.952 261.557 340.599C237.93 296.604 195.956 303.524 177.922 312.483Z"
                                    fill="#EEE6C6" />
                                <path
                                    d="M352.131 308.843C361.065 327.654 366.807 370.287 318.299 390.333C300.7 343.599 333.521 316.534 352.131 308.843Z"
                                    fill="#EEE6C6" />
                                <path
                                    d="M290.665 138.735C296.175 158.818 294.378 201.798 243.112 213.058C233.952 163.968 270.997 143.055 290.665 138.735Z"
                                    fill="#EEE6C6" />
                                <path
                                    d="M308.924 204.979C312.737 225.452 307.358 268.132 255.331 275.072C250.302 225.388 288.964 207.642 308.924 204.979Z"
                                    fill="#EEE6C6" />
                                <path
                                    d="M323.283 254.796C330.059 274.488 331.002 317.495 280.557 331.996C268.29 283.588 303.93 260.36 323.283 254.796Z"
                                    fill="#EEE6C6" />
                                <path
                                    d="M235.107 62.0633C218.894 75.1316 195.216 111.047 230.216 150.162C266.355 115.698 248.535 77.0696 235.107 62.0633Z"
                                    fill="#EEE6C6" />
                                <path
                                    d="M474.514 497.222C475.875 497.378 479.189 491.387 478.284 490.37C477.162 489.108 474.708 489.686 473.061 489.369C469.012 488.59 465.026 487.689 461.092 486.688C448.185 483.405 435.823 479.08 423.876 473.994C388.274 458.835 356.191 437.096 328.056 408.603C274.23 354.089 230.96 276.169 232.809 136.054C232.841 133.646 229.162 138.113 228.617 141.166C226.948 150.511 228.365 159.661 228.533 166.893C228.996 186.803 230.559 205.207 232.98 222.374C240.192 273.518 254.927 313.704 273.478 347.406C302.402 399.951 340.946 436.919 385.196 463.158C412.272 479.213 440.917 493.352 474.514 497.222Z"
                                    fill="#EEE6C6" />
                                <defs>
                                    <linearGradient id="paint0_linear_78_514" x1="313.003" y1="-163.423" x2="304.77"
                                        y2="560.009" gradientUnits="userSpaceOnUse">
                                        <stop stop-color="#EEE6C6" />
                                        <stop offset="0.345" stop-color="#95935C" />
                                        <stop offset="0.61" stop-color="#6C7344" />
                                        <stop offset="0.995" stop-color="#233A18" />
                                    </linearGradient>
                                </defs>
                            </svg>