<svg width="100" height="82" viewBox="0 0 100 82" fill="none"
                                        xmlns="http://www.w3.org/2000/svg">
                                        <path
                                            d="M78.3456 81.5596C75.4745 81.5596 72.7743 81.0355 70.245 79.9873C67.7385 78.9391 65.5282 77.4808 63.6142 75.6123C61.7229 73.7666 60.2418 71.6019 59.1708 69.1182C58.0998 66.6572 57.5644 64.014 57.5644 61.1885C57.5644 59.1377 57.8492 57.1211 58.4188 55.1387C59.0113 53.1562 59.7177 51.265 60.538 49.4648C61.3811 47.6419 62.2128 45.9671 63.0331 44.4404L72.8427 26.1885C74.0504 23.9326 75.8847 22.8047 78.3456 22.8047C80.8293 22.8047 82.6636 23.9212 83.8485 26.1543L93.6581 44.4404C94.4784 45.9671 95.3101 47.6419 96.1532 49.4648C96.9963 51.265 97.7027 53.1562 98.2724 55.1387C98.8648 57.1211 99.161 59.1377 99.161 61.1885C99.161 64.014 98.6256 66.6572 97.5546 69.1182C96.4836 71.6019 94.9911 73.7666 93.0771 75.6123C91.1858 77.4808 88.9755 78.9391 86.4462 79.9873C83.9397 81.0355 81.2395 81.5596 78.3456 81.5596ZM20.3085 28.9229C17.3463 28.9229 14.4638 28.5469 11.661 27.7949C8.88109 27.043 6.20368 25.9264 3.62881 24.4453C1.89704 23.4427 0.826077 22.0983 0.415921 20.4121C0.00576486 18.7259 0.301989 17.1536 1.30459 15.6953C2.12491 14.4648 3.23005 13.6673 4.62002 13.3027C6.03278 12.9382 7.44554 13.1546 8.8583 13.9521C10.9091 15.137 12.8231 15.9801 14.6005 16.4814C16.4006 16.9827 18.3033 17.2334 20.3085 17.2334C23.248 17.2334 26.0165 16.8346 28.6142 16.0371C31.2346 15.2168 33.7639 14.18 36.2021 12.9268C38.6402 11.6507 41.0784 10.3063 43.5165 8.89355C45.9774 7.48079 48.5181 6.14779 51.1386 4.89453C53.7818 3.61849 56.5845 2.58171 59.5468 1.78418C62.5318 0.963867 65.7789 0.553711 69.288 0.553711C72.2502 0.553711 75.1213 0.941081 77.9013 1.71582C80.704 2.46777 83.3928 3.57292 85.9677 5.03125C87.745 6.07943 88.8274 7.45801 89.2148 9.16699C89.6249 10.8532 89.3287 12.4255 88.3261 13.8838C87.4602 15.1143 86.3209 15.9004 84.9081 16.2422C83.5181 16.5612 82.1282 16.3333 80.7382 15.5586C78.6874 14.3737 76.762 13.5306 74.9618 13.0293C73.1845 12.528 71.2932 12.2773 69.288 12.2773C66.3485 12.2773 63.58 12.6761 60.9823 13.4736C58.3847 14.2712 55.8554 15.3079 53.3944 16.584C50.9563 17.8372 48.5067 19.1816 46.0458 20.6172C43.6077 22.0299 41.067 23.3743 38.4237 24.6504C35.8033 25.9036 33.0006 26.929 30.0155 27.7266C27.0533 28.5241 23.8176 28.9229 20.3085 28.9229ZM20.3769 52.5752C17.4146 52.5752 14.5321 52.1992 11.7294 51.4473C8.94945 50.6953 6.26065 49.5788 3.66299 48.0977C1.95401 47.0951 0.894437 45.7507 0.48428 44.0645C0.0741242 42.3783 0.358955 40.806 1.33877 39.3477C2.15909 38.0944 3.27562 37.2969 4.68838 36.9551C6.10114 36.5905 7.5139 36.7956 8.92666 37.5703C10.9774 38.778 12.8915 39.6325 14.6689 40.1338C16.469 40.6123 18.3716 40.8516 20.3769 40.8516C23.1796 40.8516 25.8114 40.4984 28.2724 39.792C30.7561 39.0856 33.1373 38.1628 35.4159 37.0234C37.7174 35.8841 40.0074 34.6536 42.286 33.332C44.5647 31.9876 46.9003 30.7002 49.2929 29.4697C51.7082 28.2165 54.2603 27.1341 56.9491 26.2227C59.6379 25.3112 62.5432 24.696 65.6649 24.377C64.4573 26.6784 63.2268 28.9798 61.9735 31.2812C60.7431 33.5827 59.5126 35.8841 58.2821 38.1855C56.2997 38.9147 54.3515 39.7692 52.4374 40.749C50.5233 41.7288 48.5979 42.7656 46.661 43.8594C44.747 44.9303 42.7873 45.9785 40.7821 47.0039C38.7769 48.0293 36.7034 48.9635 34.5614 49.8066C32.4195 50.6497 30.175 51.3219 27.828 51.8232C25.481 52.3245 22.9973 52.5752 20.3769 52.5752ZM20.3085 76.2275C17.3463 76.2275 14.4638 75.8516 11.661 75.0996C8.88109 74.3477 6.20368 73.2311 3.62881 71.75C1.89704 70.7474 0.826077 69.403 0.415921 67.7168C0.00576486 66.0306 0.301989 64.4583 1.30459 63C2.12491 61.7467 3.23005 60.9492 4.62002 60.6074C6.03278 60.2428 7.44554 60.4479 8.8583 61.2227C10.9091 62.4076 12.8231 63.2507 14.6005 63.752C16.4006 64.2533 18.3033 64.5039 20.3085 64.5039C23.3391 64.5039 26.176 64.0938 28.8192 63.2734C31.4853 62.4531 34.0487 61.3936 36.5097 60.0947C38.9934 58.7959 41.4885 57.4287 43.995 55.9932C46.5243 54.5348 49.1675 53.179 51.9247 51.9258C51.2183 54.1589 50.7512 56.4033 50.5233 58.6592C50.3183 60.915 50.398 63.1025 50.7626 65.2217C48.5067 66.4066 46.2395 67.637 43.9608 68.9131C41.6822 70.1891 39.3238 71.374 36.8856 72.4678C34.4475 73.5843 31.8612 74.4844 29.1269 75.168C26.3925 75.8744 23.453 76.2275 20.3085 76.2275Z"
                                            fill="#155042" />
                                    </svg>