<svg width="44" height="36" viewBox="0 0 44 36" fill="none"
                                        xmlns="http://www.w3.org/2000/svg">
                                        <path
                                            d="M34.7969 35.8594C33.5782 35.8594 32.4323 35.6354 31.3594 35.1875C30.2969 34.75 29.3646 34.1354 28.5625 33.3438C27.7604 32.5625 27.1302 31.651 26.6719 30.6094C26.224 29.5677 26 28.4479 26 27.25C26 26.3646 26.125 25.4896 26.375 24.625C26.625 23.7604 26.9375 22.9219 27.3125 22.1094C27.6979 21.2969 28.0834 20.5365 28.4688 19.8281L33.0625 11.25C33.4479 10.5312 34.0261 10.1719 34.7969 10.1719C35.5782 10.1719 36.1563 10.5365 36.5313 11.2656L41.1407 19.8281C41.5157 20.5365 41.8959 21.2969 42.2813 22.1094C42.6667 22.9219 42.9844 23.7604 43.2344 24.625C43.4844 25.4896 43.6094 26.3646 43.6094 27.25C43.6094 28.4479 43.3802 29.5677 42.9219 30.6094C42.474 31.651 41.849 32.5625 41.0469 33.3438C40.2448 34.1354 39.3073 34.75 38.2344 35.1875C37.1719 35.6354 36.0261 35.8594 34.7969 35.8594ZM8.34378 11.3438C7.0417 11.3438 5.7917 11.1823 4.59378 10.8594C3.40628 10.5365 2.23961 10.0469 1.09378 9.39062C0.56253 9.08854 0.255238 8.70312 0.171905 8.23438C0.0885713 7.75521 0.177113 7.33333 0.43753 6.96875C0.645863 6.63542 0.93753 6.41146 1.31253 6.29688C1.69795 6.18229 2.1042 6.24479 2.53128 6.48438C3.5417 7.06771 4.50524 7.48438 5.4219 7.73438C6.34899 7.98438 7.32295 8.10938 8.34378 8.10938C9.70836 8.10938 10.9948 7.92708 12.2032 7.5625C13.4115 7.1875 14.5782 6.71354 15.7032 6.14062C16.8282 5.55729 17.9532 4.94271 19.0782 4.29688C20.2032 3.65104 21.3542 3.04167 22.5313 2.46875C23.7188 1.88542 24.974 1.41146 26.2969 1.04688C27.6198 0.671875 29.0417 0.484375 30.5625 0.484375C31.875 0.484375 33.125 0.645833 34.3125 0.96875C35.5104 1.29167 36.6823 1.78125 37.8282 2.4375C38.3698 2.76042 38.6771 3.16146 38.75 3.64062C38.8334 4.10938 38.75 4.52604 38.5 4.89062C38.2709 5.21354 37.9636 5.43229 37.5782 5.54688C37.2032 5.65104 36.8073 5.58854 36.3907 5.35938C35.3802 4.77604 34.4115 4.35938 33.4844 4.10938C32.5677 3.85938 31.5938 3.73438 30.5625 3.73438C29.1771 3.73438 27.8698 3.91667 26.6407 4.28125C25.4115 4.64583 24.224 5.11979 23.0782 5.70312C21.9427 6.27604 20.8125 6.89062 19.6875 7.54688C18.5625 8.19271 17.4115 8.80729 16.2344 9.39062C15.0573 9.96354 13.8177 10.4323 12.5157 10.7969C11.224 11.1615 9.83336 11.3438 8.34378 11.3438ZM8.37503 22.1562C7.06253 22.1562 5.80732 21.9948 4.6094 21.6719C3.4219 21.349 2.25524 20.8594 1.1094 20.2031C0.588571 19.901 0.286488 19.5156 0.203155 19.0469C0.119821 18.5677 0.203155 18.1458 0.453155 17.7812C0.661488 17.4479 0.958363 17.224 1.34378 17.1094C1.7292 16.9948 2.13024 17.0573 2.5469 17.2969C3.56774 17.8802 4.53649 18.2969 5.45315 18.5469C6.38024 18.7865 7.3542 18.9062 8.37503 18.9062C9.71878 18.9062 10.974 18.7344 12.1407 18.3906C13.3177 18.0469 14.4479 17.599 15.5313 17.0469C16.6146 16.4948 17.6927 15.9062 18.7657 15.2812C19.849 14.6562 20.9636 14.0573 22.1094 13.4844C23.2552 12.901 24.474 12.4167 25.7657 12.0312C27.0573 11.6354 28.4688 11.4062 30 11.3438C29.6771 11.9375 29.3542 12.5312 29.0313 13.125C28.7084 13.7188 28.3854 14.3177 28.0625 14.9219C26.9063 15.1094 25.7969 15.4167 24.7344 15.8438C23.6719 16.2708 22.6302 16.7604 21.6094 17.3125C20.5886 17.8542 19.5729 18.4115 18.5625 18.9844C17.5521 19.5469 16.5104 20.0677 15.4375 20.5469C14.375 21.026 13.2604 21.4167 12.0938 21.7188C10.9271 22.0104 9.68753 22.1562 8.37503 22.1562ZM8.34378 32.9688C7.0417 32.9688 5.7917 32.8073 4.59378 32.4844C3.40628 32.1615 2.23961 31.6667 1.09378 31C0.56253 30.7083 0.255238 30.3229 0.171905 29.8438C0.0885713 29.375 0.177113 28.9531 0.43753 28.5781C0.645863 28.2552 0.93753 28.0365 1.31253 27.9219C1.69795 27.8073 2.1042 27.8698 2.53128 28.1094C3.5417 28.6823 4.50524 29.0938 5.4219 29.3438C6.34899 29.5938 7.32295 29.7188 8.34378 29.7188C9.84378 29.7188 11.2448 29.5 12.5469 29.0625C13.8594 28.6354 15.1302 28.0885 16.3594 27.4219C17.5886 26.7552 18.8229 26.0677 20.0625 25.3594C21.3021 24.651 22.6042 24.0312 23.9688 23.5C23.7709 24.1042 23.625 24.7448 23.5313 25.4219C23.4479 26.099 23.4323 26.6823 23.4844 27.1719C22.2865 27.724 21.1042 28.3281 19.9375 28.9844C18.7813 29.651 17.599 30.2865 16.3907 30.8906C15.1927 31.4948 13.9323 31.9896 12.6094 32.375C11.2865 32.7708 9.86461 32.9688 8.34378 32.9688Z"
                                            fill="#155042" />
                                    </svg>