<svg xmlns="http://www.w3.org/2000/svg" width="131" height="118"
                                        viewBox="0 0 131 118" fill="none">
                                        <path
                                            d="M9.04665 41.2031C7.0779 41.7656 5.31227 41.6562 3.74977 40.875C2.21852 40.0625 1.21852 38.7656 0.749773 36.9844C0.249773 35.2656 0.421648 33.6406 1.2654 32.1094C2.1404 30.5781 3.5154 29.5625 5.3904 29.0625C10.3591 27.75 15.3748 26.7188 20.4373 25.9688C25.531 25.2188 30.531 24.8438 35.4373 24.8438C38.2185 24.8438 40.8748 24.9219 43.406 25.0781C45.9373 25.2344 48.3904 25.4219 50.7654 25.6406C53.1404 25.8594 55.4841 26.0625 57.7966 26.25C60.1091 26.4062 62.4373 26.4844 64.781 26.4844C67.0935 26.4844 68.906 25.875 70.2185 24.6562C71.531 23.4375 72.1873 21.7969 72.1873 19.7344C72.1873 18.3594 71.906 17.1719 71.3435 16.1719C70.781 15.1719 69.9998 14.4062 68.9998 13.875C67.9998 13.3438 66.8435 13.0781 65.531 13.0781C64.3123 13.0781 63.1404 13.4219 62.0154 14.1094C60.9216 14.7656 60.0935 15.6094 59.531 16.6406C58.4998 18.4531 57.1091 19.625 55.3591 20.1562C53.6091 20.6562 51.9529 20.4219 50.3904 19.4531C48.8591 18.5469 47.9216 17.2969 47.5779 15.7031C47.2341 14.0781 47.4841 12.4531 48.3279 10.8281C49.4216 8.76562 50.8591 6.95312 52.6404 5.39062C54.4529 3.82812 56.4685 2.60938 58.6873 1.73438C60.906 0.859375 63.1873 0.421875 65.531 0.421875C69.156 0.421875 72.4216 1.26562 75.3279 2.95312C78.2341 4.64062 80.5466 6.9375 82.2654 9.84375C83.9841 12.75 84.8435 16.0469 84.8435 19.7344C84.8435 23.4219 83.9841 26.7344 82.2654 29.6719C80.5466 32.5781 78.1716 34.875 75.1404 36.5625C72.1404 38.25 68.6873 39.0938 64.781 39.0938C61.3123 39.0938 58.0154 38.9688 54.8904 38.7188C51.7966 38.4375 48.6716 38.1562 45.5154 37.875C42.3591 37.5938 38.9998 37.4531 35.4373 37.4531C31.1248 37.4531 26.7341 37.7656 22.2654 38.3906C17.8279 39.0156 13.4216 39.9531 9.04665 41.2031ZM104.578 72.6094C99.2654 72.6094 94.0779 72.0781 89.0154 71.0156C83.9841 69.9531 78.9373 68.7344 73.8748 67.3594C68.8123 65.9531 63.6091 64.7344 58.2654 63.7031C52.9216 62.6406 47.2966 62.1094 41.3904 62.1094C35.6091 62.1094 30.0779 62.5156 24.7966 63.3281C19.5154 64.1094 14.3123 65.3594 9.18727 67.0781C7.21852 67.7656 5.43727 67.7188 3.84352 66.9375C2.28102 66.125 1.24977 64.8281 0.749773 63.0469C0.249773 61.3281 0.421648 59.7188 1.2654 58.2188C2.10915 56.7188 3.46852 55.6719 5.34352 55.0781C11.0935 53.2344 16.9529 51.8438 22.9216 50.9062C28.9216 49.9375 35.0779 49.4531 41.3904 49.4531C47.4841 49.4531 53.3435 49.9844 58.9685 51.0469C64.6248 52.1094 70.0623 53.3438 75.281 54.75C80.531 56.125 85.5935 57.3438 90.4685 58.4062C95.3435 59.4375 100.047 59.9531 104.578 59.9531C108.703 59.9531 112 58.9219 114.469 56.8594C116.937 54.7969 118.172 52.0938 118.172 48.75C118.172 46.5625 117.687 44.6406 116.719 42.9844C115.75 41.3281 114.422 40.0312 112.734 39.0938C111.078 38.1562 109.203 37.6875 107.109 37.6875C105.609 37.6875 104.156 38 102.75 38.625C101.375 39.2188 100.172 40.0625 99.1404 41.1562C98.1091 42.2188 97.3435 43.4531 96.8435 44.8594C96.156 46.8594 94.9841 48.2656 93.3279 49.0781C91.7029 49.8594 90.0154 49.9219 88.2654 49.2656C86.6716 48.7031 85.5466 47.6406 84.8904 46.0781C84.2654 44.5156 84.2498 42.8438 84.8435 41.0625C85.8435 37.9375 87.4529 35.1719 89.6716 32.7656C91.8904 30.3594 94.4998 28.4844 97.4998 27.1406C100.5 25.7656 103.703 25.0781 107.109 25.0781C111.547 25.0781 115.547 26.1094 119.109 28.1719C122.703 30.2344 125.547 33.0625 127.64 36.6562C129.765 40.2188 130.828 44.25 130.828 48.75C130.828 53.3438 129.687 57.4375 127.406 61.0312C125.125 64.625 122.015 67.4531 118.078 69.5156C114.14 71.5781 109.64 72.6094 104.578 72.6094ZM64.8748 117.844C60.6873 117.844 56.9998 116.641 53.8123 114.234C50.6248 111.828 48.3279 108.781 46.9216 105.094C46.1716 103.281 46.0935 101.531 46.6873 99.8438C47.281 98.1562 48.4529 96.9844 50.2029 96.3281C51.9216 95.7031 53.5466 95.7344 55.0779 96.4219C56.6091 97.1406 57.7341 98.3281 58.4529 99.9844C59.0779 101.641 59.9216 102.922 60.9841 103.828C62.0466 104.766 63.3435 105.234 64.8748 105.234C66.6873 105.234 68.1716 104.656 69.3279 103.5C70.5154 102.344 71.1091 100.75 71.1091 98.7188C71.1091 95.0938 68.3123 92.1875 62.7185 90C57.1248 87.8125 49.281 86.7188 39.1873 86.7188C33.9685 86.7188 28.8279 87.1406 23.7654 87.9844C18.7341 88.7969 13.8748 90.0156 9.18727 91.6406C7.21852 92.3281 5.43727 92.2812 3.84352 91.5C2.28102 90.6875 1.24977 89.375 0.749773 87.5625C0.249773 85.875 0.421648 84.2812 1.2654 82.7812C2.10915 81.2812 3.46852 80.2344 5.34352 79.6406C10.656 77.8906 16.2498 76.5312 22.1248 75.5625C27.9998 74.5938 33.6873 74.1094 39.1873 74.1094C53.4373 74.1094 64.4216 76.2344 72.1404 80.4844C79.8904 84.7344 83.7654 90.8125 83.7654 98.7188C83.7654 102.375 82.9216 105.641 81.2341 108.516C79.5779 111.422 77.3279 113.703 74.4841 115.359C71.6404 117.016 68.4373 117.844 64.8748 117.844Z"
                                            fill="#155042" />
                                    </svg>