<svg xmlns="http://www.w3.org/2000/svg" width="53" height="52" viewBox="0 0 53 52"
                                        fill="none">
                                        <path
                                            d="M53 24.5C53 36.9264 42.9264 47 30.5 47C18.0736 47 8 36.9264 8 24.5C8 12.0736 18.0736 2 30.5 2C42.9264 2 53 12.0736 53 24.5Z"
                                            fill="white" />
                                        <path
                                            d="M26.2734 51.6992C23.4479 51.6992 20.7526 51.2565 18.1875 50.3711C15.6224 49.4987 13.2656 48.2682 11.1172 46.6797C8.96875 45.1042 7.10026 43.2422 5.51172 41.0938C3.92318 38.9453 2.69271 36.5885 1.82031 34.0234C0.947917 31.4453 0.511719 28.75 0.511719 25.9375C0.511719 23.112 0.947917 20.4167 1.82031 17.8516C2.69271 15.2865 3.92318 12.9297 5.51172 10.7812C7.10026 8.63281 8.96224 6.76432 11.0977 5.17578C13.2461 3.58724 15.6029 2.35677 18.168 1.48438C20.7331 0.598958 23.4284 0.15625 26.2539 0.15625C29.0794 0.15625 31.7747 0.598958 34.3398 1.48438C36.918 2.35677 39.2812 3.58724 41.4297 5.17578C43.5781 6.76432 45.4466 8.63281 47.0352 10.7812C48.6237 12.9297 49.8542 15.2865 50.7266 17.8516C51.612 20.4167 52.0547 23.112 52.0547 25.9375C52.0547 28.75 51.612 31.4453 50.7266 34.0234C49.8542 36.5885 48.6237 38.9453 47.0352 41.0938C45.4466 43.2422 43.5781 45.1042 41.4297 46.6797C39.2812 48.2682 36.9245 49.4987 34.3594 50.3711C31.7943 51.2565 29.099 51.6992 26.2734 51.6992ZM11.8398 21.7188C12.9336 21.3411 14.0404 21.0612 15.1602 20.8789C16.293 20.6966 17.4258 20.6055 18.5586 20.6055C19.5221 20.6055 20.4206 20.6445 21.2539 20.7227C22.1003 20.7878 22.9336 20.8594 23.7539 20.9375C24.5872 21.0156 25.4792 21.0547 26.4297 21.0547C27.862 21.0547 29.0208 20.6185 29.9062 19.7461C30.7917 18.8607 31.2344 17.7539 31.2344 16.4258C31.2344 15.0846 30.7786 13.9779 29.8672 13.1055C28.9688 12.2331 27.888 11.7969 26.625 11.7969C25.6484 11.7969 24.7695 12.0703 23.9883 12.6172C23.207 13.1641 22.6602 13.8542 22.3477 14.6875C22.1914 15 22.1589 15.3255 22.25 15.6641C22.3411 15.9896 22.5625 16.2305 22.9141 16.3867C23.2266 16.543 23.5456 16.5625 23.8711 16.4453C24.2096 16.3281 24.4635 16.0807 24.6328 15.7031C24.7891 15.3125 25.0365 14.987 25.375 14.7266C25.7266 14.4661 26.1432 14.3359 26.625 14.3359C27.2109 14.3359 27.6927 14.5247 28.0703 14.9023C28.4609 15.2669 28.6562 15.7747 28.6562 16.4258C28.6562 17.0638 28.4544 17.5716 28.0508 17.9492C27.6602 18.3268 27.1198 18.5156 26.4297 18.5156C25.5312 18.5156 24.6784 18.4701 23.8711 18.3789C23.0638 18.2878 22.2305 18.2031 21.3711 18.125C20.5117 18.0469 19.5742 18.0078 18.5586 18.0078C17.2695 18.0078 15.987 18.125 14.7109 18.3594C13.4349 18.5807 12.2044 18.8867 11.0195 19.2773C10.6289 19.3945 10.3555 19.6159 10.1992 19.9414C10.043 20.2539 10.0234 20.5729 10.1406 20.8984C10.2448 21.237 10.4531 21.4909 10.7656 21.6602C11.0911 21.8294 11.4492 21.849 11.8398 21.7188ZM36.3516 29.0234C37.6276 29.0234 38.7539 28.776 39.7305 28.2812C40.707 27.7865 41.4688 27.1029 42.0156 26.2305C42.5755 25.3581 42.8555 24.3555 42.8555 23.2227C42.8555 22.1159 42.5951 21.1328 42.0742 20.2734C41.5664 19.401 40.8763 18.7174 40.0039 18.2227C39.1315 17.7148 38.1615 17.4609 37.0938 17.4609C36.1432 17.4609 35.2708 17.6693 34.4766 18.0859C33.6823 18.4896 33.0247 19.0495 32.5039 19.7656C31.9961 20.4818 31.6706 21.2826 31.5273 22.168C31.4492 22.5586 31.5078 22.9036 31.7031 23.2031C31.9115 23.5026 32.1849 23.6849 32.5234 23.75C32.875 23.8021 33.194 23.7305 33.4805 23.5352C33.7799 23.3398 33.9753 23.0339 34.0664 22.6172C34.1836 21.849 34.5221 21.224 35.082 20.7422C35.6419 20.2604 36.3125 20.0195 37.0938 20.0195C38.0052 20.0195 38.7669 20.319 39.3789 20.918C39.9909 21.5039 40.2969 22.2721 40.2969 23.2227C40.2969 24.2122 39.9453 25 39.2422 25.5859C38.5391 26.1589 37.5755 26.4453 36.3516 26.4453C35.1667 26.4453 33.9492 26.3086 32.6992 26.0352C31.4492 25.7617 30.1536 25.4492 28.8125 25.0977C27.4844 24.7331 26.0977 24.4141 24.6523 24.1406C23.207 23.8672 21.6901 23.7305 20.1016 23.7305C18.474 23.7305 16.8984 23.8672 15.375 24.1406C13.8646 24.4141 12.4062 24.7982 11 25.293C10.6224 25.4232 10.3555 25.6445 10.1992 25.957C10.043 26.2695 10.0234 26.5885 10.1406 26.9141C10.2318 27.2786 10.4401 27.5456 10.7656 27.7148C11.0911 27.8711 11.4557 27.8711 11.8594 27.7148C13.1224 27.2201 14.4245 26.8685 15.7656 26.6602C17.1068 26.4388 18.5521 26.3281 20.1016 26.3281C21.638 26.3281 23.0964 26.4648 24.4766 26.7383C25.8698 26.9987 27.2174 27.3112 28.5195 27.6758C29.8216 28.0273 31.1172 28.3398 32.4062 28.6133C33.6953 28.8867 35.0104 29.0234 36.3516 29.0234ZM26.4297 40.0586C27.7057 40.0586 28.7799 39.6354 29.6523 38.7891C30.5247 37.9297 30.9609 36.8229 30.9609 35.4688C30.9609 33.5417 30.0039 32.0638 28.0898 31.0352C26.1888 29.9935 23.4805 29.4727 19.9648 29.4727C18.4935 29.4727 16.9701 29.6094 15.3945 29.8828C13.832 30.1562 12.3737 30.5339 11.0195 31.0156C10.6419 31.1589 10.3685 31.3867 10.1992 31.6992C10.043 31.9987 10.0234 32.3047 10.1406 32.6172C10.2318 32.9557 10.4401 33.2161 10.7656 33.3984C11.0911 33.5677 11.4557 33.5872 11.8594 33.457C13.0964 33.0013 14.4049 32.6497 15.7852 32.4023C17.1654 32.1549 18.5586 32.0312 19.9648 32.0312C22.7643 32.0312 24.8672 32.3438 26.2734 32.9688C27.6797 33.5938 28.3828 34.4271 28.3828 35.4688C28.3828 36.1198 28.194 36.6211 27.8164 36.9727C27.4518 37.3242 26.9896 37.5 26.4297 37.5C25.8698 37.5 25.4336 37.3438 25.1211 37.0312C24.8086 36.7188 24.6003 36.2565 24.4961 35.6445C24.418 35.319 24.2422 35.0391 23.9688 34.8047C23.7083 34.5703 23.3828 34.4857 22.9922 34.5508C22.5495 34.6029 22.2435 34.7917 22.0742 35.1172C21.9049 35.4427 21.8594 35.7878 21.9375 36.1523C22.1068 37.2721 22.5951 38.2031 23.4023 38.9453C24.2096 39.6875 25.2188 40.0586 26.4297 40.0586Z"
                                            fill="#155042" />
                                    </svg>